<svg class="animated" id="freepik_stories-audiobook" xmlns="http://www.w3.org/2000/svg" viewBox="0 0 500 500" version="1.1" xmlns:xlink="http://www.w3.org/1999/xlink" xmlns:svgjs="http://svgjs.com/svgjs"><style>svg#freepik_stories-audiobook:not(.animated) .animable {opacity: 0;}svg#freepik_stories-audiobook.animated #freepik--Character--inject-151 {animation: 1.5s Infinite  linear floating;animation-delay: 0s;}            @keyframes floating {                0% {                    opacity: 1;                    transform: translateY(0px);                }                50% {                    transform: translateY(-10px);                }                100% {                    opacity: 1;                    transform: translateY(0px);                }            }        </style><g id="freepik--background-simple--inject-151" class="animable" style="transform-origin: 255.635px 249.852px;"><path d="M472.73,202.68a798.19,798.19,0,0,0-38.81-70.48C412.51,97.51,384.5,65,347.83,44.47c-85.07-47.58-183.06-29-247.66,25.86S88.32,195.51,76.48,248.27,27,299,17.26,375.51,117.4,497.58,202.46,477.92,288.6,423.09,360.75,421,476,397.23,491,316.54c5.29-28.35,5.85-59.17-5.71-86.25C481.41,221.11,477.19,211.88,472.73,202.68Z" style="fill: #8400BA; transform-origin: 255.635px 249.852px;" id="el2x0q2dt5du4" class="animable"></path><g id="el4bcpi4hmfz5"><path d="M472.73,202.68a798.19,798.19,0,0,0-38.81-70.48C412.51,97.51,384.5,65,347.83,44.47c-85.07-47.58-183.06-29-247.66,25.86S88.32,195.51,76.48,248.27,27,299,17.26,375.51,117.4,497.58,202.46,477.92,288.6,423.09,360.75,421,476,397.23,491,316.54c5.29-28.35,5.85-59.17-5.71-86.25C481.41,221.11,477.19,211.88,472.73,202.68Z" style="fill: rgb(255, 255, 255); opacity: 0.7; transform-origin: 255.635px 249.852px;" class="animable" id="elio545eil86"></path></g></g><g id="freepik--Plant--inject-151" class="animable" style="transform-origin: 433.192px 335.802px;"><path d="M442.16,269.34h0a.1.1,0,0,0-.05-.12.1.1,0,0,0-.13,0A127.11,127.11,0,0,0,435.38,290a192.06,192.06,0,0,0-3.64,21.47l-.52,5.43c-.08.91-.18,1.81-.24,2.72l-.15,2.72c-.08,1.82-.19,3.63-.24,5.45l.05,5.45.06,2.73c0,.91.1,1.82.16,2.72.14,1.82.25,3.63.42,5.44.35,3.61.89,7.21,1.45,10.79a.09.09,0,0,0,.09.08.09.09,0,0,0,.1-.09h0c0-1.82-.09-3.63-.13-5.43s-.21-3.61-.18-5.42,0-3.61-.06-5.42l-.05-2.7.05-2.7,0-5.41.15-5.4,0-2.7c0-.9.11-1.8.16-2.7l.33-5.4a191.4,191.4,0,0,1,3.06-21.42A125.42,125.42,0,0,1,442.16,269.34Z" style="fill: rgb(38, 50, 56); transform-origin: 436.377px 312.098px;" id="els4ur2hv1jif" class="animable"></path><path d="M442.94,297.61a.1.1,0,0,0-.06-.12.09.09,0,0,0-.12.06,127.44,127.44,0,0,0-3.85,13.72,128.73,128.73,0,0,0-2.27,14.11c-.48,4.73-1,9.47-1.07,14.22a117.19,117.19,0,0,0,.5,14.26.11.11,0,0,0,.09.09.09.09,0,0,0,.1-.09c.55-4.73.89-9.46,1.21-14.18s.38-9.45.69-14.17a142.05,142.05,0,0,1,4.78-27.9Z" style="fill: rgb(38, 50, 56); transform-origin: 439.237px 325.717px;" id="el8008ruyx2j8" class="animable"></path><path d="M458.61,307.55a.09.09,0,0,0-.13,0A47.76,47.76,0,0,0,448,316.65a42.26,42.26,0,0,0-4.1,5.7l-.84,1.59-.66,1.65a15,15,0,0,0-.57,1.67c-.17.56-.36,1.13-.51,1.69a67.07,67.07,0,0,0-2.17,13.82,79.91,79.91,0,0,0,.52,13.92.11.11,0,0,0,.09.09.1.1,0,0,0,.1-.09l1.19-13.78a122.82,122.82,0,0,1,1.75-13.59c.12-.55.28-1.1.42-1.64a15.29,15.29,0,0,1,.49-1.63l.56-1.59L445,323a39.46,39.46,0,0,1,3.75-5.7,47,47,0,0,1,9.84-9.58h0A.11.11,0,0,0,458.61,307.55Z" style="fill: rgb(38, 50, 56); transform-origin: 448.846px 332.151px;" id="elbv7ylydewff" class="animable"></path><path d="M451,325.25a15.31,15.31,0,0,0-4.76,5.73,33.85,33.85,0,0,0-2.67,7c-.19.6-.33,1.2-.47,1.82l-.43,1.83a31,31,0,0,0-.46,3.72c0,1.25-.05,2.5,0,3.74a35.71,35.71,0,0,0,.49,3.72.11.11,0,0,0,.08.08.09.09,0,0,0,.11-.08,31.26,31.26,0,0,0,.66-3.66c.2-1.21.39-2.42.53-3.62s.34-2.4.43-3.61.26-2.42.52-3.6a32.82,32.82,0,0,1,2-6.95,15.31,15.31,0,0,1,4-6l0,0a.11.11,0,0,0,0-.12A.11.11,0,0,0,451,325.25Z" style="fill: rgb(38, 50, 56); transform-origin: 446.618px 339.071px;" id="elzvpfu87e27s" class="animable"></path><path d="M429.05,339.05c-.52-6.11-1.52-12.17-2.48-18.22s-2-12.09-3.12-18.12-2.34-12-3.64-18a.1.1,0,1,0-.19,0c1.05,6,2,12.08,2.89,18.13S424.29,315,425.06,321s1.33,12.16,2.09,18.21l2.24,18.21a.09.09,0,0,0,.09.09.1.1,0,0,0,.1-.09c.07-1.54.07-3.07.11-4.61s-.06-3.07-.09-4.6C429.54,345.17,429.28,342.12,429.05,339.05Z" style="fill: rgb(38, 50, 56); transform-origin: 424.657px 321.044px;" id="el584m3q78g5g" class="animable"></path><path d="M425.38,339c-.33-2.43-.77-4.84-1.23-7.24l-.86-3.57c-.28-1.19-.55-2.38-.9-3.56a101.9,101.9,0,0,0-4.67-13.91L417,309l-.81-1.65c-.52-1.11-1.15-2.16-1.74-3.23a27.17,27.17,0,0,0-4.42-5.86.09.09,0,0,0-.13,0,.09.09,0,0,0,0,.13h0a26.93,26.93,0,0,1,4,6c.53,1.08,1.09,2.15,1.55,3.28l.71,1.66.64,1.7A98.69,98.69,0,0,1,420.91,325c.55,2.35.92,4.75,1.38,7.12l.57,3.59c.21,1.19.47,2.37.63,3.57.39,2.39.82,4.78,1.24,7.17s.81,4.8,1.32,7.19a.09.09,0,0,0,.09.08.1.1,0,0,0,.1-.09q0-3.68-.17-7.33C425.92,343.83,425.64,341.4,425.38,339Z" style="fill: rgb(38, 50, 56); transform-origin: 418.056px 325.976px;" id="ell2j613w261" class="animable"></path><path d="M420.32,339.28c-1.13-3.21-2.45-6.35-3.87-9.43a84,84,0,0,0-4.88-8.94.1.1,0,0,0-.13,0,.1.1,0,0,0,0,.13,84.69,84.69,0,0,1,4.16,9.22c1.24,3.12,2.36,6.3,3.3,9.52s1.64,6.51,2.5,9.75S423,356,424,359.27a.1.1,0,0,0,.09.07.09.09,0,0,0,.1-.09,49,49,0,0,0-.95-10.18A63.23,63.23,0,0,0,420.32,339.28Z" style="fill: rgb(38, 50, 56); transform-origin: 417.805px 340.113px;" id="elpdt4jl8dqn" class="animable"></path><path d="M420.11,350a22.21,22.21,0,0,0-2.69-5.65,23.93,23.93,0,0,0-3.92-4.87,18.36,18.36,0,0,0-2.5-1.88,10.41,10.41,0,0,0-2.82-1.28.1.1,0,0,0-.07.18h0a14,14,0,0,1,4.69,3.64,22.32,22.32,0,0,1,3.26,4.95c.93,1.76,1.41,3.7,2.22,5.51.36.93.71,1.86,1.12,2.79a23.87,23.87,0,0,0,1.23,2.82h0a.11.11,0,0,0,.09.05.1.1,0,0,0,.1-.09,23.34,23.34,0,0,0-.12-3.13C420.57,352,420.35,351,420.11,350Z" style="fill: rgb(38, 50, 56); transform-origin: 414.449px 346.29px;" id="elli1rztk5x9" class="animable"></path><path d="M420.49,293.46a17.4,17.4,0,0,1-12.34-13.1c-2.31-10.8,5.14-6.17-1.54-23.14s-5.14-20.81-2.83-25.7,3.6-3.34,5.66,3.09,9.51,16.45,12.33,35.21S420.49,293.46,420.49,293.46Z" style="fill: #8400BA; transform-origin: 412.283px 261.052px;" id="elu5oukv8aaja" class="animable"></path><path d="M440.28,275.22s-6.68-2.32-6.94-14.91,4.88-10,5.65-25.7,1.8-26.73,4.63-27,10.28,7.71,12.85,25.19-3.34,29-8.48,34.18S440.28,275.22,440.28,275.22Z" style="fill: #8400BA; transform-origin: 445.211px 241.412px;" id="el3heaypr4xaw" class="animable"></path><path d="M416.89,308.63s-1.54-9.25-4.63-13.62-9.76-8.23-14.13-16.71-9.26-12.59-9-.51,5.66,18.24,12.34,22.36S416.89,308.63,416.89,308.63Z" style="fill: #8400BA; transform-origin: 403.005px 289.435px;" id="elovpnl56j05l" class="animable"></path><path d="M414.06,324.56S407.89,312.74,398.9,304s-16.19-13.11-13.62-8.74,5.65,4.12,10,11.83,3.08,13.36,9.25,17.73S414.06,324.56,414.06,324.56Z" style="fill: #8400BA; transform-origin: 399.407px 310.121px;" id="elkak5bnq900s" class="animable"></path><path d="M413.29,339.73c-.26-.77-.51-6.43-9.25-11.05s-17-2.83-15.94-.52,6.43,6.17,11.83,8.48S413.29,339.73,413.29,339.73Z" style="fill: #8400BA; transform-origin: 400.649px 332.765px;" id="elt1r5smfubvk" class="animable"></path><path d="M439.76,309.14S435.91,304.26,438,294s6.68-7.71,11.82-13.11,4.11-6.17,9.25-11.82,9.77-8.74,11.82-6.43-1,9.51-4.11,13.62-8,6.17-10.28,11.31-1.28,13.37-7.2,17.22S439.76,309.14,439.76,309.14Z" style="fill: #8400BA; transform-origin: 454.467px 285.504px;" id="el2n0iqt9ch4z" class="animable"></path><path d="M452.62,312s9.25-10.54,15.93-18.25,9.25-13.62,9.51-8.48,2.31,9.25-3.08,15.93S452.62,312,452.62,312Z" style="fill: #8400BA; transform-origin: 465.639px 297.67px;" id="elfpgi34y2jz" class="animable"></path><path d="M447.73,328.93s-.26-4.11,14.39-13.62,20.82-11.31,19.28-7.45-8,7.71-14.91,14.65S447.73,328.93,447.73,328.93Z" style="fill: #8400BA; transform-origin: 464.68px 317.45px;" id="elqlhvr0iql" class="animable"></path><path d="M421.1,292.37s-3.44-18.44-7-31.55-5.91-21.07-5.91-21.07" style="fill: none; stroke: rgb(38, 50, 56); stroke-linecap: round; stroke-linejoin: round; transform-origin: 414.645px 266.06px;" id="elwwb6l4lcza" class="animable"></path><path d="M439.69,275.41s6.24-20,8.3-32.07-.26-21.07-1.29-26.47" style="fill: none; stroke: rgb(38, 50, 56); stroke-linecap: round; stroke-linejoin: round; transform-origin: 444.253px 246.14px;" id="el45lwcdu3o2w" class="animable"></path><path d="M416.08,308.24a97.27,97.27,0,0,0-9.47-13.49c-5.66-6.68-10-10.28-12.6-16.71" style="fill: none; stroke: rgb(38, 50, 56); stroke-linecap: round; stroke-linejoin: round; transform-origin: 405.045px 293.14px;" id="el92l84k7hkx" class="animable"></path><path d="M439.76,309.14s2.06-12.34,6.94-18.76,14.65-16.45,18.51-22.88" style="fill: none; stroke: rgb(38, 50, 56); stroke-linecap: round; stroke-linejoin: round; transform-origin: 452.485px 288.32px;" id="el1nrrmxu5avp" class="animable"></path><path d="M412.69,339.45s-8.65-5.63-14.82-8.72" style="fill: none; stroke: rgb(38, 50, 56); stroke-linecap: round; stroke-linejoin: round; transform-origin: 405.28px 335.09px;" id="elhziyjrsug7o" class="animable"></path><path d="M462.21,391.25c-.58-15.59-17.91-26-17.91-26H417.74s-17.33,10.4-17.91,26S419.47,464,419.47,464h23.1S462.79,406.85,462.21,391.25Z" style="fill: rgb(38, 50, 56); stroke: rgb(38, 50, 56); stroke-linecap: round; stroke-linejoin: round; transform-origin: 431.02px 414.625px;" id="elzsazgkjn2t" class="animable"></path><polygon points="447.72 349.92 413.83 349.92 417.74 365.26 443.81 365.26 447.72 349.92" style="fill: rgb(38, 50, 56); stroke: rgb(38, 50, 56); stroke-linecap: round; stroke-linejoin: round; transform-origin: 430.775px 357.59px;" id="elz1n22iopdl" class="animable"></polygon></g><g id="freepik--Icons--inject-151" class="animable" style="transform-origin: 241.276px 210.049px;"><g id="elyck1wex0fij"><circle cx="407.66" cy="173.24" r="21.51" style="fill: none; stroke: rgb(38, 50, 56); stroke-linecap: round; stroke-linejoin: round; transform-origin: 407.66px 173.24px; transform: rotate(-13.41deg);" class="animable" id="eldyucyi6ikio"></circle></g><polygon points="423.54 173.24 399.05 159.1 399.05 187.38 423.54 173.24" style="fill: none; stroke: rgb(38, 50, 56); stroke-linecap: round; stroke-linejoin: round; transform-origin: 411.295px 173.24px;" id="elsggo1iqutho" class="animable"></polygon><g id="elz6rptrk17gp"><circle cx="81.24" cy="359.01" r="14.54" style="fill: none; stroke: rgb(38, 50, 56); stroke-linecap: round; stroke-linejoin: round; transform-origin: 81.24px 359.01px; transform: rotate(-67.5deg);" class="animable" id="eldsnf2lyr2m"></circle></g><polygon points="91.97 359.01 75.41 349.45 75.41 368.57 91.97 359.01" style="fill: none; stroke: rgb(38, 50, 56); stroke-linecap: round; stroke-linejoin: round; transform-origin: 83.69px 359.01px;" id="elb3bjeai21xg" class="animable"></polygon><rect x="82.89" y="181.43" width="12.28" height="40.22" style="fill: none; stroke: rgb(38, 50, 56); stroke-linecap: round; stroke-linejoin: round; transform-origin: 89.03px 201.54px;" id="eln1b5fyxagi8" class="animable"></rect><rect x="104.37" y="181.43" width="12.28" height="40.22" style="fill: none; stroke: rgb(38, 50, 56); stroke-linecap: round; stroke-linejoin: round; transform-origin: 110.51px 201.54px;" id="el0ywsm4iq05ra" class="animable"></rect><rect x="155.75" y="42.09" width="28.01" height="28.01" style="fill: none; stroke: rgb(38, 50, 56); stroke-linecap: round; stroke-linejoin: round; transform-origin: 169.755px 56.095px;" id="elyox0fxqzcw" class="animable"></rect><rect x="327.61" y="174.25" width="17" height="17" style="fill: none; stroke: rgb(38, 50, 56); stroke-linecap: round; stroke-linejoin: round; transform-origin: 336.11px 182.75px;" id="elg79vhonh0pa" class="animable"></rect><rect x="48.98" y="246.31" width="17" height="17" style="fill: none; stroke: rgb(38, 50, 56); stroke-linecap: round; stroke-linejoin: round; transform-origin: 57.48px 254.81px;" id="el9an0i9yzzy" class="animable"></rect></g><g id="freepik--speech-bubble--inject-151" class="animable" style="transform-origin: 352.235px 87.66px;"><circle cx="359.05" cy="87.66" r="34.09" style="fill: rgb(255, 255, 255); stroke: rgb(38, 50, 56); stroke-linecap: round; stroke-linejoin: round; transform-origin: 359.05px 87.66px;" id="elj29rhgapnjm" class="animable"></circle><polygon points="341.99 81.27 341.99 94.48 358.77 103.83 358.77 71.92 341.99 81.27" style="fill: rgb(38, 50, 56); transform-origin: 350.38px 87.875px;" id="elmf4ggt2urr" class="animable"></polygon><rect x="332.6" y="81.5" width="8.39" height="12.64" style="fill: rgb(38, 50, 56); transform-origin: 336.795px 87.82px;" id="el60olrrykhku" class="animable"></rect><path d="M372.35,99.44a18.84,18.84,0,0,0-.13-25.9" style="fill: none; stroke: rgb(38, 50, 56); stroke-linecap: round; stroke-linejoin: round; stroke-width: 2px; transform-origin: 374.831px 86.49px;" id="elvjqqex1pemr" class="animable"></path><path d="M368.49,96.75a14.21,14.21,0,0,0-.33-20.7" style="fill: none; stroke: rgb(38, 50, 56); stroke-linecap: round; stroke-linejoin: round; stroke-width: 2px; transform-origin: 370.481px 86.4px;" id="elyzs2w8l23pc" class="animable"></path><path d="M364.62,93.18a9,9,0,0,0-.36-13.56" style="fill: none; stroke: rgb(38, 50, 56); stroke-linecap: round; stroke-linejoin: round; stroke-width: 2px; transform-origin: 365.893px 86.4px;" id="el7o4n27m8tmi" class="animable"></path><line x1="326.88" y1="99.79" x2="311.33" y2="105.17" style="fill: rgb(255, 255, 255); stroke: rgb(38, 50, 56); stroke-linecap: round; stroke-linejoin: round; transform-origin: 319.105px 102.48px;" id="elfkoow93y7jn" class="animable"></line></g><g id="freepik--Character--inject-151" class="animable" style="transform-origin: 244.735px 257.463px;"><path d="M272,459.38V405.76H108.88V401h240a31.65,31.65,0,0,1,31.64,31.65h0a31.65,31.65,0,0,1-31.64,31.64h-240v-4.89Z" style="fill: #8400BA; stroke: rgb(38, 50, 56); stroke-miterlimit: 10; transform-origin: 244.7px 432.645px;" id="elnmncszj40jq" class="animable"></path><path d="M344.56,432.63A31.65,31.65,0,0,0,312.91,401h9a31.65,31.65,0,0,1,0,63.29h-9A31.65,31.65,0,0,0,344.56,432.63Z" style="fill: rgb(255, 255, 255); stroke: rgb(38, 50, 56); stroke-linecap: round; stroke-linejoin: round; transform-origin: 332.954px 432.645px;" id="el4n52w97jmrq" class="animable"></path><path d="M115.45,458.52c10.28-31.24,0-52.6,0-52.6H270.39a26.71,26.71,0,0,1,26.71,26.71h0a26.71,26.71,0,0,1-26.71,26.71H115.17C115.26,459.07,115.36,458.8,115.45,458.52Z" style="fill: rgb(255, 255, 255); stroke: rgb(38, 50, 56); stroke-linecap: round; stroke-linejoin: round; transform-origin: 206.135px 432.63px;" id="elm1p9zs78v3" class="animable"></path><line x1="295.04" y1="422.35" x2="247.78" y2="422.35" style="fill: none; stroke: rgb(38, 50, 56); stroke-linecap: round; stroke-linejoin: round; transform-origin: 271.41px 422.35px;" id="elzcqzgwdpbe" class="animable"></line><line x1="297.1" y1="432.63" x2="277.37" y2="432.63" style="fill: none; stroke: rgb(38, 50, 56); stroke-linecap: round; stroke-linejoin: round; transform-origin: 287.235px 432.63px;" id="elri8iduwvjma" class="animable"></line><line x1="293.4" y1="444.96" x2="228.06" y2="444.96" style="fill: none; stroke: rgb(38, 50, 56); stroke-linecap: round; stroke-linejoin: round; transform-origin: 260.73px 444.96px;" id="eldt5t6ovqfle" class="animable"></line><line x1="268.33" y1="419.07" x2="232.17" y2="419.07" style="fill: none; stroke: rgb(38, 50, 56); stroke-linecap: round; stroke-linejoin: round; transform-origin: 250.25px 419.07px;" id="eldlpv6pfbjc" class="animable"></line><line x1="273.67" y1="432.63" x2="265.04" y2="432.63" style="fill: none; stroke: rgb(38, 50, 56); stroke-linecap: round; stroke-linejoin: round; transform-origin: 269.355px 432.63px;" id="el42wsd9bkkn2" class="animable"></line><line x1="221.48" y1="444.96" x2="214.91" y2="444.96" style="fill: none; stroke: rgb(38, 50, 56); stroke-linecap: round; stroke-linejoin: round; transform-origin: 218.195px 444.96px;" id="elzh1hl7j5luf" class="animable"></line><line x1="118.74" y1="417.01" x2="132.72" y2="417.01" style="fill: none; stroke: rgb(38, 50, 56); stroke-linecap: round; stroke-linejoin: round; transform-origin: 125.73px 417.01px;" id="eluoya6per14i" class="animable"></line><line x1="139.7" y1="426.05" x2="123.67" y2="426.05" style="fill: none; stroke: rgb(38, 50, 56); stroke-linecap: round; stroke-linejoin: round; transform-origin: 131.685px 426.05px;" id="elfvs826udfnk" class="animable"></line><line x1="152.03" y1="440.85" x2="158.19" y2="440.85" style="fill: none; stroke: rgb(38, 50, 56); stroke-linecap: round; stroke-linejoin: round; transform-origin: 155.11px 440.85px;" id="eliivwmzqy45" class="animable"></line><line x1="121.62" y1="440.85" x2="145.87" y2="440.85" style="fill: none; stroke: rgb(38, 50, 56); stroke-linecap: round; stroke-linejoin: round; transform-origin: 133.745px 440.85px;" id="el8dos9ynjs5o" class="animable"></line><path d="M211.11,334V280.4H374.26v-4.77h-240a31.65,31.65,0,0,0-31.64,31.64h0a31.64,31.64,0,0,0,31.64,31.64h240V334Z" style="fill: rgb(153, 153, 153); stroke: rgb(38, 50, 56); stroke-linecap: round; stroke-linejoin: round; transform-origin: 238.44px 307.27px;" id="elh9y1wxtiso8" class="animable"></path><path d="M129,307.27a31.65,31.65,0,0,1,31.64-31.64h-9a31.64,31.64,0,1,0,0,63.28h9A31.64,31.64,0,0,1,129,307.27Z" style="fill: rgb(255, 255, 255); stroke: rgb(38, 50, 56); stroke-linecap: round; stroke-linejoin: round; transform-origin: 140.32px 307.27px;" id="elh0lywwbfepu" class="animable"></path><path d="M168.13,307.27a31.65,31.65,0,0,1,31.65-31.64h-9a31.64,31.64,0,1,0,0,63.28h9A31.64,31.64,0,0,1,168.13,307.27Z" style="fill: rgb(255, 255, 255); stroke: rgb(38, 50, 56); stroke-linecap: round; stroke-linejoin: round; transform-origin: 179.46px 307.27px;" id="elip8dserhcx" class="animable"></path><path d="M367.69,333.16c-10.28-31.23,0-52.6,0-52.6H212.76A26.71,26.71,0,0,0,186,307.27h0A26.71,26.71,0,0,0,212.76,334H368C367.88,333.71,367.78,333.45,367.69,333.16Z" style="fill: rgb(255, 255, 255); stroke: rgb(38, 50, 56); stroke-linecap: round; stroke-linejoin: round; transform-origin: 277px 307.28px;" id="elk8s361j23xt" class="animable"></path><line x1="188.1" y1="297" x2="235.36" y2="297" style="fill: none; stroke: rgb(38, 50, 56); stroke-linecap: round; stroke-linejoin: round; transform-origin: 211.73px 297px;" id="elv1kd59dc0a" class="animable"></line><line x1="186.04" y1="307.27" x2="205.77" y2="307.27" style="fill: none; stroke: rgb(38, 50, 56); stroke-linecap: round; stroke-linejoin: round; transform-origin: 195.905px 307.27px;" id="elm2lrnpg4dj" class="animable"></line><line x1="189.74" y1="319.6" x2="255.08" y2="319.6" style="fill: none; stroke: rgb(38, 50, 56); stroke-linecap: round; stroke-linejoin: round; transform-origin: 222.41px 319.6px;" id="elfevcwmt4y7l" class="animable"></line><line x1="214.81" y1="293.71" x2="250.97" y2="293.71" style="fill: none; stroke: rgb(38, 50, 56); stroke-linecap: round; stroke-linejoin: round; transform-origin: 232.89px 293.71px;" id="elh8r2ohlzfw" class="animable"></line><line x1="209.47" y1="307.27" x2="218.1" y2="307.27" style="fill: none; stroke: rgb(38, 50, 56); stroke-linecap: round; stroke-linejoin: round; transform-origin: 213.785px 307.27px;" id="elfz4ejwgmpji" class="animable"></line><line x1="261.66" y1="319.6" x2="268.23" y2="319.6" style="fill: none; stroke: rgb(38, 50, 56); stroke-linecap: round; stroke-linejoin: round; transform-origin: 264.945px 319.6px;" id="el5wptre2k63e" class="animable"></line><line x1="364.4" y1="291.66" x2="350.43" y2="291.66" style="fill: none; stroke: rgb(38, 50, 56); stroke-linecap: round; stroke-linejoin: round; transform-origin: 357.415px 291.66px;" id="eldy8zea3h8uq" class="animable"></line><line x1="343.44" y1="300.7" x2="359.47" y2="300.7" style="fill: none; stroke: rgb(38, 50, 56); stroke-linecap: round; stroke-linejoin: round; transform-origin: 351.455px 300.7px;" id="elnv0wu50vvhc" class="animable"></line><line x1="331.11" y1="315.49" x2="324.95" y2="315.49" style="fill: none; stroke: rgb(38, 50, 56); stroke-linecap: round; stroke-linejoin: round; transform-origin: 328.03px 315.49px;" id="elu0a8b1xt50o" class="animable"></line><line x1="361.52" y1="315.49" x2="337.28" y2="315.49" style="fill: none; stroke: rgb(38, 50, 56); stroke-linecap: round; stroke-linejoin: round; transform-origin: 349.4px 315.49px;" id="elmeq26t0eqmq" class="animable"></line><path d="M223.7,396.94V343.32H386.85v-4.77h-240a31.65,31.65,0,0,0-31.65,31.64h0a31.64,31.64,0,0,0,31.65,31.64h240v-4.89Z" style="fill: rgb(38, 50, 56); stroke: rgb(38, 50, 56); stroke-miterlimit: 10; transform-origin: 251.025px 370.19px;" id="elaoop3vtqdqc" class="animable"></path><path d="M141.58,370.19a31.65,31.65,0,0,1,31.65-31.64h-9a31.64,31.64,0,0,0,0,63.28h9A31.64,31.64,0,0,1,141.58,370.19Z" style="fill: rgb(255, 255, 255); stroke: rgb(38, 50, 56); stroke-linecap: round; stroke-linejoin: round; transform-origin: 152.91px 370.19px;" id="elnm2w2r9qw8" class="animable"></path><path d="M180.72,370.19a31.65,31.65,0,0,1,31.64-31.64h-9a31.64,31.64,0,1,0,0,63.28h9A31.64,31.64,0,0,1,180.72,370.19Z" style="fill: rgb(255, 255, 255); stroke: rgb(38, 50, 56); stroke-linecap: round; stroke-linejoin: round; transform-origin: 192.04px 370.19px;" id="elsfj5r7qvins" class="animable"></path><path d="M380.27,396.08c-10.27-31.23,0-52.6,0-52.6H225.34a26.71,26.71,0,0,0-26.71,26.71h0a26.71,26.71,0,0,0,26.71,26.71H380.56C380.46,396.63,380.36,396.37,380.27,396.08Z" style="fill: rgb(255, 255, 255); stroke: rgb(38, 50, 56); stroke-linecap: round; stroke-linejoin: round; transform-origin: 289.595px 370.19px;" id="elv57afjd1iyc" class="animable"></path><line x1="200.68" y1="359.92" x2="247.94" y2="359.92" style="fill: none; stroke: rgb(38, 50, 56); stroke-linecap: round; stroke-linejoin: round; transform-origin: 224.31px 359.92px;" id="el5ohm5nqzdag" class="animable"></line><line x1="198.63" y1="370.19" x2="218.35" y2="370.19" style="fill: none; stroke: rgb(38, 50, 56); stroke-linecap: round; stroke-linejoin: round; transform-origin: 208.49px 370.19px;" id="el7mvqjz24knu" class="animable"></line><line x1="202.33" y1="382.52" x2="267.67" y2="382.52" style="fill: none; stroke: rgb(38, 50, 56); stroke-linecap: round; stroke-linejoin: round; transform-origin: 235px 382.52px;" id="elvbybifp0i29" class="animable"></line><line x1="227.39" y1="356.63" x2="263.56" y2="356.63" style="fill: none; stroke: rgb(38, 50, 56); stroke-linecap: round; stroke-linejoin: round; transform-origin: 245.475px 356.63px;" id="elx1tbse1amq8" class="animable"></line><line x1="222.05" y1="370.19" x2="230.68" y2="370.19" style="fill: none; stroke: rgb(38, 50, 56); stroke-linecap: round; stroke-linejoin: round; transform-origin: 226.365px 370.19px;" id="elypsbsulosb" class="animable"></line><line x1="274.24" y1="382.52" x2="280.82" y2="382.52" style="fill: none; stroke: rgb(38, 50, 56); stroke-linecap: round; stroke-linejoin: round; transform-origin: 277.53px 382.52px;" id="elhhpjjgo2ez6" class="animable"></line><line x1="376.98" y1="354.58" x2="363.01" y2="354.58" style="fill: none; stroke: rgb(38, 50, 56); stroke-linecap: round; stroke-linejoin: round; transform-origin: 369.995px 354.58px;" id="elt3dv1ngvt4a" class="animable"></line><line x1="356.02" y1="363.62" x2="372.05" y2="363.62" style="fill: none; stroke: rgb(38, 50, 56); stroke-linecap: round; stroke-linejoin: round; transform-origin: 364.035px 363.62px;" id="eltll29s6iiw" class="animable"></line><line x1="343.69" y1="378.41" x2="337.53" y2="378.41" style="fill: none; stroke: rgb(38, 50, 56); stroke-linecap: round; stroke-linejoin: round; transform-origin: 340.61px 378.41px;" id="elxpii7ufz2j" class="animable"></line><line x1="374.11" y1="378.41" x2="349.86" y2="378.41" style="fill: none; stroke: rgb(38, 50, 56); stroke-linecap: round; stroke-linejoin: round; transform-origin: 361.985px 378.41px;" id="elf257c3e6wom" class="animable"></line><path d="M222.15,226.83l-.72.76c-2.55,2.68-11.07,11.61-11.81,12.35s-3.79,3.21-3.79,3.21-8.74,6.41-7.87,8.16,23,17.48,39,20.69,53.62,2,60.91-1.75,16.32-16,20.1-23-4.66-12.53-9.9-14.57-18.36-8.74-20.4-10.49Z" style="fill: rgb(38, 50, 56); stroke: rgb(38, 50, 56); stroke-miterlimit: 10; transform-origin: 258.407px 248.02px;" id="elkp4ddt3gnmn" class="animable"></path><path d="M243.71,126s-32.6,1.84-37.06,11.83,6,52.57,6.83,62.3,1.58,27.6,13.14,32.59,37.07,7.36,47.84,3.15,16-8.67,16-12.35-4.73-14.46-4.73-26.29,13.93-36,13.66-51-7.36-17.61-14.19-19.45S243.71,126,243.71,126Z" style="fill: #8400BA; stroke: rgb(38, 50, 56); stroke-miterlimit: 10; transform-origin: 252.471px 181.87px;" id="elg59p5zu3u7" class="animable"></path><path d="M245.94,207.63c7.21,6.25,16.89,13.85,23.79,16.19" style="fill: none; stroke: rgb(38, 50, 56); stroke-linecap: round; stroke-linejoin: round; transform-origin: 257.835px 215.725px;" id="eld9j8rx4ee0s" class="animable"></path><path d="M236.09,198.59s3.43,3.39,8.34,7.72" style="fill: none; stroke: rgb(38, 50, 56); stroke-linecap: round; stroke-linejoin: round; transform-origin: 240.26px 202.45px;" id="eliob1v0s218q" class="animable"></path><path d="M268,227.6a32.33,32.33,0,0,0,5.16,1.22" style="fill: none; stroke: rgb(38, 50, 56); stroke-linecap: round; stroke-linejoin: round; transform-origin: 270.58px 228.21px;" id="elvc6ahkzy5i" class="animable"></path><path d="M247.91,214.62a54,54,0,0,0,16.84,11.78" style="fill: none; stroke: rgb(38, 50, 56); stroke-linecap: round; stroke-linejoin: round; transform-origin: 256.33px 220.51px;" id="el5njft4vwv8f" class="animable"></path><path d="M258.87,263.55s-11.12-4.12-12.53-4.37C239.63,258,226,254.62,214,244c-14.57-12.82-42-31.18-51.87-32.93s-18.07,7.29-15.44,18.95,15.44,25.93,28.26,33.51,75.77,12.53,83.93,13.11,33.22,4.95,37.88,2,6.41-11.95,2.92-14.86-26.52,1.16-31.48.58S258.87,263.55,258.87,263.55Z" style="fill: rgb(38, 50, 56); stroke: rgb(38, 50, 56); stroke-miterlimit: 10; transform-origin: 223.857px 245.253px;" id="elpduzv9jemgb" class="animable"></path><path d="M268.19,264.42c-3.29-.39-6.31-.64-8-.77l-2.52,12.92,1.18.09c8.16.58,33.22,4.95,37.88,2s6.41-11.95,2.92-14.86S273.15,265,268.19,264.42Z" style="fill: rgb(255, 255, 255); stroke: rgb(38, 50, 56); stroke-miterlimit: 10; transform-origin: 279.58px 271.211px;" id="elfqn4v8ms1mw" class="animable"></path><path d="M217.2,263s36.71-14.27,55.95-22.43,39.34-20.4,54.49-20.4,7.29,19.23,2.92,27.39-23,12.82-37,15.74-50.42,7.57-70.82,11.07-33.8.87-41.67,0-13.11-1.17-14.57-6.41,5.83-10.49,13.12-11.66,16.61,4.66,21.27,5.83S217.2,263,217.2,263Z" style="fill: rgb(255, 255, 255); stroke: rgb(38, 50, 56); stroke-miterlimit: 10; transform-origin: 251.422px 248.154px;" id="elq9em03xo5k" class="animable"></path><path d="M327.64,220.13c-15.15,0-35.26,12.24-54.49,20.4-18.58,7.88-53.46,21.46-55.82,22.38A15.34,15.34,0,0,0,221,274.6l1.72-.27c20.4-3.5,56.83-8.16,70.82-11.07s32.63-7.58,37-15.74S342.79,220.13,327.64,220.13Z" style="fill: rgb(38, 50, 56); stroke: rgb(38, 50, 56); stroke-miterlimit: 10; transform-origin: 276.883px 247.365px;" id="elo08ez3k54p" class="animable"></path><path d="M212.07,263c-3.73-.05-8.57-.24-11.19-.9-4.66-1.17-14-7-21.27-5.83s-14.57,6.41-13.12,11.66,6.7,5.53,14.57,6.41c6.8.75,17.75,2.81,33.77,1.1a13.46,13.46,0,0,1-2.88-4.89A9.87,9.87,0,0,1,212.07,263Z" style="fill: none; stroke: rgb(38, 50, 56); stroke-linecap: round; stroke-linejoin: round; transform-origin: 190.567px 266.108px;" id="el72iuvdgta6a" class="animable"></path><path d="M213.74,132.35s-8.67-.53-11.83,13.67-.26,54.15,2.63,63.61,5.26,16.56,9.47,22.6,18.66,20.25,18.66,20.25,3.93,6.7,4.93,8,2.58,4.3,4.72,6.16a29,29,0,0,0,3.58,2.72s4,2.43,5.16,1.57-1-2.14-1-2.14l-4.58-8,1.58-.14,6,6.87s1.86,2,2.43,1.57a3.42,3.42,0,0,0,.58-2.86c-.29-.57-6-8.88-6-8.88s3.3,3,4.87,4.58,3.15,2.72,3.58,2.44a1.81,1.81,0,0,0,.14-2.44c-.71-1.14-9.73-12.88-9.73-12.88s5.58-1.29,6.58-1.72,3.15-2.14,3-3-1.43-.43-2.43.14a15.72,15.72,0,0,1-5,1c-1,0-6,0-8.31.72a15,15,0,0,1-4,.86c-.58,0-12.46-25.48-12.6-26.2S220.42,190.33,219,185s-4.44-23.61-4.44-23.61" style="fill: #8400BA; stroke: rgb(38, 50, 56); stroke-miterlimit: 10; transform-origin: 229.802px 201.731px;" id="elb23sotlxyss" class="animable"></path><path d="M255.49,269.06a3.42,3.42,0,0,0,.58-2.86c-.29-.57-6-8.88-6-8.88s3.3,3,4.87,4.58,3.15,2.72,3.58,2.44a1.81,1.81,0,0,0,.14-2.44c-.71-1.14-9.73-12.88-9.73-12.88s5.58-1.29,6.58-1.72,3.15-2.14,3-3-1.43-.43-2.43.14a15.72,15.72,0,0,1-5,1c-1,0-6,0-8.31.72a15,15,0,0,1-4,.86c-.38,0-5.55-10.81-9.15-18.55a54.18,54.18,0,0,0-13.34,6.66c5.65,6.78,16.41,17.35,16.41,17.35s3.93,6.7,4.93,8,2.58,4.3,4.72,6.16a29,29,0,0,0,3.58,2.72s4,2.43,5.16,1.57-1-2.14-1-2.14l-4.58-8,1.58-.14,6,6.87S254.92,269.49,255.49,269.06Z" style="fill: rgb(255, 255, 255); stroke: rgb(38, 50, 56); stroke-miterlimit: 10; transform-origin: 237.673px 249.792px;" id="elpv7oc7yabym" class="animable"></path><path d="M247.13,269.76s-4.54-4.93-5.92-8.28" style="fill: none; stroke: rgb(38, 50, 56); stroke-linecap: round; stroke-linejoin: round; transform-origin: 244.17px 265.62px;" id="el61krsxsebr8" class="animable"></path><ellipse cx="238.98" cy="86.22" rx="10.78" ry="11.7" style="fill: rgb(255, 255, 255); stroke: rgb(38, 50, 56); stroke-miterlimit: 10; transform-origin: 238.98px 86.22px;" id="el33wuhshkdyh" class="animable"></ellipse><path d="M250.28,52.7s-12.09,3.16-12.35,7.36.52,9.46.52,12.36-15.77,34.69-14.72,37.32,8.41,8.94,22.08,11.31,23.13,4.73,36.54.26,23.39-10.78,23.92-16.83-11.3-30.75-16-37.32-5-8.41-12.09-11.83S260.53,48.23,250.28,52.7Z" style="fill: rgb(38, 50, 56); stroke: rgb(38, 50, 56); stroke-miterlimit: 10; transform-origin: 264.984px 87.2344px;" id="elczt2hdtelw" class="animable"></path><path d="M241.61,110.79V126.3s-4.74,6.84-1.84,14.46,11.3,8.94,16,2.89,7.36-17.35,7.36-17.35l.26-20Z" style="fill: rgb(255, 255, 255); stroke: rgb(38, 50, 56); stroke-miterlimit: 10; transform-origin: 251.11px 126.876px;" id="elh0wljhtpth5" class="animable"></path><polygon points="258.34 108.09 241.88 118.89 241.61 110.79 258.34 108.09" style="fill: rgb(38, 50, 56); stroke: rgb(38, 50, 56); stroke-miterlimit: 10; transform-origin: 249.975px 113.49px;" id="elaiuxvkgsr8a" class="animable"></polygon><path d="M241.08,66.9s-10.25,24.18-9.2,27.6,2.89,16.56,6.57,17.87,23.66-2.89,26-4.73,8.15-12.36,8.68-15S267.63,64.79,266.58,64,244.76,64,241.08,66.9Z" style="fill: rgb(255, 255, 255); stroke: rgb(38, 50, 56); stroke-miterlimit: 10; transform-origin: 252.484px 88.1652px;" id="elo24syyrmed" class="animable"></path><path d="M247.39,85.56s-5.52,6-6.57,7.1-.27,3.94,1.84,3.94a25.13,25.13,0,0,0,3.68-.26" style="fill: none; stroke: rgb(38, 50, 56); stroke-linecap: round; stroke-linejoin: round; transform-origin: 243.873px 91.0801px;" id="elhdsd93he9jf" class="animable"></path><path d="M237.66,95.81s2.11,4.21,5.52,5.26,7.89-.53,7.89-.53" style="fill: none; stroke: rgb(38, 50, 56); stroke-linecap: round; stroke-linejoin: round; transform-origin: 244.365px 98.6201px;" id="elipbbo440sur" class="animable"></path><path d="M255.54,87.4s1,3.94,6.31,2.89" style="fill: none; stroke: rgb(38, 50, 56); stroke-linecap: round; stroke-linejoin: round; transform-origin: 258.695px 88.934px;" id="eladcwahp15x" class="animable"></path><path d="M240,80.56a4.23,4.23,0,0,0,6.31,2.37" style="fill: none; stroke: rgb(38, 50, 56); stroke-linecap: round; stroke-linejoin: round; transform-origin: 243.155px 82.071px;" id="elpfkw828xykp" class="animable"></path><path d="M259.22,81.35s5,.79,6.31,7.1" style="fill: none; stroke: rgb(38, 50, 56); stroke-linecap: round; stroke-linejoin: round; transform-origin: 262.375px 84.9px;" id="eli7mz9ghx92" class="animable"></path><path d="M249.49,77.41a7.67,7.67,0,0,0-8.67-1.58" style="fill: none; stroke: rgb(38, 50, 56); stroke-linecap: round; stroke-linejoin: round; transform-origin: 245.155px 76.2681px;" id="elmb99ofg5iq" class="animable"></path><path d="M282.35,90.55s2.1-23.13-4.21-35.22a14.56,14.56,0,0,1,9.2,7.89s2.89,18.92-1.57,31Z" style="fill: rgb(255, 255, 255); stroke: rgb(38, 50, 56); stroke-miterlimit: 10; transform-origin: 283.2px 74.775px;" id="el337frfzzmrt" class="animable"></path><ellipse cx="279.19" cy="99.88" rx="10.78" ry="11.7" style="fill: rgb(255, 255, 255); stroke: rgb(38, 50, 56); stroke-miterlimit: 10; transform-origin: 279.19px 99.88px;" id="elyct7kxsdv3b" class="animable"></ellipse><ellipse cx="282.35" cy="100.67" rx="7.36" ry="7.99" style="fill: rgb(255, 255, 255); stroke: rgb(38, 50, 56); stroke-miterlimit: 10; transform-origin: 282.35px 100.67px;" id="elwyra4kdd5us" class="animable"></ellipse><path d="M286.82,127.35a17.07,17.07,0,0,1,13.93,11c3.15,8.42,2.1,18.67-3.16,35s-14.72,30-17.87,31-13.41-33.64-13.67-34.43-10-43.64-9.46-46.79,14.72-5.79,14.72-5.79l5.52-7.62s1.31-1.31.79,1.32a32.07,32.07,0,0,1-2.63,6.57s5.78-7.33,6.57-8.15a4.82,4.82,0,0,1,2.37-1,2.38,2.38,0,0,0,.23,1c.26.65-.62,1.85-.62,1.85s3-3.53,3.66-3.14.91,1.56.91,2.6-4.63,8.59-5.76,10.6-18.28,8.63-18.28,8.63l17.49,35.27,1.05-11.31" style="fill: #8400BA; stroke: rgb(38, 50, 56); stroke-miterlimit: 10; transform-origin: 279.545px 156.256px;" id="elf4bnjmrau7s" class="animable"></path><path d="M278.38,158.79l-14.31-28.85s17.15-6.62,18.28-8.63,5.76-9.56,5.76-10.6-.26-2.21-.91-2.6-3.66,3.14-3.66,3.14.88-1.2.62-1.85a2.38,2.38,0,0,1-.23-1,4.82,4.82,0,0,0-2.37,1c-.79.82-6.57,8.15-6.57,8.15a32.07,32.07,0,0,0,2.63-6.57c.52-2.63-.79-1.32-.79-1.32l-5.52,7.62s-14.2,2.63-14.72,5.79c-.42,2.49,5.54,29.65,8.21,41.42Z" style="fill: rgb(255, 255, 255); stroke: rgb(38, 50, 56); stroke-miterlimit: 10; transform-origin: 272.339px 136.285px;" id="elth3ob0gtty" class="animable"></path><path d="M283.54,111.25s-5.09,8.79-5.4,9.25" style="fill: none; stroke: rgb(38, 50, 56); stroke-linecap: round; stroke-linejoin: round; transform-origin: 280.84px 115.875px;" id="elplg6bg9jjrp" class="animable"></path><line x1="287.86" y1="110.17" x2="281.07" y2="120.5" style="fill: none; stroke: rgb(38, 50, 56); stroke-linecap: round; stroke-linejoin: round; transform-origin: 284.465px 115.335px;" id="el16vqkh0979h" class="animable"></line><line x1="274.99" y1="117.63" x2="273.36" y2="118.96" style="fill: none; stroke: rgb(38, 50, 56); stroke-linecap: round; stroke-linejoin: round; transform-origin: 274.175px 118.295px;" id="elutms9ee7fjs" class="animable"></line><line x1="296.84" y1="304.06" x2="290.2" y2="304.06" style="fill: none; stroke: rgb(38, 50, 56); stroke-linecap: round; stroke-linejoin: round; stroke-width: 4px; transform-origin: 293.52px 304.06px;" id="elnssehkxz42f" class="animable"></line><path d="M276.83,114.35v234.4a12.56,12.56,0,0,0,12.56,12.56h0A12.56,12.56,0,0,0,302,348.75V306.27a2.2,2.2,0,0,0-2.2-2.21h-2.91" style="fill: none; stroke: rgb(38, 50, 56); stroke-linecap: round; stroke-linejoin: round; transform-origin: 289.415px 237.83px;" id="el1wrc7gk1x93" class="animable"></path></g><g id="freepik--Floor--inject-151" class="animable" style="transform-origin: 244.225px 464.27px;"><line x1="44.86" y1="464.27" x2="476.29" y2="464.27" style="fill: none; stroke: rgb(38, 50, 56); stroke-linecap: round; stroke-linejoin: round; transform-origin: 260.575px 464.27px;" id="elwd5sff7qjnc" class="animable"></line><line x1="12.16" y1="464.27" x2="37.91" y2="464.27" style="fill: none; stroke: rgb(38, 50, 56); stroke-linecap: round; stroke-linejoin: round; transform-origin: 25.035px 464.27px;" id="elp8ycrlymr0c" class="animable"></line></g><defs>     <filter id="active" height="200%">         <feMorphology in="SourceAlpha" result="DILATED" operator="dilate" radius="2"></feMorphology>                <feFlood flood-color="#32DFEC" flood-opacity="1" result="PINK"></feFlood>        <feComposite in="PINK" in2="DILATED" operator="in" result="OUTLINE"></feComposite>        <feMerge>            <feMergeNode in="OUTLINE"></feMergeNode>            <feMergeNode in="SourceGraphic"></feMergeNode>        </feMerge>    </filter>    <filter id="hover" height="200%">        <feMorphology in="SourceAlpha" result="DILATED" operator="dilate" radius="2"></feMorphology>                <feFlood flood-color="#ff0000" flood-opacity="0.5" result="PINK"></feFlood>        <feComposite in="PINK" in2="DILATED" operator="in" result="OUTLINE"></feComposite>        <feMerge>            <feMergeNode in="OUTLINE"></feMergeNode>            <feMergeNode in="SourceGraphic"></feMergeNode>        </feMerge>            <feColorMatrix type="matrix" values="0   0   0   0   0                0   1   0   0   0                0   0   0   0   0                0   0   0   1   0 "></feColorMatrix>    </filter></defs></svg>