<svg class="animated" id="freepik_stories-robot-face" xmlns="http://www.w3.org/2000/svg" viewBox="0 0 500 500" version="1.1" xmlns:xlink="http://www.w3.org/1999/xlink" xmlns:svgjs="http://svgjs.com/svgjs"><style>svg#freepik_stories-robot-face:not(.animated) .animable {opacity: 0;}svg#freepik_stories-robot-face.animated #freepik--Gears--inject-60 {animation: 6s Infinite  linear wind;animation-delay: 0s;}svg#freepik_stories-robot-face.animated #freepik--robot-face--inject-60 {animation: 3s Infinite  linear floating;animation-delay: 0s;}svg#freepik_stories-robot-face.animated #freepik--speech-bubble--inject-60 {animation: 6s Infinite  linear heartbeat;animation-delay: 0s;}            @keyframes wind {                0% {                    transform: rotate( 0deg );                }                25% {                    transform: rotate( 1deg );                }                75% {                    transform: rotate( -1deg );                }            }                    @keyframes floating {                0% {                    opacity: 1;                    transform: translateY(0px);                }                50% {                    transform: translateY(-10px);                }                100% {                    opacity: 1;                    transform: translateY(0px);                }            }                    @keyframes heartbeat {                0% {                    transform: scale(1);                }                10% {                    transform: scale(1.1);                }                30% {                    transform: scale(1);                }                40% {                    transform: scale(1);                }                50% {                    transform: scale(1.1);                }                60% {                    transform: scale(1);                }                100% {                    transform: scale(1);                }            }        </style><g id="freepik--Floor--inject-60" class="animable" style="transform-origin: 250.125px 365.411px;"><path id="freepik--floor--inject-60" d="M426.74,380.23l-24.21-14.12-24.2,14.12,24.2,14.11ZM401.34,395l-24.21-14.11L352.92,395l24.21,14.11Zm-25.4,14.81-24.21-14.11-24.21,14.11L351.73,424Zm-50.81,29.62-24.2-14.11-24.21,14.11,24.21,14.11Zm25.4-14.81-24.2-14.11-24.21,14.11,24.21,14.11Zm52-88.15-24.2,14.11,24.2,14.11,24.21-14.11Zm-49.61-30.31,24.21,14.11,24.21-14.11-24.21-14.12ZM299.73,424.65l-24.21-14.11-24.2,14.11,24.2,14.11Zm27.79-133.27,24.21,14.11,24.21-14.11-24.21-14.11Zm75,15.5L378.33,321l24.2,14.12L426.74,321Zm-229.81,103-24.2-14.11-24.21,14.11L148.52,424ZM73.51,350.61l24.2,14.11,24.21-14.11L97.71,336.5Zm25.4-14.81,24.2,14.11,24.21-14.11-24.21-14.11Zm50.8-29.61,24.21,14.11,24.21-14.11-24.21-14.12ZM124.31,321l24.21,14.12L172.72,321l-24.2-14.11Zm-26.6,73.35,24.21-14.11L97.71,366.11l-24.2,14.12Zm176.62,45.12-24.21-14.11-24.2,14.11,24.2,14.11ZM175.11,291.38l24.21,14.11,24.21-14.11-24.21-14.11Zm73.82,133.27-24.21-14.11-24.21,14.11,24.21,14.11Zm53.19-148.08,24.21,14.11,24.21-14.11-24.21-14.11ZM147.32,395l-24.21-14.11L98.91,395l24.2,14.12Zm50.8,29.62-24.2-14.11-24.21,14.11,24.21,14.11Zm25.41,14.81-24.21-14.11-24.21,14.11,24.21,14.11Zm-25.41,14.81-24.2-14.12-24.21,14.12,24.21,14.11Zm25.41,14.8L199.32,455l-24.21,14.11,24.21,14.11Zm-50.81-29.61-24.2-14.11-24.21,14.11,24.21,14.11Zm-25.4-14.81-24.21-14.11-24.2,14.11,24.2,14.11Zm-25.4-14.81L97.71,395.73l-24.2,14.11L97.71,424Zm177.81,44.43-24.21-14.12-24.2,14.12,24.2,14.11Zm50.8,0-24.2-14.11-24.21,14.12,24.21,14.11Zm-101.6,0-24.21-14.12-24.21,14.12,24.21,14.11Zm76.2,14.8L300.93,455l-24.21,14.11,24.21,14.11Zm-50.8,0L250.12,455l-24.2,14.11,24.2,14.11Zm-202-59.92L96.52,395,72.31,380.92,48.1,395ZM276.72,261.76l24.21,14.11,24.2-14.11-24.2-14.11Zm-127,14.81,24.21,14.11,24.21-14.11-24.21-14.11Zm25.4-14.81,24.21,14.11,24.21-14.11-24.21-14.11Zm25.41,14.81,24.2,14.11,24.21-14.11-24.21-14.11Zm-128.21,103,24.21-14.11L72.31,351.31,48.1,365.42ZM225.92,261.76l24.2,14.11,24.21-14.11-24.21-14.11Zm25.4,14.81,24.2,14.11,24.21-14.11-24.2-14.11ZM48.1,335.8l24.21,14.11L96.52,335.8,72.31,321.69ZM73.51,321l24.2,14.12L121.92,321,97.71,306.88Zm25.4-14.8,24.2,14.11,24.21-14.11-24.21-14.12Zm25.4-14.81,24.21,14.11,24.2-14.11-24.2-14.11Zm150,118.46-24.21-14.11-24.2,14.11L250.12,424Zm-50.8-29.61-24.21-14.12-24.21,14.12,24.21,14.11Zm76.2-14.81-24.21-14.11-24.2,14.11,24.2,14.11Zm-25.4,14.81-24.21-14.12-24.2,14.12,24.2,14.11Zm0-29.62L250.12,336.5l-24.2,14.11,24.2,14.11Zm-25.4,14.81-24.21-14.11-24.21,14.11,24.21,14.11Zm76.2-14.81-24.2-14.11-24.21,14.11,24.21,14.11Zm0,29.62-24.2-14.12-24.21,14.12,24.21,14.11ZM251.32,335.8l24.2,14.11,24.21-14.11-24.2-14.11ZM276.72,321l24.21,14.12L325.13,321l-24.2-14.11Zm99.22,29.62L351.73,336.5l-24.21,14.11,24.21,14.11Zm-25.4,14.81-24.21-14.11-24.21,14.11,24.21,14.11ZM225.92,321l24.2,14.12L274.33,321l-24.21-14.11Zm235.14,18.62c-.74-2.07-1.55-4.13-2.47-6.17l-4.06,2.36ZM426.31,293l-1-.81h0l1,.81Zm32.28,40.42h0Zm-14.32-22.66h0l.77.94ZM223.53,350.61,199.32,336.5l-24.21,14.11,24.21,14.11Zm237.55-11h0c.12.34.26.69.38,1Zm-7.74-4.52,4.75-2.77a100.14,100.14,0,0,0-13-20.61L429.13,321ZM149.71,365.42l24.21,14.11,24.2-14.11-24.2-14.11Zm252.82-59.93,22.77-13.27c-3.13-2.54-6.42-5-9.91-7.46h0l-12.86-7.49-24.2,14.11Zm25.41,14.81,16.33-9.52a134.35,134.35,0,0,0-18-17.75l-22.57,13.16ZM350.53,395l-24.2-14.11L302.12,395l24.21,14.11Zm26.6-73.34L352.92,335.8l24.21,14.11,24.21-14.11Zm24.21,43.73-24.21-14.11-24.21,14.11,24.21,14.11Zm-76.21,44.42-24.2-14.11-24.21,14.11L300.93,424ZM327.52,321l24.21,14.12L375.94,321l-24.21-14.11Zm-127-14.8,24.21,14.11,24.21-14.11-24.21-14.12Zm175.43,74-24.21-14.12-24.21,14.12,24.21,14.11Zm-124.62-74,24.21,14.11,24.2-14.11-24.21-14.12Zm-25.4-14.81,24.2,14.11,24.21-14.11-24.21-14.11Zm50.8,0,24.21,14.11,24.2-14.11-24.2-14.11Zm25.4,14.81,24.21,14.11,24.21-14.11-24.21-14.12ZM223.53,409.84l-24.21-14.11-24.21,14.11L199.32,424ZM98.91,365.42l24.2,14.11,24.21-14.11-24.21-14.11Zm25.4-14.81,24.21,14.11,24.2-14.11-24.2-14.11Zm48.41,29.62-24.2-14.12-24.21,14.12,24.21,14.11ZM175.11,321l24.21,14.12L223.53,321l-24.21-14.11Zm-25.4,14.81,24.21,14.11,24.2-14.11-24.2-14.11Zm150,59.23-24.21-14.11L251.32,395l24.2,14.11Zm-101.61,0-24.2-14.11L149.71,395l24.21,14.12Zm50.81,0-24.21-14.11L200.51,395l24.21,14.12Zm127,44.43-24.21-14.11-24.21,14.11,24.21,14.11ZM200.51,335.8l24.21,14.11,24.21-14.11-24.21-14.11Zm101.61,0,24.21,14.11,24.2-14.11-24.2-14.11ZM124.54,467.55l1.39.58h0l-1.39-.58Zm31.85,11L158,479h0l-1.61-.46Zm-33.28-38.44-24.2,14.12,12.85,7.49q6.24,3,12.78,5.79l22.78-13.28Zm70.26,46.5,1.89.29h0l-1.9-.28Zm12.5,1.75,3,.36,0,0-3-.36ZM237,490.83l1.83.06-1.83-.06Zm2.27.07q10.85.32,21.7,0l-10.86-6.33Zm-14.56-21.13-24.21,14.11,8.33,4.86c9.32,1.05,18.73,1.75,28.17,2.09l11.92-6.95Zm-29.44,17.16q5.25.81,10.56,1.45l-6.52-3.8Zm-46.76-32-22.59,13.17a276.54,276.54,0,0,0,30.48,10.45l16.31-9.51Zm25.4,14.81L158,479a323.17,323.17,0,0,0,35.36,7.61l4.74-2.77Zm101.6,0-24.2,14.11,11.91,6.95c9.45-.34,18.86-1,28.17-2.09l8.33-4.86Zm-228.61-74-4.74,2.77a100,100,0,0,0,13,20.62l15.91-9.28Zm27,42.09,1,.81h0l-1-.82Zm10.93,8.26Zm154.41,44.83h-.43ZM41.66,397.4c.16.37.32.73.49,1.1h0c-.18-.37-.33-.74-.5-1.11Zm-2.5-6.18c.74,2.06,1.59,4.12,2.51,6.17l4-2.36Zm33.15,19.32L56,420.06A133.71,133.71,0,0,0,74,437.8l22.57-13.15Zm219.05,78.22,2.6-.31-2.56.29Zm-28.13,2.07h0l-2.25.08ZM121.92,439.46,97.71,425.35,75,438.62c3.13,2.54,6.42,5,9.91,7.46l12.85,7.49Zm307.21-59.23,24.21,14.11,8.36-4.88a76.6,76.6,0,0,0,3.55-16.4l-11.91-6.95Zm29.44,17.16c.92-2.05,1.77-4.11,2.51-6.18L454.53,395Zm-29.44,12.45L445,419.12a99.78,99.78,0,0,0,13-20.63l-4.74-2.76Zm-50.8,29.62,24.2,14.11,12.86-7.49q5.24-3.65,9.93-7.45l-22.79-13.28Zm82.75-48.25c.21-.58.43-1.16.62-1.75-.19.59-.41,1.17-.62,1.75Zm-57.35,33.44,22.58,13.17a133.62,133.62,0,0,0,17.95-17.76l-16.33-9.52Zm54.36-26.15.5-1.1h0c-.16.37-.32.74-.49,1.1Zm7.3-39.41-10.86,6.33,10.86,6.33A74.34,74.34,0,0,0,465.39,359.09Zm-.14-1.32c.05.44.1.88.14,1.32h0C465.35,358.65,465.3,358.21,465.25,357.77ZM71.12,380.23,46.91,366.11,35,373.06a77,77,0,0,0,3.57,16.42l8.34,4.86ZM453.34,336.5l-24.21,14.11,24.21,14.11,11.91-7a76.86,76.86,0,0,0-3.55-16.4Zm11.91,36.56h0c.05-.44.1-.88.14-1.31h0C465.35,372.18,465.3,372.62,465.25,373.06ZM302.12,483.88l4.73,2.76a326.38,326.38,0,0,0,35.38-7.6l-15.9-9.27Zm-7.74,4.51q5.33-.64,10.59-1.45l-4-2.36ZM342.24,479l1.08-.3-1.09.3ZM305,486.94l1.89-.29h0l-1.88.3Zm-10.6,1.46h0l-.4.05ZM391.94,460c-1.13.58-2.26,1.14-3.4,1.69l-.06,0C389.64,461.19,390.79,460.62,391.94,460Zm-14.81-19.88-24.21,14.11,22.79,13.29q6.56-2.76,12.83-5.83l12.8-7.45Zm48.19-1.52,1-.81-1,.81Zm-9.93,7.45Zm-87.87,23,16.33,9.52a278.5,278.5,0,0,0,30.47-10.46L351.73,455Zm46.8-.94,1.39-.58-1.39.58Zm-48-207.06,15.91-9.28a323.34,323.34,0,0,0-35.37-7.6L302.12,247Zm-50.8,0L299.73,247l-8.36-4.87c-9.31-1.05-18.71-1.74-28.14-2.07L251.32,247Zm-80.27-17.18h0Zm181.87,46.79,24.21-14.11-12.85-7.49q-6.24-3.06-12.78-5.79l-22.78,13.28Zm24.21,134-24.21-14.11-24.21,14.11,24.21,14.11ZM351.73,275.87l22.58-13.16a278.36,278.36,0,0,0-30.46-10.47l-16.33,9.52ZM305,243.9c-3.52-.53-7.05-1-10.59-1.46l6.55,3.82Zm-96.09-1.82-3,.36,3-.36Zm-3,.36q-5.33.65-10.61,1.45l4.06,2.37Zm18.85,18.63L248.93,247,237,240c-9.43.33-18.83,1-28.13,2.07L200.51,247Zm14.55-21.14h0ZM237,240h0l2.12-.07Zm24-.08c-7.23-.21-14.48-.21-21.71,0l10.85,6.33Zm167,111.38-24.2,14.11,24.2,14.11,24.21-14.11Zm0-29.62L403.73,335.8l24.2,14.11,24.21-14.11Zm-39.45-52.61Zm-94.11-26.64-3-.36,3,.36ZM452.14,395l-24.21-14.11L403.73,395l24.2,14.11Zm-25.4,14.81-24.21-14.11-24.2,14.11L402.53,424ZM374.32,262.71h0l.39.16Zm-67.44-18.53-1.9-.29h0l1.9.29Zm68.83,19.11-1-.42,1,.42Zm-31.86-11.05-1.61-.45h0l1.61.45ZM198.13,247l-4.76-2.77A325.53,325.53,0,0,0,158,251.79l15.91,9.28ZM34.86,371.75l.06.58-.06-.58Zm3.68,17.71c.12.35.25.7.38,1.05-.12-.34-.23-.69-.35-1ZM35,373.06h0c0-.24-.06-.48-.08-.73C35,372.58,35,372.82,35,373.06ZM71.12,321l-15.91-9.27a99.72,99.72,0,0,0-13,20.62l4.74,2.77Zm-29,11.34c-.17.37-.33.74-.49,1.11.16-.37.34-.73.51-1.1Zm54.37-26.14L73.94,293A133.56,133.56,0,0,0,56,310.78l16.32,9.52Zm-61.66,52.9h0c0-.44.09-.88.13-1.31C35,358.21,34.9,358.65,34.86,359.09Zm36.26-8.48L46.91,336.5l-8.37,4.88A77.83,77.83,0,0,0,35,357.78l11.92,6.94ZM41.66,333.44q-1.38,3.07-2.5,6.18l6.55-3.82Zm-3.12,7.94h0c.2-.59.41-1.17.62-1.76C39,340.21,38.74,340.79,38.54,341.38ZM73.93,293h0l.68-.57Zm37.83-23.94Zm12.78-5.79h0l.28-.12Zm-1.43,27.39,24.21-14.11-22.78-13.28Q118,266,111.76,269.08l-12.85,7.49Zm25.41-14.81,24.2-14.11-16.32-9.51a276.4,276.4,0,0,0-30.47,10.46ZM34.86,359.09a74.34,74.34,0,0,0,0,12.66l10.85-6.33Zm62.85-53.6,24.21-14.11L97.71,277.27l-12.85,7.49q-5.23,3.64-9.93,7.45ZM56,310.78l-.57.7c.19-.24.39-.47.58-.7Zm41.76-34.22h0ZM158,251.79l-1.62.45h0l1.61-.46Zm-73.15,33Z" style="fill: rgb(245, 245, 245); transform-origin: 250.125px 365.411px;" class="animable"></path></g><g id="freepik--Shadow--inject-60" class="animable" style="transform-origin: 245.848px 366.056px;"><g id="freepik--shadow--inject-60"><path d="M400.38,298.65c-20.91-12.07-54.15-12.66-76.3-1.8-49.41-18.41-116-15.14-159.29,9.84-35.27,20.36-45.56,49.68-30.9,75.28-15.32-.43-30.88,2.73-42.58,9.49-22,12.71-22,33.31,0,46s57.7,12.71,79.71,0c8.16-4.72,13.29-10.52,15.4-16.6,49.36,18.2,115.67,14.88,158.79-10,28-16.17,40.27-38,36.79-59.11a68,68,0,0,0,18.37-7.08C422.39,332,422.39,311.36,400.38,298.65Z" style="opacity: 0.05; transform-origin: 245.848px 366.056px;" class="animable" id="el6nm5he8ydeo"></path></g></g><g id="freepik--Gears--inject-60" class="animable" style="transform-origin: 269.366px 204.849px;"><path id="freepik--Gear--inject-60" d="M458.18,271.23l-3.76-3.79a31.29,31.29,0,0,1-8,3.28l0,5.32a2,2,0,0,1-1.7,2A38.13,38.13,0,0,1,432,278a2,2,0,0,1-1.68-2l0-5.31a31.48,31.48,0,0,1-8-3.35L418.57,271h0a2,2,0,0,1-2.63.2,40.23,40.23,0,0,1-4.84-4.15,37.3,37.3,0,0,1-4.09-4.87,2,2,0,0,1,.24-2.62l3.78-3.74a32.05,32.05,0,0,1-3.27-8l-5.33,0a2,2,0,0,1-2-1.71,38.33,38.33,0,0,1,.07-12.69,2.07,2.07,0,0,1,2-1.69l5.32,0a31.2,31.2,0,0,1,3.36-8L407.45,220a2,2,0,0,1-.21-2.62,38.3,38.3,0,0,1,4.15-4.83,37.51,37.51,0,0,1,4.87-4.1,2,2,0,0,1,2.62.24l3.75,3.79a31.13,31.13,0,0,1,8-3.28l0-5.31a2,2,0,0,1,1.7-2,38.4,38.4,0,0,1,12.7.06,2,2,0,0,1,1.68,2l0,5.33a32.07,32.07,0,0,1,8,3.35l3.78-3.74a2,2,0,0,1,2.62-.22A38.19,38.19,0,0,1,466,212.8a39.28,39.28,0,0,1,4.1,4.9,2,2,0,0,1-.24,2.61L466,224.06a31.76,31.76,0,0,1,3.27,8l5.33,0a2,2,0,0,1,2,1.7,38.39,38.39,0,0,1-.08,12.7,2,2,0,0,1-2,1.68l-5.32,0a31.54,31.54,0,0,1-3.36,8l3.75,3.79a2,2,0,0,1,.22,2.62,39.54,39.54,0,0,1-9,8.93l-.07,0A2,2,0,0,1,458.18,271.23Zm10.29-25,6.18-.05a34.39,34.39,0,0,0,0-12.14l-6.09,0a1,1,0,0,1-.94-.76,29.35,29.35,0,0,0-3.6-8.84,1,1,0,0,1,.15-1.19l4.34-4.4a36,36,0,0,0-3.89-4.65,29.63,29.63,0,0,0-4.73-3.91l-4.32,4.27a1,1,0,0,1-1.19.13,30.09,30.09,0,0,0-8.82-3.7,1,1,0,0,1-.74-.94l0-6.19a34.16,34.16,0,0,0-12.14.06l0,6.07a1,1,0,0,1-.75.93A29.38,29.38,0,0,0,423,214.5a1,1,0,0,1-1.19-.14L417.37,210a37.43,37.43,0,0,0-4.63,3.89,29.6,29.6,0,0,0-3.92,4.72l4.29,4.33a1,1,0,0,1,.13,1.2,29,29,0,0,0-3.71,8.8,1,1,0,0,1-.95.74l-6.18.05a34.39,34.39,0,0,0,0,12.14l6.08,0a1,1,0,0,1,.94.75,29.89,29.89,0,0,0,3.61,8.85,1,1,0,0,1-.15,1.19l-4.34,4.41a36.58,36.58,0,0,0,3.9,4.62,37.22,37.22,0,0,0,4.6,3.95s.1,0,.13,0l4.32-4.27a1,1,0,0,1,1.19-.13,29.64,29.64,0,0,0,8.8,3.69,1,1,0,0,1,.74.94l.05,6.18a33.93,33.93,0,0,0,12.14,0l0-6.07a1,1,0,0,1,.75-.94,29.62,29.62,0,0,0,8.85-3.62,1,1,0,0,1,1.19.14l4.41,4.36a37.66,37.66,0,0,0,4.63-3.9,28.74,28.74,0,0,0,3.92-4.72L463.94,257a1,1,0,0,1-.13-1.19,29.85,29.85,0,0,0,3.72-8.8,1,1,0,0,1,.41-.58A.88.88,0,0,1,468.47,246.22Zm-22.72,10.93h0a17.65,17.65,0,0,1-14.64-.07,18.71,18.71,0,0,1,.18-34.34,17.65,17.65,0,0,1,14.64.07A18.89,18.89,0,0,1,457.11,240a18.68,18.68,0,0,1-8.62,15.61A20.6,20.6,0,0,1,445.75,257.15Zm-23.89-17.29a17,17,0,0,0,10.07,15.47,15.7,15.7,0,0,0,13,.07h0a16.79,16.79,0,0,0,.16-30.84,15.7,15.7,0,0,0-13-.07,18.4,18.4,0,0,0-2.47,1.37A16.76,16.76,0,0,0,421.86,239.86Z" style="fill: rgb(240, 240, 240); transform-origin: 438.513px 239.973px;" class="animable"></path><path id="freepik--gear--inject-60" d="M77.31,236.75a15,15,0,0,0,9.22,13.41,14,14,0,0,0,11.61-.25,16,16,0,0,0,2.13-1.24,14.44,14.44,0,0,0,1.55-1.23,14.79,14.79,0,0,0,5-11.32,15,15,0,0,0-9.22-13.42A14,14,0,0,0,86,223,15,15,0,0,0,77.31,236.75Zm1.82,0a13,13,0,0,1,4.35-9.93,14.55,14.55,0,0,1,1.37-1.09,14.24,14.24,0,0,1,1.9-1.1,12.15,12.15,0,0,1,10.08-.22,13,13,0,0,1,.51,23.91,12.11,12.11,0,0,1-10.08.21A13.15,13.15,0,0,1,79.13,236.71ZM71,258.39a31.55,31.55,0,0,0,3.9,3.17,1.74,1.74,0,0,0,2.25-.23L80,258.4a25.4,25.4,0,0,0,6.15,2.39l.08,4a1.76,1.76,0,0,0,1.49,1.7,30.09,30.09,0,0,0,10-.21,1.75,1.75,0,0,0,1.41-1.76L99,260.52a24.83,24.83,0,0,0,6-2.67l2.93,2.82a1.77,1.77,0,0,0,2.21.18l0,0c.73-.55,1.44-1.13,2.12-1.75s1.12-1,1.65-1.6a29.79,29.79,0,0,0,3.17-3.89,1.75,1.75,0,0,0-.24-2.25L114,248.53a24.47,24.47,0,0,0,2.4-6.15l4.06-.09a1.73,1.73,0,0,0,1.69-1.49,30.31,30.31,0,0,0-.2-10,1.76,1.76,0,0,0-1.76-1.42l-4.07.09a24.49,24.49,0,0,0-2.65-6l2.81-2.93a1.75,1.75,0,0,0,.15-2.25,30.82,30.82,0,0,0-3.34-3.78,31.31,31.31,0,0,0-3.9-3.16,1.75,1.75,0,0,0-2.25.25l-2.8,2.93a24.94,24.94,0,0,0-6.16-2.4L97.9,208a1.77,1.77,0,0,0-1.49-1.7,30.57,30.57,0,0,0-10,.22A1.76,1.76,0,0,0,85,208.31l.09,4.05A24.52,24.52,0,0,0,79,215l-2.94-2.81a1.73,1.73,0,0,0-2.26-.15,30.73,30.73,0,0,0-3.75,3.33,31.44,31.44,0,0,0-3.17,3.9,1.74,1.74,0,0,0,.25,2.24l2.93,2.81a24.64,24.64,0,0,0-2.4,6.15l-4,.09a1.77,1.77,0,0,0-1.7,1.49,30.31,30.31,0,0,0,.21,10,1.75,1.75,0,0,0,1.76,1.42l4.06-.09a25.3,25.3,0,0,0,2.65,6l-2.8,2.93a1.75,1.75,0,0,0-.15,2.26A30.73,30.73,0,0,0,71,258.39Zm-1.79-4.74,3.22-3.45a.9.9,0,0,0,.11-1.12,23.08,23.08,0,0,1-3-6.83.91.91,0,0,0-.9-.68l-4.64.11a26.89,26.89,0,0,1-.28-9.22l4.72-.16a.91.91,0,0,0,.87-.72A22.7,22.7,0,0,1,72,224.65a.92.92,0,0,0-.15-1.13l-3.36-3.22a22.62,22.62,0,0,1,2.89-3.65,28.91,28.91,0,0,1,3.42-3.06l3.46,3.24a.92.92,0,0,0,1.13.1,22.85,22.85,0,0,1,6.81-3,.91.91,0,0,0,.68-.9l-.09-4.64a26.81,26.81,0,0,1,9.21-.28l.16,4.72a.91.91,0,0,0,.72.87,23.47,23.47,0,0,1,6.94,2.7.92.92,0,0,0,1.07-.1l0-.05,3.21-3.36a22.4,22.4,0,0,1,3.66,2.89,28.5,28.5,0,0,1,3.06,3.44l-3.22,3.45a.91.91,0,0,0-.11,1.13,23.17,23.17,0,0,1,3,6.81.89.89,0,0,0,.9.68l4.65-.1a26.89,26.89,0,0,1,.27,9.22l-4.71.16a1,1,0,0,0-.5.17.87.87,0,0,0-.37.56,23,23,0,0,1-2.72,6.93.91.91,0,0,0,.16,1.12l3.36,3.22a22.74,22.74,0,0,1-2.89,3.65,29,29,0,0,1-3.43,3.06l-3.46-3.23a.89.89,0,0,0-1.12-.11,23,23,0,0,1-6.82,3,.89.89,0,0,0-.68.9l.1,4.63a26.37,26.37,0,0,1-9.22.27L87.91,260a.9.9,0,0,0-.72-.86,23.14,23.14,0,0,1-6.94-2.7.89.89,0,0,0-1.11.16L75.88,260a30.62,30.62,0,0,1-3.62-2.95A28,28,0,0,1,69.21,253.65Z" style="fill: rgb(240, 240, 240); transform-origin: 92.0572px 236.4px;" class="animable"></path><path id="freepik--gear--inject-60" d="M361.6,205.5a13.07,13.07,0,0,0,8.45,11.43,12.22,12.22,0,0,0,10.12-.58A12.69,12.69,0,0,0,382,215.2a12.91,12.91,0,0,0-3.16-22.56,12.18,12.18,0,0,0-10.12.57A13.06,13.06,0,0,0,361.6,205.5Zm1.58-.09a11.36,11.36,0,0,1,3.5-8.79,12.34,12.34,0,0,1,1.16-1,13.41,13.41,0,0,1,1.62-1,10.59,10.59,0,0,1,8.79-.49A11.36,11.36,0,0,1,379.42,215a10.59,10.59,0,0,1-8.79.5A11.51,11.51,0,0,1,363.18,205.41Zm-6.43,19.17a27.65,27.65,0,0,0,3.5,2.64,1.53,1.53,0,0,0,2-.27l2.36-2.64a21.76,21.76,0,0,0,5.43,1.9l.2,3.53a1.51,1.51,0,0,0,1.35,1.43,26.12,26.12,0,0,0,8.73-.48,1.52,1.52,0,0,0,1.18-1.58l-.2-3.53a21.63,21.63,0,0,0,5.19-2.51l2.65,2.37a1.54,1.54,0,0,0,1.93.09l0,0q.93-.75,1.8-1.59c.47-.46.94-.95,1.38-1.45a26.52,26.52,0,0,0,2.65-3.49,1.52,1.52,0,0,0-.28-1.95L394,214.66a21.81,21.81,0,0,0,1.91-5.43l3.53-.2a1.53,1.53,0,0,0,1.44-1.35,26.42,26.42,0,0,0-.49-8.73,1.53,1.53,0,0,0-1.58-1.18l-3.54.19a21.72,21.72,0,0,0-2.5-5.18l2.36-2.64a1.52,1.52,0,0,0,.06-2,26.38,26.38,0,0,0-6.52-5.83,1.52,1.52,0,0,0-1.95.28l-2.36,2.64a21.83,21.83,0,0,0-5.44-1.9l-.19-3.54a1.54,1.54,0,0,0-1.36-1.43,26.33,26.33,0,0,0-8.72.49,1.53,1.53,0,0,0-1.19,1.58l.2,3.53a21.64,21.64,0,0,0-5.19,2.51l-2.64-2.36a1.51,1.51,0,0,0-2-.06,26.44,26.44,0,0,0-3.17,3,25.6,25.6,0,0,0-2.64,3.49,1.52,1.52,0,0,0,.28,1.95l2.64,2.37a21.62,21.62,0,0,0-1.9,5.43l-3.53.2a1.55,1.55,0,0,0-1.44,1.36,26.66,26.66,0,0,0,.48,8.72,1.54,1.54,0,0,0,1.58,1.19l3.54-.21a22.19,22.19,0,0,0,2.5,5.19l-2.36,2.64a1.54,1.54,0,0,0-.06,2A28.12,28.12,0,0,0,356.75,224.58ZM355,220.5l2.71-3.11a.78.78,0,0,0,.06-1,20.14,20.14,0,0,1-2.82-5.87.8.8,0,0,0-.81-.56l-4.05.23a23.47,23.47,0,0,1-.51-8l4.11-.28a.8.8,0,0,0,.73-.66,20.07,20.07,0,0,1,2.15-6.13.79.79,0,0,0-.16-1l-3-2.71a19.15,19.15,0,0,1,2.41-3.27,23.53,23.53,0,0,1,2.89-2.77l3.12,2.71a.8.8,0,0,0,1,.06,19.57,19.57,0,0,1,5.85-2.83.8.8,0,0,0,.56-.81l-.22-4a23.69,23.69,0,0,1,8-.53l.28,4.12a.78.78,0,0,0,.65.73,20.4,20.4,0,0,1,6.14,2.15.8.8,0,0,0,.93-.12l0-.05,2.7-3a19.32,19.32,0,0,1,3.28,2.4,24.57,24.57,0,0,1,2.77,2.91l-2.7,3.11a.78.78,0,0,0-.06,1,20.18,20.18,0,0,1,2.81,5.86.8.8,0,0,0,.81.57l4.05-.23a23.22,23.22,0,0,1,.52,8l-4.11.29a.83.83,0,0,0-.43.15.81.81,0,0,0-.3.5,20.29,20.29,0,0,1-2.16,6.13.79.79,0,0,0,.17,1l3,2.71a20.18,20.18,0,0,1-2.41,3.28,26.08,26.08,0,0,1-2.9,2.77l-3.11-2.72a.81.81,0,0,0-1-.06,19.79,19.79,0,0,1-5.85,2.83.81.81,0,0,0-.57.81l.23,4a23.44,23.44,0,0,1-8,.52l-.29-4.11a.79.79,0,0,0-.65-.74,20.24,20.24,0,0,1-6.13-2.14.81.81,0,0,0-1,.17l-2.73,3.06a25.66,25.66,0,0,1-3.25-2.46A25.08,25.08,0,0,1,355,220.5Z" style="fill: rgb(240, 240, 240); transform-origin: 374.475px 204.768px;" class="animable"></path><path id="freepik--gear--inject-60" d="M143.52,201.64a16.38,16.38,0,0,0,2.24,17.66,15.32,15.32,0,0,0,11.42,5.58,16.93,16.93,0,0,0,4.82-.56,16.2,16.2,0,0,0,10.49-8.53,16.38,16.38,0,0,0-2.23-17.66,15.32,15.32,0,0,0-11.42-5.58A16.38,16.38,0,0,0,143.52,201.64Zm1.79.87a14.23,14.23,0,0,1,9.21-7.47,14.53,14.53,0,0,1,1.88-.37,15.88,15.88,0,0,1,2.4-.13,13.27,13.27,0,0,1,9.91,4.85,14.24,14.24,0,0,1-11.49,23.5,13.27,13.27,0,0,1-9.91-4.85A14.39,14.39,0,0,1,145.31,202.51Zm-18.77,17a34.5,34.5,0,0,0,2.2,5,1.92,1.92,0,0,0,2.31.9l4.2-1.44a27,27,0,0,0,4.78,5.4l-1.95,4a1.91,1.91,0,0,0,.6,2.4,33,33,0,0,0,9.84,4.82,1.9,1.9,0,0,0,2.26-1l1.95-4a27.14,27.14,0,0,0,7.21.43l1.44,4.21a1.92,1.92,0,0,0,2.05,1.28h0q1.47-.26,2.94-.63c.8-.22,1.61-.46,2.4-.73a34.46,34.46,0,0,0,5-2.2,1.9,1.9,0,0,0,.89-2.31l-1.44-4.21a27.44,27.44,0,0,0,5.42-4.77l4,1.95a1.92,1.92,0,0,0,2.4-.6,33.22,33.22,0,0,0,4.81-9.84,1.93,1.93,0,0,0-1-2.27l-4-1.95a27.6,27.6,0,0,0,.45-7.2l4.2-1.44a1.91,1.91,0,0,0,1.27-2.12,33.11,33.11,0,0,0-3.56-10.37A1.92,1.92,0,0,0,185,192l-4.19,1.44A27.69,27.69,0,0,0,176,188l2-4a2,2,0,0,0-.61-2.41,33,33,0,0,0-9.84-4.8,1.92,1.92,0,0,0-2.26,1l-2,4a26.85,26.85,0,0,0-7.21-.44l-1.44-4.21a1.89,1.89,0,0,0-2.12-1.27,32.22,32.22,0,0,0-5.32,1.36,33.38,33.38,0,0,0-5,2.19,1.92,1.92,0,0,0-.9,2.31l1.45,4.21a26.74,26.74,0,0,0-5.42,4.77l-4-1.94a1.93,1.93,0,0,0-2.4.6,32.81,32.81,0,0,0-4.81,9.83,1.92,1.92,0,0,0,1,2.27l4,1.94a27.35,27.35,0,0,0-.45,7.21l-4.19,1.44a1.91,1.91,0,0,0-1.28,2.12A33.24,33.24,0,0,0,126.54,219.52Zm.63-5.51,4.86-1.74a1,1,0,0,0,.67-1,25.38,25.38,0,0,1,.51-8.14,1,1,0,0,0-.54-1.11l-4.57-2.22a29.37,29.37,0,0,1,4.36-9.1l4.67,2.21a1,1,0,0,0,1.2-.27,25,25,0,0,1,6.11-5.38,1,1,0,0,0,.42-1.17l-1.66-4.82a25.48,25.48,0,0,1,4.64-2.1,31.16,31.16,0,0,1,4.87-1.26l1.74,4.88a1,1,0,0,0,1.05.67,25,25,0,0,1,8.13.49,1,1,0,0,0,1.11-.53l2.23-4.56a29.53,29.53,0,0,1,9.1,4.34l-2.21,4.68a1,1,0,0,0,.26,1.2,25.34,25.34,0,0,1,5.4,6.11,1,1,0,0,0,1.09.43l.08,0,4.8-1.65a24.69,24.69,0,0,1,2.12,4.64,31.73,31.73,0,0,1,1.24,4.88L184,205.17a1,1,0,0,0-.67,1,25.2,25.2,0,0,1-.51,8.12,1,1,0,0,0,.53,1.12l4.58,2.23a29.37,29.37,0,0,1-4.36,9.1l-4.67-2.2a.9.9,0,0,0-.56-.09,1,1,0,0,0-.64.35,25.28,25.28,0,0,1-6.12,5.39,1,1,0,0,0-.41,1.16l1.66,4.82a25.48,25.48,0,0,1-4.64,2.1,32,32,0,0,1-4.87,1.26l-1.74-4.88a1,1,0,0,0-1-.67,25.23,25.23,0,0,1-8.14-.49,1,1,0,0,0-1.11.53l-2.23,4.56a29.13,29.13,0,0,1-9.1-4.36l2.21-4.67a1,1,0,0,0-.27-1.2,25.12,25.12,0,0,1-5.39-6.1,1,1,0,0,0-1.17-.41l-4.87,1.68a33.17,33.17,0,0,1-2-4.68A32.57,32.57,0,0,1,127.17,214Z" style="fill: rgb(240, 240, 240); transform-origin: 157.985px 208.683px;" class="animable"></path><path id="freepik--gear--inject-60" d="M409.85,157.05A15.32,15.32,0,0,0,414,173.23a14.35,14.35,0,0,0,11.27,3.88,17.2,17.2,0,0,0,2.5-.45,16.11,16.11,0,0,0,1.93-.63,15.18,15.18,0,0,0,8.78-9.15,15.36,15.36,0,0,0-4.12-16.18,14.37,14.37,0,0,0-11.28-3.88A15.34,15.34,0,0,0,409.85,157.05Zm1.76.6a13.37,13.37,0,0,1,7.71-8,15.55,15.55,0,0,1,1.71-.56,14.58,14.58,0,0,1,2.21-.39A12.44,12.44,0,0,1,433,152a13.36,13.36,0,0,1-8,23.21,12.46,12.46,0,0,1-9.79-3.36A13.53,13.53,0,0,1,411.61,157.65Zm-15.51,18a31.11,31.11,0,0,0,2.63,4.43,1.8,1.8,0,0,0,2.25.58l3.74-1.83a25.83,25.83,0,0,0,5.08,4.48l-1.36,3.93a1.8,1.8,0,0,0,.84,2.16,30.58,30.58,0,0,0,9.72,3.35,1.78,1.78,0,0,0,2-1.19l1.35-3.93a25.63,25.63,0,0,0,6.76-.43l1.83,3.75a1.8,1.8,0,0,0,2.06,1h0c.9-.27,1.79-.58,2.66-.93s1.45-.61,2.16-1a31.48,31.48,0,0,0,4.43-2.62,1.79,1.79,0,0,0,.56-2.25L441,181.4a25.4,25.4,0,0,0,4.49-5.07l3.93,1.35a1.8,1.8,0,0,0,2.17-.84,31.19,31.19,0,0,0,3.35-9.71,1.81,1.81,0,0,0-1.2-2l-3.94-1.36a26,26,0,0,0-.41-6.76l3.74-1.82a1.79,1.79,0,0,0,.94-2.12,31.23,31.23,0,0,0-1.87-4.82,30.9,30.9,0,0,0-2.64-4.42,1.79,1.79,0,0,0-2.25-.56l-3.74,1.82a26.21,26.21,0,0,0-5.08-4.49l1.36-3.93a1.82,1.82,0,0,0-.84-2.17,31,31,0,0,0-9.72-3.33,1.79,1.79,0,0,0-2,1.19L426,136.3a25.11,25.11,0,0,0-6.76.43L417.37,133a1.77,1.77,0,0,0-2.13-.94,32.18,32.18,0,0,0-9.22,4.5,1.79,1.79,0,0,0-.56,2.25l1.83,3.75a24.93,24.93,0,0,0-4.49,5.07l-3.94-1.35a1.81,1.81,0,0,0-2.16.84,31.1,31.1,0,0,0-3.35,9.71,1.81,1.81,0,0,0,1.19,2l3.95,1.35a26,26,0,0,0,.41,6.77l-3.74,1.82a1.78,1.78,0,0,0-.94,2.12A30.78,30.78,0,0,0,396.1,175.66Zm-.05-5.2,4.33-2.19a.93.93,0,0,0,.5-1,23.57,23.57,0,0,1-.47-7.64.93.93,0,0,0-.63-1l-4.51-1.54a27.61,27.61,0,0,1,3-9l4.6,1.52a.93.93,0,0,0,1.09-.39,23.26,23.26,0,0,1,5.07-5.71,1,1,0,0,0,.25-1.14l-2.1-4.29a23.18,23.18,0,0,1,4.08-2.5,30.4,30.4,0,0,1,4.38-1.73l2.19,4.35a.93.93,0,0,0,1.05.49,23.51,23.51,0,0,1,7.63-.47.93.93,0,0,0,1-.63l1.55-4.5a27.65,27.65,0,0,1,9,3l-1.53,4.61a.93.93,0,0,0,.39,1.09,23.9,23.9,0,0,1,5.73,5.06.92.92,0,0,0,1.06.28l.07,0L448,145a23.54,23.54,0,0,1,2.51,4.07,29.49,29.49,0,0,1,1.72,4.4l-4.33,2.19a.93.93,0,0,0-.5,1,23.8,23.8,0,0,1,.47,7.62.93.93,0,0,0,.62,1l4.52,1.55a27.53,27.53,0,0,1-3,9l-4.6-1.52a1,1,0,0,0-.54,0,.94.94,0,0,0-.55.41,23.77,23.77,0,0,1-5.07,5.72.92.92,0,0,0-.25,1.13l2.1,4.29a23.18,23.18,0,0,1-4.08,2.5,30.76,30.76,0,0,1-4.39,1.73l-2.18-4.35a.93.93,0,0,0-1-.49,23.94,23.94,0,0,1-7.63.48.91.91,0,0,0-1,.62l-1.55,4.5a27.25,27.25,0,0,1-9-3l1.51-4.6a.93.93,0,0,0-.39-1.09,24,24,0,0,1-5.72-5,.92.92,0,0,0-1.13-.25L400.22,179a30.33,30.33,0,0,1-2.44-4.12A28.64,28.64,0,0,1,396.05,170.46Z" style="fill: rgb(240, 240, 240); transform-origin: 424.145px 161.961px;" class="animable"></path></g><g id="freepik--robot-face--inject-60" class="animable" style="transform-origin: 247.006px 231.987px;"><g id="freepik--robot-face--inject-60" class="animable" style="transform-origin: 247.006px 231.987px;"><g id="freepik--Chest--inject-60" class="animable" style="transform-origin: 247.006px 332.555px;"><path d="M408.05,318.28a7.21,7.21,0,0,0-.81-3.95c-4.37-8.41-25.13-48.06-36.32-64.31-12.54-18.22-26.46-24.1-48-18.68-27.92,7.74-16.85,52.48-16.66,86.89,0,14.51,21.46,26.28,47.93,26.28C380,344.28,406.63,333.2,408.05,318.28Z" style="fill: #000000; transform-origin: 356.006px 286.957px;" id="eleff0woekppk" class="animable"></path><g id="el5cnurw96e9"><path d="M408.05,318.28a7.21,7.21,0,0,0-.81-3.95c-4.37-8.41-25.13-48.06-36.32-64.31-12.54-18.22-26.46-24.1-48-18.68-27.92,7.74-16.85,52.48-16.66,86.89,0,14.51,21.46,26.28,47.93,26.28C380,344.28,406.63,333.2,408.05,318.28Z" style="fill: rgb(255, 255, 255); opacity: 0.7; transform-origin: 356.006px 286.957px;" class="animable" id="elm6ce7ggzc3"></path></g><g id="elcjg1ie7wp5q"><path d="M363.26,266c-11.4-22.76-20.65-34.7-40.36-34.7-27.92,7.74-16.85,52.48-16.66,86.89,0,14.51,21.46,26.28,47.93,26.28,14.4-.13,29.06-3.64,39.46-9.3C385.52,315.76,371.15,281.79,363.26,266Z" style="fill: #000000; opacity: 0.2; transform-origin: 348.774px 287.885px;" class="animable" id="elmuyaqv2tpuo"></path></g><path d="M337,230.34c13.28,0,23.49,6.24,33.11,20.22,11.19,16.26,32.16,56.33,36.25,64.2a6.17,6.17,0,0,1,.71,3.43c-.63,6.65-6.76,13-17.25,17.86-10.07,4.66-23.08,7.4-35.69,7.51-25.91,0-47-11.36-47-25.33,0-7.54-.61-15.69-1.16-23.57-1-14-2-28.55,0-40,2.18-12.68,7.64-19.82,17.15-22.46A57.13,57.13,0,0,1,337,230.34m0-.94a58,58,0,0,0-14.14,1.94c-27.92,7.74-16.85,52.48-16.66,86.89,0,14.51,21.46,26.28,47.93,26.28,25.81-.23,52.46-11.31,53.88-26.23a7.21,7.21,0,0,0-.81-3.95c-4.37-8.41-25.13-48.06-36.32-64.31C361.35,236.12,351,229.4,337,229.4Z" style="fill: #000000; transform-origin: 355.956px 286.955px;" id="el0t860n0l8n8g" class="animable"></path><path d="M358.88,299c8.5-9.55,3.81-25.36-9.05-42.47-15.65-20.83-24.22-24.17-36.08-15.91a75,75,0,0,0-9.12,16.63c-1.3,9.76-.74,21.31.06,33.07a35.69,35.69,0,0,0,3.59,5.87A32.65,32.65,0,0,0,358.88,299Z" style="fill: rgb(55, 71, 79); transform-origin: 333.515px 273.065px;" id="eloyvr3uhgry8" class="animable"></path><path d="M371.06,351.89h0c9.49-41.47-13-70.94-20.93-82.13-18.68-26.47-28.83-40.42-46.85-36.86-34.32,9.57-108,21-131.62,32.63a60.78,60.78,0,0,0-10.38,6.6c-5.7,4.39-9.43,13.05-10.47,19.24-3.31,19.78-5.09,37.12-6.17,51.81a42.08,42.08,0,0,0-.32,4.88h0c-2.22,19.32,2.51,31.45,26.34,45.22,47.68,27.52,118.63,27.69,164.42,3.66C359.74,384,367.54,363.16,371.06,351.89Z" style="fill: #000000; transform-origin: 258.593px 323.41px;" id="el2xxhkeh24yb" class="animable"></path><g id="elft5sbp1brbw"><path d="M371.06,351.89h0c9.49-41.47-13-70.94-20.93-82.13-18.68-26.47-28.83-40.42-46.85-36.86-34.32,9.57-108,21-131.62,32.63a60.78,60.78,0,0,0-10.38,6.6c-5.7,4.39-9.43,13.05-10.47,19.24-3.31,19.78-5.09,37.12-6.17,51.81a42.08,42.08,0,0,0-.32,4.88h0c-2.22,19.32,2.51,31.45,26.34,45.22,47.68,27.52,118.63,27.69,164.42,3.66A69.92,69.92,0,0,0,371.06,351.89Z" style="fill: rgb(255, 255, 255); opacity: 0.9; transform-origin: 258.593px 323.41px;" class="animable" id="elyzbexorlg6"></path></g><g id="el008tmxb4xdc"><path d="M150.81,291.37c-3.31,19.78-5.09,37.12-6.17,51.81a42.08,42.08,0,0,0-.32,4.88h0c-2.22,19.32,2.51,31.45,26.34,45.22,23.08,13.32,51.6,20.21,80.08,21.08-48.12-3.21-52-34.93-47-57.93s-.07-43.45-8-62.88-24-28-34.38-21.42C155.58,276.52,151.85,285.18,150.81,291.37Z" style="fill: #000000; opacity: 0.2; transform-origin: 197.285px 342.15px;" class="animable" id="el33ngv467ngq"></path></g><path d="M308.62,233.29c14.62,0,24.46,13.93,40.74,37l1,1.36c8.63,12.13,28.84,40.54,19.81,80-2.25,10.8-9.84,30.95-35.5,44.41-21.4,11.23-49,17.42-77.78,17.42-31.75,0-62.19-7.48-85.72-21.07-24.42-14.1-27.94-26.44-25.89-44.29v-.11a40.54,40.54,0,0,1,.32-4.81c1.32-17.9,3.33-34.82,6.16-51.73,1-6,4.6-14.4,10.11-18.64a59.14,59.14,0,0,1,10.22-6.5c14.68-7.24,48.44-14.3,81.1-21.14,19.27-4,37.47-7.84,50.33-11.42a26.51,26.51,0,0,1,5.12-.53m0-.94a27.28,27.28,0,0,0-5.34.55c-34.32,9.57-108,21-131.62,32.63a60.78,60.78,0,0,0-10.38,6.6c-5.7,4.39-9.43,13.05-10.47,19.24-3.31,19.78-5.09,37.12-6.17,51.81a42.08,42.08,0,0,0-.32,4.88h0c-2.22,19.32,2.51,31.45,26.34,45.22,24.73,14.27,55.72,21.19,86.2,21.19,28.3,0,56.18-6,78.22-17.53,24.66-12.94,33.27-32,36-45.05,9.49-41.47-13-70.94-20.93-82.13-16.75-23.74-26.65-37.41-41.51-37.41Z" style="fill: #000000; transform-origin: 258.623px 323.36px;" id="el3lg23ioq4gl" class="animable"></path><path d="M296.21,410.49a149.65,149.65,0,0,0,38.87-13.55,82.49,82.49,0,0,0,14.13-9.36c-6.47-2.44-11.75-8.86-15.65-15.65-5.85-10.18-9.37-17.37-13.36-15.06-5.15,3-2.66,14.25-12,35.8A56.51,56.51,0,0,1,296.21,410.49Z" style="fill: rgb(69, 90, 100); transform-origin: 322.71px 383.463px;" id="elsi8susyopwg" class="animable"></path><path d="M333.56,371.93c-5.85-10.18-9.37-17.37-13.36-15.06-1.73,1-2.6,2.94-3.34,5.89,5.41.73,8.62,7,11,12.29s8.74,14.56,16,16.58c1.88-1.31,3.67-2.66,5.35-4.05C342.74,385.14,337.46,378.72,333.56,371.93Z" style="fill: rgb(55, 71, 79); transform-origin: 333.035px 374.033px;" id="el6z1aiubunnh" class="animable"></path><path d="M158.17,278.59c13.11-8.43,28.58,7.52,34.46,30.08s3.36,38.92-8.72,45.72c-17.8,10-43.31,2.77-50.94-20.71C126.46,313.66,137.21,293.5,158.17,278.59Z" style="fill: rgb(55, 71, 79); transform-origin: 163.374px 317.535px;" id="elg25qmaf26gu" class="animable"></path><path d="M156.71,276.36a12.19,12.19,0,0,0-10,.13c-20.23,9-28.94,20-39.31,54.54-6.53,21.7-20.59,75.3-21.36,80.53S90.73,425,98.72,429.43c16,8.91,49.83,8.32,66.46-1.68,7.69-4.62,10.95-10.55,12-17.17h0l6.79-41.33S198.41,295.38,156.71,276.36Z" style="fill: #000000; transform-origin: 136.178px 355.529px;" id="ello4sigmcvf" class="animable"></path><g id="elq7rcl1p5ym"><path d="M156.71,276.36a12.19,12.19,0,0,0-10,.13c-20.23,9-28.94,20-39.31,54.54-6.53,21.7-20.59,75.3-21.36,80.53S90.73,425,98.72,429.43c16,8.91,49.83,8.32,66.46-1.68,7.69-4.62,10.95-10.55,12-17.17h0l6.79-41.33S198.41,295.38,156.71,276.36Z" style="fill: rgb(255, 255, 255); opacity: 0.7; transform-origin: 136.178px 355.529px;" class="animable" id="elcah3bmm3m3g"></path></g><g id="elsu6gx77pnl"><path d="M162.12,279.33c14.83,11.86,12.6,39.12,7.8,77.1-2.69,21.18-9,52.08-13.38,75.22a44.34,44.34,0,0,0,8.64-3.9c7.69-4.62,10.95-10.55,12-17.17l6.79-41.33S197.1,302,162.12,279.33Z" style="fill: #000000; opacity: 0.2; transform-origin: 171.462px 355.49px;" class="animable" id="elgbz4wi43f3n"></path></g><path d="M152,276.28a10.46,10.46,0,0,1,4.37.94c9.29,4.24,16.49,11.66,21.37,22.06,3.94,8.39,6.4,18.71,7.32,30.69a165.1,165.1,0,0,1-2,39.13l-6.79,41.34c-1.11,7.2-4.77,12.45-11.52,16.51-8.14,4.89-21.32,7.82-35.25,7.82-12.22,0-23.25-2.25-30.26-6.16C91,424.07,86.27,416.2,86.94,411.7c.8-5.43,15-59.18,21.33-80.4,10-33.24,18.34-44.84,38.79-53.95a12,12,0,0,1,4.89-1.07m0-.94a12.9,12.9,0,0,0-5.27,1.15c-20.23,9-28.94,20-39.31,54.54-6.53,21.7-20.59,75.3-21.36,80.53S90.73,425,98.72,429.43c7.5,4.19,19,6.28,30.72,6.28,13.27,0,26.92-2.66,35.74-8,7.69-4.62,10.95-10.55,12-17.17l6.79-41.33s14.48-73.87-27.22-92.89a11.42,11.42,0,0,0-4.76-1Z" style="fill: #000000; transform-origin: 136.17px 355.515px;" id="elbfb4uoouuwl" class="animable"></path></g><g id="freepik--Head--inject-60" class="animable" style="transform-origin: 262.263px 168.269px;"><path d="M208.27,185.32l-.11,43c.5,10.84-5.59,21.05-15.72,26.4l-21.77,11.48a558.72,558.72,0,0,1,72.9,14c19,5,45.56,16.11,57.89,24.45,8.88,6,11.26,4.68,15-4.92,2.29-5.91,2.43-16.23.57-29.44-3.44-24.38-13.74-37.32-13.74-37.32l-2.28.22c-6.85.67-12.72-4.43-12.51-10.87l.36-11.28Z" style="fill: rgb(69, 90, 100); transform-origin: 244.491px 246.798px;" id="el8ggmrkgzh6k" class="animable"></path><g id="elami3qu52ewn"><path d="M303.45,305.86l-4.39-6c-4.77-6.22-14.87-15.73-25.56-25.81-12.83-12.08-26.11-24.58-32.07-33-10.11-14.21-15.88-31.27-17.19-50.7l-7.92-2.52.06,1.11c1.14,21.69,7.44,40.73,18.73,56.6,6.4,9,20,21.76,33.08,34.11,5.91,5.58,11.6,10.94,16.24,15.59a131.5,131.5,0,0,1,17,9.29C302.17,305.06,302.82,305.48,303.45,305.86Z" style="fill: #000000; opacity: 0.2; transform-origin: 259.885px 246.845px;" class="animable" id="elncyay5sod9p"></path></g><g id="el4mtnbhdea6t"><path d="M303.45,305.86l-4.39-6c-4.77-6.22-14.87-15.73-25.56-25.81-12.83-12.08-26.11-24.58-32.07-33-10.11-14.21-15.88-31.27-17.19-50.7l-7.92-2.52.06,1.11c1.14,21.69,7.44,40.73,18.73,56.6,6.4,9,20,21.76,33.08,34.11,5.91,5.58,11.6,10.94,16.24,15.59a131.5,131.5,0,0,1,17,9.29C302.17,305.06,302.82,305.48,303.45,305.86Z" style="fill: rgb(255, 255, 255); opacity: 0.1; transform-origin: 259.885px 246.845px;" class="animable" id="elisjjsgneoa"></path></g><path d="M271.49,276.19C258.55,264,245.17,251.41,239,242.8c-10.66-15-16.63-32.9-17.81-53.36l-1.92-.61c1.11,21.11,7.2,39.61,18.2,55.06,6.23,8.76,19.68,21.43,32.69,33.68,8.56,8.06,16.76,15.79,21.95,21.55,1.62.85,3.15,1.7,4.58,2.52C292.11,295.61,282.06,286.15,271.49,276.19Z" style="fill: #000000; transform-origin: 257.98px 245.235px;" id="el2u2qb1f28kh" class="animable"></path><g id="elvrimvmxupsk"><path d="M290.57,228.72a10,10,0,0,1-2.08-6.47l.36-11.28-80.58-25.65,0,15.16a54.83,54.83,0,0,0,6.56.53A154.91,154.91,0,0,0,258,222.8,128.56,128.56,0,0,0,290.57,228.72Z" style="opacity: 0.2; transform-origin: 249.42px 207.02px;" class="animable" id="el2yp8t6zwn3k"></path></g><path d="M317,298.13a29,29,0,0,0,.67-2.9c-3.63-7.85-6.26-17.37-9-27.37-3-10.89-6.12-22.14-10.74-31.79-.59-1.23-1.14-2.36-1.67-3.44a11.77,11.77,0,0,1-2.73-1.28c.83,1.67,1.72,3.49,2.7,5.53,4.55,9.5,7.64,20.68,10.63,31.48C309.83,279.35,312.72,289.74,317,298.13Z" style="fill: #000000; transform-origin: 305.6px 264.74px;" id="elo6ux89d3yhd" class="animable"></path><g id="elr7l4edv0xeq"><path d="M311.43,267.07c-3-11-6.19-22.38-10.92-32.27-.27-.56-.53-1.09-.78-1.62a11.16,11.16,0,0,1-11-8.3l-2.58-1.63,4.65,9.4c.82,1.66,1.71,3.46,2.68,5.5,4.44,9.27,7.49,20.31,10.45,31s6,21.57,10.38,30.32l1.21,2.39c.29-.68.59-1.4.9-2.19a33.85,33.85,0,0,0,1.8-10.56C315.71,282.49,313.61,275,311.43,267.07Z" style="fill: #000000; opacity: 0.2; transform-origin: 302.185px 262.555px;" class="animable" id="elteprlthw0zl"></path></g><g id="elmn3k7o1vka"><path d="M311.43,267.07c-3-11-6.19-22.38-10.92-32.27-.27-.56-.53-1.09-.78-1.62a11.16,11.16,0,0,1-11-8.3l-2.58-1.63,4.65,9.4c.82,1.66,1.71,3.46,2.68,5.5,4.44,9.27,7.49,20.31,10.45,31s6,21.57,10.38,30.32l1.21,2.39c.29-.68.59-1.4.9-2.19a33.85,33.85,0,0,0,1.8-10.56C315.71,282.49,313.61,275,311.43,267.07Z" style="fill: rgb(255, 255, 255); opacity: 0.1; transform-origin: 302.185px 262.555px;" class="animable" id="elbo4yg0qg6sa"></path></g><path d="M312.52,56.26S297.63,30.11,260.58,28.4c-21.87,0-31.18,11.15-31.73,28.16Z" style="fill: #000000; transform-origin: 270.685px 42.48px;" id="elpl62v5qjqxr" class="animable"></path><g id="elaeu46lrjrc"><path d="M312.52,56.26S297.63,30.11,260.58,28.4c-21.87,0-31.18,11.15-31.73,28.16Z" style="opacity: 0.2; transform-origin: 270.685px 42.48px;" class="animable" id="eldn97gjrwt5p"></path></g><path d="M346.73,119.87c-1.31,49.25-34.62,88.11-83.88,86.81h-.43a75.64,75.64,0,0,1-57.87-30.5c-17-22.65-27.29-48.4-20.29-86.64,3.5-19.13,14.73-35,30.23-45.75,22.93-6.41,48.12,2.77,56.27,13.2l41.76-.72S297.63,30.11,260.58,28.4c2.33-.14,4.68-.17,7-.1A89,89,0,0,1,335.1,62C347.69,77.87,347.32,98.05,346.73,119.87Z" style="fill: #000000; transform-origin: 264.497px 117.488px;" id="el4ynibbqyrro" class="animable"></path><g id="ela5tdjs2jnwl"><path d="M346.73,119.87c-1.31,49.25-34.62,88.11-83.88,86.81h-.43a75.64,75.64,0,0,1-57.87-30.5c-17-22.65-27.29-48.4-20.29-86.64,3.5-19.13,14.73-35,30.23-45.75,22.93-6.41,48.12,2.77,56.27,13.2l41.76-.72S297.63,30.11,260.58,28.4c2.33-.14,4.68-.17,7-.1A89,89,0,0,1,335.1,62C347.69,77.87,347.32,98.05,346.73,119.87Z" style="fill: rgb(255, 255, 255); opacity: 0.4; transform-origin: 264.497px 117.488px;" class="animable" id="elkhi6cwvmgf"></path></g><g id="elewtlw0npou6"><path d="M292.84,56.6,270.76,57a24.28,24.28,0,0,0-1.9-2.11c-13.9,3.19-24,9.43-32.78,17.05-13.21,11.42-18.21,31.76-18.21,47-3.21-5.84-14.63-10.58-23.87-10.58s-9.36-36.21,10.26-56.06a69.63,69.63,0,0,0-20,37.27c-7,38.24,3.27,64,20.29,86.64a75.64,75.64,0,0,0,57.87,30.5h.43a81.83,81.83,0,0,0,30-4.65Z" style="fill: #000000; opacity: 0.5; transform-origin: 237.443px 129.527px;" class="animable" id="elim6tixxac0h"></path></g><g id="elhfcmhia7jq6"><path d="M310.52,56.3,270.76,57c-7.3-9.35-28.29-17.7-49.08-14.71a86.28,86.28,0,0,1,20.88-8.21c13.64-3.43,28.05-3,41.14,2.14A62.31,62.31,0,0,1,310.52,56.3Z" style="fill: rgb(255, 255, 255); opacity: 0.6; transform-origin: 266.1px 44.4318px;" class="animable" id="elvx51q2bbtg"></path></g><path d="M310.52,56.3,270.76,57c-7.3-9.35-28.29-17.7-49.08-14.71a86.28,86.28,0,0,1,20.88-8.21c13.64-3.43,28.05-3,41.14,2.14A62.31,62.31,0,0,1,310.52,56.3Z" style="fill: #000000; transform-origin: 266.1px 44.4318px;" id="eltch1mm9zjdf" class="animable"></path><g id="elc0aupet5we4"><path d="M310.52,56.3,270.76,57c-7.3-9.35-28.29-17.7-49.08-14.71a86.28,86.28,0,0,1,20.88-8.21c13.64-3.43,28.05-3,41.14,2.14A62.31,62.31,0,0,1,310.52,56.3Z" style="fill: rgb(255, 255, 255); opacity: 0.8; transform-origin: 266.1px 44.4318px;" class="animable" id="elqjq2s2wtdlf"></path></g><path d="M348.39,93.89c-2.23-8.74-5.07-18.93-9.79-27A29.39,29.39,0,0,0,316.41,52.8c-25.17-2.77-71.63,1-86.2,35.27-7.44,17.53-9.27,53.2-5.83,77.85,3.83,27.54,8.17,32.63,18.58,39.25,18.89,12,58.83,29.25,78.06,19.05,10-5.29,19.45-23.57,25.94-45.42,4.1-13.81,7.67-30.78,6.06-44.44-.78-6.63-1.9-9.22-4.27-17.24C346.5,109.48,350.87,102.43,348.39,93.89Z" style="fill: #000000; transform-origin: 288.061px 139.694px;" id="elh5j9v6dt4ju" class="animable"></path><g id="elux7j7b00f7l"><g style="opacity: 0.9; transform-origin: 288.061px 139.694px;" class="animable" id="el84g7rijrcdx"><path d="M348.39,93.89c-2.23-8.74-5.07-18.93-9.79-27A29.39,29.39,0,0,0,316.41,52.8c-25.17-2.77-71.63,1-86.2,35.27-7.44,17.53-9.27,53.2-5.83,77.85,3.83,27.54,8.17,32.63,18.58,39.25,18.89,12,58.83,29.25,78.06,19.05,10-5.29,19.45-23.57,25.94-45.42,4.1-13.81,7.67-30.78,6.06-44.44-.78-6.63-1.9-9.22-4.27-17.24C346.5,109.48,350.87,102.43,348.39,93.89Z" style="fill: rgb(255, 255, 255); transform-origin: 288.061px 139.694px;" id="eluesnl8ln9d" class="animable"></path></g></g><g id="el3o7b9jnuv0a"><path d="M326.82,122.46c-2.45,0-3.67-3.64-2.47-8.83a18.59,18.59,0,0,1,10.22-12.46c5.45-2.65,12.16-1.88,14.61-1.61,0,0-.19,3.56-.55,6.5s-1,7.29.12,11.06C348.75,117.12,337.12,122.46,326.82,122.46Z" style="fill: #000000; opacity: 0.2; transform-origin: 336.532px 110.853px;" class="animable" id="elj311920ekm"></path></g><g id="ellloffcs8xba"><path d="M345.91,107.5a5.7,5.7,0,0,0-2.27-1.09,11.47,11.47,0,0,0-6.36.51,17.93,17.93,0,0,0-9.07,7.28s0,.27.07.2a30.44,30.44,0,0,1,8.83-5.75,11.49,11.49,0,0,1,5.57-1,6.77,6.77,0,0,1,2.64,1.11c.61.39,1,1,1.67,1.35.14.07.44,0,.47-.15C347.59,109.07,346.57,108,345.91,107.5Z" style="fill: #000000; opacity: 0.4; transform-origin: 337.841px 110.294px;" class="animable" id="elnh9hkc3uct"></path></g><g id="elk5dxxg8crxq"><path d="M267.66,125.73c-2.88,0-5-1.47-9.32-6.39,3.86-6.69,16.73-16.12,30.56-17.57s17.37,4,17.71,9.22-1.61,14.77-5.19,14.74-2.87-.92-9.46-1.6C287.45,123.46,273.12,124.75,267.66,125.73Z" style="fill: #000000; opacity: 0.2; transform-origin: 282.494px 113.631px;" class="animable" id="elnc9c4uimx2h"></path></g><g id="el086gz3bnkqv3"><path d="M295.32,116.61a10.8,10.8,0,0,0-1.21-2.15,9.78,9.78,0,0,0-2.07-1.89,11.57,11.57,0,0,0-5.28-1.84A22.17,22.17,0,0,0,275,113.16a16.93,16.93,0,0,0-6.64,4.87,4.31,4.31,0,0,0,1.71-.79,31.1,31.1,0,0,1,9.62-4.13c3.47-.85,7-1.31,10.41,0a13.15,13.15,0,0,1,2.46,1.23,8.25,8.25,0,0,1,2.56,2.39C295.25,116.92,295.37,116.73,295.32,116.61Z" style="fill: #000000; opacity: 0.4; transform-origin: 281.846px 114.352px;" class="animable" id="elvupeqyaln5j"></path></g><g id="elzfzju4nmbip"><path d="M326.06,148.11c-7.56.62-18.78,8.37-17.76,11.91s18.74,1.82,22.14-1S332.19,147.6,326.06,148.11Z" style="fill: #000000; opacity: 0.2; transform-origin: 320.207px 155.049px;" class="animable" id="eld3siup6z2bw"></path></g><g id="elf9e2ruuwopf"><path d="M321.51,174.29c-4.07.76-5.8-2.42-10.23-.1s-10.32,7.95-22,11.4c12.53,3.24,20.47-4.08,23.93-3.25,5.86,1.4,6.73,1.2,11.07-.69,2.51-1.09,4.95,1.16,8.29.35-1.69-1.6-1.11-7.44-3.76-9.23C325.89,170.83,323.62,173.89,321.51,174.29Z" style="fill: #000000; opacity: 0.4; transform-origin: 310.925px 179.277px;" class="animable" id="elcnofnosc7kt"></path></g><g id="elu7sei91o3v"><path d="M289.26,185.59c12.53,3.24,20.48-2.93,24-2.47a18.76,18.76,0,0,0,11-1.47c2.51-1.09,5,1.43,8.29.35-2.48,2.18-2.95,11.28-14.67,13.16C299.61,198.09,296.48,188.32,289.26,185.59Z" style="fill: #000000; opacity: 0.1; transform-origin: 310.905px 188.536px;" class="animable" id="el3p82k6h7rz"></path></g><g id="ele5gjv6cp6y9"><path d="M313.5,192.41a1.35,1.35,0,0,0-1.33.3,1.25,1.25,0,0,0-.32.6.87.87,0,0,0,.11.74,1.39,1.39,0,0,0,1.82,0A1,1,0,0,0,313.5,192.41Zm-4.25-.32-.18,0c-1.61-.37-3-.6-4.56-1.08a25.37,25.37,0,0,1-2.55-1,6.83,6.83,0,0,0-2-.75c-.64-.06-.92.41-.6,1a2.51,2.51,0,0,0,.82.8,16.69,16.69,0,0,0,4.66,2.33,11.78,11.78,0,0,0,5,.72c.51-.09,1.1-.57.81-1.17A1.81,1.81,0,0,0,309.25,192.09Z" style="fill: rgb(255, 255, 255); opacity: 0.5; transform-origin: 306.66px 191.822px;" class="animable" id="elbln0otq230e"></path></g><g id="elkiar0ptyh3a"><path d="M321.71,199.69c-6.43-1.89-14.83-.21-19.12,4.42,6.26-3.28,14.9-4.77,21.69-3A7.2,7.2,0,0,0,321.71,199.69Z" style="fill: #000000; opacity: 0.4; transform-origin: 313.435px 201.519px;" class="animable" id="el963yc62uzo"></path></g><path d="M353.38,143.41a24.41,24.41,0,0,1-2.68,1.18,2.69,2.69,0,0,0-4.86,1.08c-6.62.49-11.42-3.2-13.74-5.52a26.77,26.77,0,0,1-1.83-2.16c-1.7-2.13-3.73-4.66-6.53-5.89,0-.11,0-.22,0-.33a2.68,2.68,0,0,0-2.68-2.69,2.55,2.55,0,0,0-.74.12,41.33,41.33,0,0,1-1.6-4.06,44.2,44.2,0,0,1-1.86-7.24,2.65,2.65,0,0,0,1.43-1c.36.36.74.78,1.14,1.23,1.81,2,4.07,4.53,7.33,4.77a32.67,32.67,0,0,0,19.68-4.3,27.26,27.26,0,0,0,2.28-1.51h0c-.09-.33-.16-.66-.24-1a26.91,26.91,0,0,1-2.52,1.68A31.65,31.65,0,0,1,326.86,122c-2.88-.21-5-2.57-6.7-4.46-.49-.54-1-1.06-1.4-1.49a2.85,2.85,0,0,0,.11-.72,2.69,2.69,0,0,0-2.16-2.63,54.71,54.71,0,0,1,1.38-7.59c1.68-7.36-2.22-16.66-9.22-29.06A2.65,2.65,0,0,0,310,73.92c11.76-1.72,19.86-5.86,23.52-12.05.22-.38.42-.77.61-1.16-.23-.26-.45-.5-.69-.75-.22.49-.46,1-.73,1.44-3.51,5.94-11.39,9.92-22.87,11.6a2.67,2.67,0,0,0-5.18.58c-21.1,1.88-39.15-2-51-10.63-.47.26-.94.52-1.4.79q-.83,6.76-1.51,12.11c-2.52,20-3.35,26.53-.87,31.92a2.69,2.69,0,0,0-1.11,2.18,1.94,1.94,0,0,0,0,.24c-11,4.76-20.29,15.79-26,24l0,1.71c5.54-8.18,15-19.87,26.29-24.8a2.68,2.68,0,0,0,2.42,1.53,2.63,2.63,0,0,0,1.18-.28c5.15,7.87,10.18,14.38,15.08,13.85.94-.11,2.1-.27,3.44-.45,6.27-.86,15.76-2.15,22.68-.72l1.32.28A37.85,37.85,0,0,0,302,126.4c2.5,0,4.06-1,7-3.67a32.56,32.56,0,0,0,4.4-4.83l.66-.85A2.69,2.69,0,0,0,316,118a44.45,44.45,0,0,0,1.9,7.44,41.8,41.8,0,0,0,1.64,4.18,2.68,2.68,0,0,0-1.1,2.09c-3.08,1-6.4,4.24-11.78,9.52l-1.41,1.38a56.75,56.75,0,0,1-23,13.87,2.69,2.69,0,0,0-5.1,1.18v0a45.7,45.7,0,0,1-9.78.65c-19.29-.83-32.54-6.12-44.54-13.79,0,.38,0,.76,0,1.14,12,7.56,25.25,12.76,44.48,13.59.67,0,1.34,0,2,0a45.79,45.79,0,0,0,8-.71,2.69,2.69,0,0,0,2.51,1.73,2.6,2.6,0,0,0,.56-.06c2.4,7.67,2.2,15.41,8,23.53a2.68,2.68,0,0,0,1.25,4c-.14,5.91-1.42,16.23-17.87,17.15-1.92.11-20,.06-29.8-.46l1,.66.72.44c8.69.5,26.19.41,28.11.3,17.12-1,18.4-11.79,18.69-17.91h.09a2.56,2.56,0,0,0,.95-.19c4,5.16,10.53,13.36,8.49,20.37-2.1,7.22-3.64,14.32-1.64,18.57l1.13.13c-2.3-3.91-.63-11.4,1.41-18.43,2.11-7.24-4.73-15.69-8.64-21.08a2.67,2.67,0,0,0,.57-.64c4.24.78,9.94-.26,13.22-1.52,6.21-2.38,7.73-2.05,9.48-1.67a10.77,10.77,0,0,0,2.56.32,11.54,11.54,0,0,0,4.48-1.16c1.79-.74,3.49-1.44,5.66-.86.79.21,1.45.36,2,.46v.07a2.65,2.65,0,0,0,1.05,2.12c-1.35,3.3-2.74,6.2-4.52,9.89l-1.46,3c-1.7,3.58,4.56,9.56,4.29,13.93l0,.38a28,28,0,0,1-1.29,6.32c.51-.6,1-1.22,1.51-1.87a24.16,24.16,0,0,0,.72-4.39l0-.38c.26-4.29-6-10.17-4.38-13.58l1.46-3c1.77-3.68,3.16-6.58,4.51-9.87a2.62,2.62,0,0,0,.79.14,2.69,2.69,0,0,0,2-.88c2.8,1.49,6.86,3.94,8.2,6.2l.4-1.11c-1.35-2.38-5.49-4.58-8.05-6a2.55,2.55,0,0,0,.16-.88,2.67,2.67,0,0,0-1.55-2.43l.57-1.49-.06.08.21-.55c2.79-7.4,12.82-19.31,14-29.21a2.68,2.68,0,0,0,2.41-2.66,2.75,2.75,0,0,0-.1-.7,21.92,21.92,0,0,0,2.28-1Zm-40.66-26.08a31.72,31.72,0,0,1-4.29,4.7c-4.59,4.13-5.07,4-13.09,2.36l-1.32-.28c-7.08-1.47-16.66-.16-23,.71-1.32.18-2.48.34-3.41.44-4.39.49-9.23-5.83-14.22-13.47a2.65,2.65,0,0,0,.74-1.84,2.68,2.68,0,0,0-2.68-2.69,2.41,2.41,0,0,0-.72.11c-2.37-5.19-1.55-11.65.94-31.4.46-3.6,1-7.64,1.52-12.19C263.21,71.06,277.56,75,294.4,75c3.32,0,6.76-.16,10.26-.48a2.69,2.69,0,0,0,2.61,2.06,2.74,2.74,0,0,0,.76-.12c6.9,12.22,10.76,21.35,9.14,28.43a53.57,53.57,0,0,0-1.39,7.78,2.68,2.68,0,0,0-2.29,2.65,2.72,2.72,0,0,0,.15.86C313.35,116.51,313.05,116.89,312.72,117.33Zm5.19,65.59a11.19,11.19,0,0,1-2.17-.29c-1.82-.4-3.54-.77-10,1.71a27.41,27.41,0,0,1-12.52,1.51,3.07,3.07,0,0,0,.05-.53,2.69,2.69,0,0,0-2.68-2.69,2.62,2.62,0,0,0-1.54.49c-5.67-8-5.41-15.65-7.81-23.21a2.68,2.68,0,0,0,1.25-2.26,2.48,2.48,0,0,0,0-.27,57.71,57.71,0,0,0,23.43-14.11l1.41-1.38c5.22-5.12,8.42-8.25,11.28-9.24a2.67,2.67,0,0,0,2.53,1.81,3.19,3.19,0,0,0,.69-.1c.67,1.49,1.23,3,1.78,4.38,1.67,4.35,2,5,2.64,7,1.47,5-1.12,8-2.06,11-1.23,3.94-6.19,10.23-3.22,14.43C324.3,176,318.85,182,317.91,182.92Zm16-5.26c-.28.72-.54,1.41-.77,2.05l-.21,0a2.68,2.68,0,0,0-2.49,1.7c-.52-.1-1.16-.23-2-.45-2.47-.66-4.4.14-6.26.9a14.06,14.06,0,0,1-2.94,1c1.82-2.12,5.67-7.5,2.4-12.11-2.71-3.84,2.18-9.84,3.36-13.6,1-3.35,3.73-6.27,2.19-11.49-.66-2.21-1.37-3.54-2.87-7.36-.54-1.39-1-2.84-1.7-4.31a2.69,2.69,0,0,0,.79-.92c2.56,1.17,4.47,3.55,6.08,5.56a27.83,27.83,0,0,0,1.91,2.24c1.94,1.94,7.11,6.2,14.4,5.73a2.66,2.66,0,0,0,2,2.16C346.76,158.46,336.68,170.31,333.91,177.66Z" style="fill: #000000; transform-origin: 288.08px 143.38px;" id="el2ta60ui64eb" class="animable"></path><g id="el443k76otrts"><path d="M353.38,143.41a24.41,24.41,0,0,1-2.68,1.18,2.69,2.69,0,0,0-4.86,1.08c-6.62.49-11.42-3.2-13.74-5.52a26.77,26.77,0,0,1-1.83-2.16c-1.7-2.13-3.73-4.66-6.53-5.89,0-.11,0-.22,0-.33a2.68,2.68,0,0,0-2.68-2.69,2.55,2.55,0,0,0-.74.12,41.33,41.33,0,0,1-1.6-4.06,44.2,44.2,0,0,1-1.86-7.24,2.65,2.65,0,0,0,1.43-1c.36.36.74.78,1.14,1.23,1.81,2,4.07,4.53,7.33,4.77a32.67,32.67,0,0,0,19.68-4.3,27.26,27.26,0,0,0,2.28-1.51h0c-.09-.33-.16-.66-.24-1a26.91,26.91,0,0,1-2.52,1.68A31.65,31.65,0,0,1,326.86,122c-2.88-.21-5-2.57-6.7-4.46-.49-.54-1-1.06-1.4-1.49a2.85,2.85,0,0,0,.11-.72,2.69,2.69,0,0,0-2.16-2.63,54.71,54.71,0,0,1,1.38-7.59c1.68-7.36-2.22-16.66-9.22-29.06A2.65,2.65,0,0,0,310,73.92c11.76-1.72,19.86-5.86,23.52-12.05.22-.38.42-.77.61-1.16-.23-.26-.45-.5-.69-.75-.22.49-.46,1-.73,1.44-3.51,5.94-11.39,9.92-22.87,11.6a2.67,2.67,0,0,0-5.18.58c-21.1,1.88-39.15-2-51-10.63-.47.26-.94.52-1.4.79q-.83,6.76-1.51,12.11c-2.52,20-3.35,26.53-.87,31.92a2.69,2.69,0,0,0-1.11,2.18,1.94,1.94,0,0,0,0,.24c-11,4.76-20.29,15.79-26,24l0,1.71c5.54-8.18,15-19.87,26.29-24.8a2.68,2.68,0,0,0,2.42,1.53,2.63,2.63,0,0,0,1.18-.28c5.15,7.87,10.18,14.38,15.08,13.85.94-.11,2.1-.27,3.44-.45,6.27-.86,15.76-2.15,22.68-.72l1.32.28A37.85,37.85,0,0,0,302,126.4c2.5,0,4.06-1,7-3.67a32.56,32.56,0,0,0,4.4-4.83l.66-.85A2.69,2.69,0,0,0,316,118a44.45,44.45,0,0,0,1.9,7.44,41.8,41.8,0,0,0,1.64,4.18,2.68,2.68,0,0,0-1.1,2.09c-3.08,1-6.4,4.24-11.78,9.52l-1.41,1.38a56.75,56.75,0,0,1-23,13.87,2.69,2.69,0,0,0-5.1,1.18v0a45.7,45.7,0,0,1-9.78.65c-19.29-.83-32.54-6.12-44.54-13.79,0,.38,0,.76,0,1.14,12,7.56,25.25,12.76,44.48,13.59.67,0,1.34,0,2,0a45.79,45.79,0,0,0,8-.71,2.69,2.69,0,0,0,2.51,1.73,2.6,2.6,0,0,0,.56-.06c2.4,7.67,2.2,15.41,8,23.53a2.68,2.68,0,0,0,1.25,4c-.14,5.91-1.42,16.23-17.87,17.15-1.92.11-20,.06-29.8-.46l1,.66.72.44c8.69.5,26.19.41,28.11.3,17.12-1,18.4-11.79,18.69-17.91h.09a2.56,2.56,0,0,0,.95-.19c4,5.16,10.53,13.36,8.49,20.37-2.1,7.22-3.64,14.32-1.64,18.57l1.13.13c-2.3-3.91-.63-11.4,1.41-18.43,2.11-7.24-4.73-15.69-8.64-21.08a2.67,2.67,0,0,0,.57-.64c4.24.78,9.94-.26,13.22-1.52,6.21-2.38,7.73-2.05,9.48-1.67a10.77,10.77,0,0,0,2.56.32,11.54,11.54,0,0,0,4.48-1.16c1.79-.74,3.49-1.44,5.66-.86.79.21,1.45.36,2,.46v.07a2.65,2.65,0,0,0,1.05,2.12c-1.35,3.3-2.74,6.2-4.52,9.89l-1.46,3c-1.7,3.58,4.56,9.56,4.29,13.93l0,.38a28,28,0,0,1-1.29,6.32c.51-.6,1-1.22,1.51-1.87a24.16,24.16,0,0,0,.72-4.39l0-.38c.26-4.29-6-10.17-4.38-13.58l1.46-3c1.77-3.68,3.16-6.58,4.51-9.87a2.62,2.62,0,0,0,.79.14,2.69,2.69,0,0,0,2-.88c2.8,1.49,6.86,3.94,8.2,6.2l.4-1.11c-1.35-2.38-5.49-4.58-8.05-6a2.55,2.55,0,0,0,.16-.88,2.67,2.67,0,0,0-1.55-2.43l.57-1.49-.06.08.21-.55c2.79-7.4,12.82-19.31,14-29.21a2.68,2.68,0,0,0,2.41-2.66,2.75,2.75,0,0,0-.1-.7,21.92,21.92,0,0,0,2.28-1Zm-40.66-26.08a31.72,31.72,0,0,1-4.29,4.7c-4.59,4.13-5.07,4-13.09,2.36l-1.32-.28c-7.08-1.47-16.66-.16-23,.71-1.32.18-2.48.34-3.41.44-4.39.49-9.23-5.83-14.22-13.47a2.65,2.65,0,0,0,.74-1.84,2.68,2.68,0,0,0-2.68-2.69,2.41,2.41,0,0,0-.72.11c-2.37-5.19-1.55-11.65.94-31.4.46-3.6,1-7.64,1.52-12.19C263.21,71.06,277.56,75,294.4,75c3.32,0,6.76-.16,10.26-.48a2.69,2.69,0,0,0,2.61,2.06,2.74,2.74,0,0,0,.76-.12c6.9,12.22,10.76,21.35,9.14,28.43a53.57,53.57,0,0,0-1.39,7.78,2.68,2.68,0,0,0-2.29,2.65,2.72,2.72,0,0,0,.15.86C313.35,116.51,313.05,116.89,312.72,117.33Zm5.19,65.59a11.19,11.19,0,0,1-2.17-.29c-1.82-.4-3.54-.77-10,1.71a27.41,27.41,0,0,1-12.52,1.51,3.07,3.07,0,0,0,.05-.53,2.69,2.69,0,0,0-2.68-2.69,2.62,2.62,0,0,0-1.54.49c-5.67-8-5.41-15.65-7.81-23.21a2.68,2.68,0,0,0,1.25-2.26,2.48,2.48,0,0,0,0-.27,57.71,57.71,0,0,0,23.43-14.11l1.41-1.38c5.22-5.12,8.42-8.25,11.28-9.24a2.67,2.67,0,0,0,2.53,1.81,3.19,3.19,0,0,0,.69-.1c.67,1.49,1.23,3,1.78,4.38,1.67,4.35,2,5,2.64,7,1.47,5-1.12,8-2.06,11-1.23,3.94-6.19,10.23-3.22,14.43C324.3,176,318.85,182,317.91,182.92Zm16-5.26c-.28.72-.54,1.41-.77,2.05l-.21,0a2.68,2.68,0,0,0-2.49,1.7c-.52-.1-1.16-.23-2-.45-2.47-.66-4.4.14-6.26.9a14.06,14.06,0,0,1-2.94,1c1.82-2.12,5.67-7.5,2.4-12.11-2.71-3.84,2.18-9.84,3.36-13.6,1-3.35,3.73-6.27,2.19-11.49-.66-2.21-1.37-3.54-2.87-7.36-.54-1.39-1-2.84-1.7-4.31a2.69,2.69,0,0,0,.79-.92c2.56,1.17,4.47,3.55,6.08,5.56a27.83,27.83,0,0,0,1.91,2.24c1.94,1.94,7.11,6.2,14.4,5.73a2.66,2.66,0,0,0,2,2.16C346.76,158.46,336.68,170.31,333.91,177.66Z" style="fill: rgb(255, 255, 255); opacity: 0.7; transform-origin: 288.08px 143.38px;" class="animable" id="el6vn1erncnk9"></path></g><g id="el35b0g30keia"><path d="M314.11,226.12c-11.26,1.47-25.86-3.09-39.58-10.22s-26.76-14.91-31.9-31.69-5.6-50.41-1.5-80.54,22.6-43.83,48.13-50.44l0-.5c-23.17,2.32-48.91,11.36-59.09,35.34-7.44,17.53-9.27,53.2-5.83,77.85,3.83,27.54,8.17,32.63,18.58,39.25,16.88,10.72,50.54,25.61,71.24,21.4Z" style="fill: #000000; opacity: 0.2; transform-origin: 268.414px 140.015px;" class="animable" id="el53bzneqkln4"></path></g><g id="eladuhwy9cwls"><path d="M314.62,147.4c.11.82.33,1.8,1.11,2.08a2.28,2.28,0,0,0,1.55-.19l6.11-2.27a1.12,1.12,0,0,0,.65-1.88c-3.05-7-5.83-14-8.61-21.18a11.31,11.31,0,0,0-1.62-3.1C312.57,119.34,314.15,143.67,314.62,147.4Z" style="fill: rgb(255, 255, 255); opacity: 0.5; transform-origin: 318.847px 135.165px;" class="animable" id="elib00lihxxdq"></path></g><g id="elv3ujez8bu2j"><path d="M257.69,126.26a7.23,7.23,0,0,0-3.44.64,3.49,3.49,0,0,0-1.47,1.5,12.55,12.55,0,0,0-.12,12.08c2.43,4.59,8.71,6.54,13.51,7.15,7.28.93,15.95.1,21.19-5.75,1.14-1.28,2.77-4,.54-5.07a4.92,4.92,0,0,0-1.91-.37,36.34,36.34,0,0,1-12.54-2.51,80.53,80.53,0,0,1-10.31-5.6A12.05,12.05,0,0,0,257.69,126.26Z" style="fill: rgb(255, 255, 255); opacity: 0.5; transform-origin: 270.09px 137.1px;" class="animable" id="el0xyhrh0kuiuo"></path></g><g id="elfmvws7pxoj"><path d="M353.27,137.11c-.06-.93-.14-1.85-.25-2.75a55.73,55.73,0,0,0-2.39-11,15,15,0,0,1-5.81,4.47,27.16,27.16,0,0,1-8.36,2.13,6.49,6.49,0,0,0-2.21.51,2,2,0,0,0-.87.82c-.6,1.14.22,2.51,1.15,3.41,3.71,3.61,11.1,5.84,16.05,3.89A13.18,13.18,0,0,0,353.27,137.11Z" style="fill: rgb(255, 255, 255); opacity: 0.5; transform-origin: 343.223px 131.336px;" class="animable" id="ell8ti696zxlb"></path></g><path d="M306.46,227.77c-21.36,0-50.28-13.63-63.75-22.2-10.58-6.72-15-11.87-18.81-39.58-3.24-23.28-1.92-59.76,5.87-78.11,15.15-35.69,63.46-38.06,87-35.5A29.27,29.27,0,0,1,338.7,66.13c4.73,7.82,7.69,18,10.16,27.63,1.29,4.47.75,8.51.23,12.42-.48,3.69-.95,7.17.12,10.8.5,1.68.94,3.12,1.33,4.41a61.86,61.86,0,0,1,3,12.91c1.68,14.32-2.38,32.18-6.08,44.64-7,23.65-16.81,40.74-26.18,45.71C317.11,226.84,312,227.77,306.46,227.77ZM302.53,52.59c-24.82,0-59.55,6.63-71.88,35.67-7.72,18.19-9,54.44-5.8,77.6,3.81,27.31,8.06,32.36,18.37,38.9,16.85,10.71,58,29.43,77.57,19,9.14-4.85,18.75-21.72,25.71-45.14,3.68-12.37,7.71-30.09,6.05-44.24a62.7,62.7,0,0,0-2.92-12.75c-.4-1.29-.84-2.73-1.34-4.42-1.12-3.82-.65-7.4-.15-11.19s1-7.76-.21-12h0c-2.31-9-5-18.51-9.25-26a29.34,29.34,0,0,0-22.59-14.71A132.33,132.33,0,0,0,302.53,52.59Z" style="fill: #000000; transform-origin: 288.091px 139.706px;" id="elaj2bomf2u9" class="animable"></path><path d="M266.76,125.47c2-5.54,9.94-9.32,19.08-8.72s10.85,5.73,10.89,8.13-3.62,7.28-13.51,7.77C273.78,133.11,268.39,128.22,266.76,125.47Z" style="fill: rgb(55, 71, 79); transform-origin: 281.745px 124.684px;" id="eltm80ircthn9" class="animable"></path><path d="M286.8,123.18a7.9,7.9,0,0,0-3.37-6.48,23.29,23.29,0,0,0-11.7,3.13,7.91,7.91,0,1,0,15.07,3.35Z" id="elmhxvx4e3to" class="animable" style="transform-origin: 278.89px 123.901px;"></path><path d="M282.35,123.15a3.46,3.46,0,1,1-3.46-3.46A3.45,3.45,0,0,1,282.35,123.15Z" style="fill: #000000; transform-origin: 278.89px 123.15px;" id="el5gbfg37yc9g" class="animable"></path><g id="el2dm19vhz5zk"><path d="M282.35,123.15a3.46,3.46,0,1,1-3.46-3.46A3.45,3.45,0,0,1,282.35,123.15Z" style="fill: rgb(255, 255, 255); opacity: 0.6; transform-origin: 278.89px 123.15px;" class="animable" id="elmc07g7ci68"></path></g><path d="M283.47,121.54a1.61,1.61,0,1,1-1.61-1.61A1.62,1.62,0,0,1,283.47,121.54Z" style="fill: rgb(255, 255, 255); transform-origin: 281.86px 121.54px;" id="elah43qh12k8n" class="animable"></path><path d="M340,126.69c6.9-1.41,9.56-5.36,8.55-10.55-.33-1.83-1.88-4.86-7.87-4.31-5.46.5-13.07,4.56-12.41,10.63C328.61,125.91,334.63,127.78,340,126.69Z" style="fill: rgb(55, 71, 79); transform-origin: 338.493px 119.382px;" id="el7vyyouzu1oc" class="animable"></path><path d="M340.1,112.05c-3.74.41-8.4,2.48-10.6,5.72,0,.24,0,.47,0,.72a7.27,7.27,0,1,0,10.64-6.44Z" id="elgxqdhptvhk4" class="animable" style="transform-origin: 336.77px 118.906px;"></path><path d="M339.91,118.64a3.18,3.18,0,1,1-3.18-3.18A3.18,3.18,0,0,1,339.91,118.64Z" style="fill: #000000; transform-origin: 336.73px 118.64px;" id="el308yhvw54rl" class="animable"></path><g id="elq0g8syma0s"><path d="M339.91,118.64a3.18,3.18,0,1,1-3.18-3.18A3.18,3.18,0,0,1,339.91,118.64Z" style="fill: rgb(255, 255, 255); opacity: 0.6; transform-origin: 336.73px 118.64px;" class="animable" id="eldpa5bqf10qu"></path></g><path d="M340.86,116.7a1.61,1.61,0,1,1-1.61-1.61A1.62,1.62,0,0,1,340.86,116.7Z" style="fill: rgb(255, 255, 255); transform-origin: 339.25px 116.7px;" id="eldy0idbbxkl9" class="animable"></path><path d="M330.44,181.39a27.57,27.57,0,0,0-3.7-1,7.36,7.36,0,0,0-3.6.48c-1,.4-1.95,1.09-3,1.43a6.45,6.45,0,0,1-3.56-.18,12.81,12.81,0,0,0-3.63-.53,13.8,13.8,0,0,0-3.55.7c-2.42.77-4.73,1.82-7.19,2.48a34.55,34.55,0,0,1-4.05.81,27.33,27.33,0,0,1-4.95.24,3,3,0,0,1-.36.89,17.42,17.42,0,0,0,4.67.32,25.44,25.44,0,0,0,3.79-.54,56.8,56.8,0,0,0,7.22-2.11,19,19,0,0,1,3.7-1,9.18,9.18,0,0,1,3.58.21,9.29,9.29,0,0,0,3.54.46,8.65,8.65,0,0,0,3-1.18,8.21,8.21,0,0,1,3.53-1.14c1.66-.09,2.71.53,4.36.58A2.2,2.2,0,0,1,330.44,181.39Z" style="fill: rgb(55, 71, 79); transform-origin: 311.645px 183.704px;" id="elspwgi2n7hu" class="animable"></path><path d="M181.29,124.09c-4.66,2.69-7.54,8.46-7.54,16.67,0,16.43,11.53,36.4,25.75,44.61,7.11,4.11,13.55,4.49,18.21,1.8l8.39-4.84c4.66-2.69,7.54-8.46,7.54-16.68,0-16.42-11.53-36.39-25.75-44.6-7.11-4.11-13.55-4.5-18.21-1.81Z" style="fill: rgb(38, 50, 56); transform-origin: 203.695px 153.207px;" id="elom0giczxhtl" class="animable"></path><path d="M199.5,185.37c7.11,4.11,13.55,4.49,18.21,1.8s7.55-8.46,7.55-16.67c0-16.42-11.54-36.4-25.76-44.61-7.11-4.1-13.55-4.49-18.21-1.8s-7.54,8.46-7.54,16.67C173.75,157.19,185.28,177.16,199.5,185.37Z" style="fill: rgb(69, 90, 100); transform-origin: 199.505px 155.632px;" id="eln7nbufgovb" class="animable"></path><path d="M209.37,183a18.77,18.77,0,0,1-9.54-3.08h0c-11.41-6.9-20.92-23.37-21.19-36.7-.13-6.53,1.94-11.37,5.83-13.62s9.12-1.62,14.71,1.76c11.41,6.91,20.91,23.37,21.18,36.7.14,6.53-1.93,11.37-5.83,13.62A10.21,10.21,0,0,1,209.37,183Zm-9.21-3.62c5.38,3.25,10.37,3.88,14.06,1.75s5.64-6.76,5.51-13.06c-.27-13.14-9.64-29.36-20.88-36.16-5.39-3.26-10.38-3.88-14.06-1.76s-5.64,6.77-5.51,13.06c.26,13.14,9.63,29.36,20.88,36.17Z" style="fill: #000000; transform-origin: 199.5px 155.637px;" id="elqzy3nxx256e" class="animable"></path><path d="M214.79,165.94c0-10.57-7.41-23.41-16.56-28.69-4.59-2.65-8.74-2.9-11.74-1.15l-4.17,2.4c-3,1.72-4.88,5.44-4.88,10.73,0,10.57,7.42,23.41,16.56,28.7,4.59,2.64,8.73,2.89,11.73,1.14l4.22-2.41C212.94,174.92,214.79,171.21,214.79,165.94Z" style="fill: #000000; transform-origin: 196.115px 157.585px;" id="eloi4okqanmxr" class="animable"></path><g id="ellaiiqojoa6g"><path d="M214.79,165.94c0-10.57-7.41-23.41-16.56-28.69-4.59-2.65-8.74-2.9-11.74-1.15l-4.17,2.4c-3,1.72-4.88,5.44-4.88,10.73,0,10.57,7.42,23.41,16.56,28.7,4.59,2.64,8.73,2.89,11.73,1.14l4.22-2.41C212.94,174.92,214.79,171.21,214.79,165.94Z" style="opacity: 0.3; transform-origin: 196.115px 157.585px;" class="animable" id="elxz2e02i6hdn"></path></g><g id="elym8u18juwd8"><ellipse cx="194" cy="158.8" rx="13.53" ry="23.43" style="fill: #000000; transform-origin: 194px 158.8px; transform: rotate(-29.8865deg);" class="animable" id="elhr1pat1w6y"></ellipse></g><g id="elk9vtvpsoeka"><ellipse cx="193.36" cy="159.2" rx="10.5" ry="18.18" style="fill: rgb(38, 50, 56); transform-origin: 193.36px 159.2px; transform: rotate(-30deg);" class="animable" id="eltfg63mz7gso"></ellipse></g><path d="M200.39,151.93l-7.61,7.6L183.7,143.8c2.32-1.35,5.54-1.16,9.08.88A25.22,25.22,0,0,1,200.39,151.93Z" style="fill: rgb(69, 90, 100); transform-origin: 192.045px 151.233px;" id="eltw70n6wqfle" class="animable"></path><path d="M205.64,167c0,4.1-1.44,7-3.77,8.31l-9.09-15.74,7.61-7.6C203.57,156.47,205.64,162,205.64,167Z" style="fill: rgb(55, 71, 79); transform-origin: 199.21px 163.64px;" id="elorjwlkrqh0s" class="animable"></path><path d="M201.87,175.27c-2.32,1.35-5.53,1.16-9.09-.89a24.73,24.73,0,0,1-7.59-7.26l7.59-7.59Z" style="fill: rgb(69, 90, 100); transform-origin: 193.53px 167.831px;" id="el6458nlih1xv" class="animable"></path><path d="M192.78,159.53l-7.59,7.59c-3.19-4.54-5.26-10.09-5.26-15,0-4.11,1.45-7,3.77-8.32Z" style="fill: rgb(55, 71, 79); transform-origin: 186.355px 155.46px;" id="elh5y01jwkwt" class="animable"></path><path d="M192.78,153.1a12,12,0,0,1,5.42,9.38c0,3.46-2.42,4.85-5.42,3.13a12,12,0,0,1-5.41-9.38C187.37,152.78,189.79,151.38,192.78,153.1Z" style="fill: #000000; transform-origin: 192.785px 159.356px;" id="eluha012m3ok" class="animable"></path></g></g></g><g id="freepik--speech-bubble--inject-60" class="animable" style="transform-origin: 118.208px 130.718px;"><g id="freepik--speech-bubble--inject-60" class="animable" style="transform-origin: 118.208px 130.718px;"><g id="freepik--speech-bubble--inject-60" class="animable" style="transform-origin: 118.208px 130.718px;"><path d="M132.93,128.42l0-23.29,19.59-2.06a1.8,1.8,0,0,1,1.12.23l10.27,6a1.85,1.85,0,0,1,.42,2.88l-21.15,22.25Z" style="fill: #000000; transform-origin: 148.885px 118.743px;" id="el0rg99a5bv1kc" class="animable"></path><path d="M71.49,181V108.9a3.6,3.6,0,0,1,1.64-2.84L131.89,72.2a3.58,3.58,0,0,1,3.28,0l9.14,5.39a3.67,3.67,0,0,1,1.63,2.86v72.06a3.66,3.66,0,0,1-1.64,2.85L85.53,189.23a3.56,3.56,0,0,1-3.27,0l-9.14-5.4A3.67,3.67,0,0,1,71.49,181Z" style="fill: #000000; transform-origin: 108.715px 130.715px;" id="eln3kompxqotm" class="animable"></path><g id="eljwjhf8wigng"><path d="M85.27,189.36c-.78.31-1.38-.13-1.38-1.08v-72a3.42,3.42,0,0,1,.49-1.62l-12.44-7.27a3.31,3.31,0,0,0-.45,1.56V181a3.67,3.67,0,0,0,1.63,2.85l9.14,5.4A3.63,3.63,0,0,0,85.27,189.36Z" style="opacity: 0.15; transform-origin: 78.38px 148.512px;" class="animable" id="elkshujm87k2n"></path></g><path d="M162.83,109l-16.89,1.78V80.47c0-1-.74-1.47-1.64-1L85.53,113.38a3.66,3.66,0,0,0-1.64,2.84v72.07c0,1,.74,1.47,1.64.94l58.77-33.85a3.66,3.66,0,0,0,1.64-2.85v-21l18.42-19.38A1.84,1.84,0,0,0,162.83,109Z" style="fill: #000000; transform-origin: 124.408px 134.369px;" id="elrosqflt4eb" class="animable"></path><g id="elwjxtzrtoyqa"><path d="M162.83,109l-16.89,1.78V80.47c0-1-.74-1.47-1.64-1L85.53,113.38a3.66,3.66,0,0,0-1.64,2.84v72.07c0,1,.74,1.47,1.64.94l58.77-33.85a3.66,3.66,0,0,0,1.64-2.85v-21l18.42-19.38A1.84,1.84,0,0,0,162.83,109Z" style="fill: rgb(255, 255, 255); opacity: 0.35; transform-origin: 124.408px 134.369px;" class="animable" id="elp4vu2z721xb"></path></g></g><g id="freepik--Chip--inject-60" class="animable" style="transform-origin: 114.76px 133.065px;"><path d="M109.05,156.76h-3.56V168h0a1.78,1.78,0,1,0,3.56,0h0Z" style="fill: #000000; transform-origin: 107.27px 163.27px;" id="elq87vplptop" class="animable"></path><path d="M115.77,152.89H112.2v11.26h0a1.78,1.78,0,0,0,3.56,0h0Z" style="fill: #000000; transform-origin: 113.985px 159.41px;" id="elg9298lr6mi" class="animable"></path><path d="M122.48,149h-3.56v11.26h0a1.78,1.78,0,1,0,3.56,0h0Z" style="fill: #000000; transform-origin: 120.7px 155.52px;" id="el9fd8rrxyatm" class="animable"></path><path d="M129.2,145.14h-3.56V156.4h0a1.78,1.78,0,0,0,3.56,0h0Z" style="fill: #000000; transform-origin: 127.42px 151.66px;" id="elt1wumzh8wdc" class="animable"></path><g id="eledyfp24anq"><g style="opacity: 0.8; transform-origin: 117.345px 157.46px;" class="animable" id="ellwe8d64y57o"><path d="M109.05,156.76h-3.56V168h0a1.78,1.78,0,1,0,3.56,0h0Z" style="fill: rgb(255, 255, 255); transform-origin: 107.27px 163.27px;" id="elnuhvhmokd4" class="animable"></path><path d="M115.77,152.89H112.2v11.26h0a1.78,1.78,0,0,0,3.56,0h0Z" style="fill: rgb(255, 255, 255); transform-origin: 113.985px 159.41px;" id="elqt5kvsjq1nr" class="animable"></path><path d="M122.48,149h-3.56v11.26h0a1.78,1.78,0,1,0,3.56,0h0Z" style="fill: rgb(255, 255, 255); transform-origin: 120.7px 155.52px;" id="elrtbzub93pd" class="animable"></path><path d="M129.2,145.14h-3.56V156.4h0a1.78,1.78,0,0,0,3.56,0h0Z" style="fill: rgb(255, 255, 255); transform-origin: 127.42px 151.66px;" id="el5583f8r4rz" class="animable"></path></g></g><g id="el4vmt2xrpm6n"><g style="opacity: 0.2; transform-origin: 117.345px 155.735px;" class="animable" id="elxctx1ilz3io"><polygon points="109.05 156.76 105.49 156.76 105.49 166.33 109.05 164.28 109.05 156.76" style="fill: #000000; transform-origin: 107.27px 161.545px;" id="elxd8r9wtp2ar" class="animable"></polygon><polygon points="125.64 154.7 129.2 152.64 129.2 145.14 125.64 145.14 125.64 154.7" style="fill: #000000; transform-origin: 127.42px 149.92px;" id="elmrricwowcvc" class="animable"></polygon><polygon points="122.48 149.01 118.92 149.01 118.92 158.58 122.48 156.52 122.48 149.01" style="fill: #000000; transform-origin: 120.7px 153.795px;" id="elo9yqh2ok43i" class="animable"></polygon><polygon points="115.77 152.89 112.2 152.89 112.2 162.46 115.77 160.4 115.77 152.89" style="fill: #000000; transform-origin: 113.985px 157.675px;" id="el6vcilpt590c" class="animable"></polygon></g></g><path d="M131.11,118.55l-1.78-3.08,9.74-5.64h0a1.78,1.78,0,0,1,1.78,3.08h0Z" style="fill: #000000; transform-origin: 135.505px 114.087px;" id="el4por6omy41f" class="animable"></path><path d="M131.11,126.31l-1.78-3.09,9.75-5.64h0a1.78,1.78,0,0,1,1.78,3.09h0Z" style="fill: #000000; transform-origin: 135.542px 121.826px;" id="elce6u9ks6uk" class="animable"></path><path d="M131.11,134.06,129.33,131l9.75-5.64h0a1.78,1.78,0,1,1,1.79,3.08h0Z" style="fill: #000000; transform-origin: 135.544px 129.589px;" id="elrg97b1z698" class="animable"></path><path d="M131.12,141.81l-1.78-3.08,9.75-5.64h0a1.78,1.78,0,1,1,1.78,3.08h0Z" style="fill: #000000; transform-origin: 135.58px 137.313px;" id="elm2pqgoo90hs" class="animable"></path><g id="elfae4d3zo7sb"><g style="opacity: 0.8; transform-origin: 135.575px 125.717px;" class="animable" id="el2zgr5vejyau"><path d="M131.11,118.55l-1.78-3.08,9.74-5.64h0a1.78,1.78,0,0,1,1.78,3.08h0Z" style="fill: rgb(255, 255, 255); transform-origin: 135.505px 114.087px;" id="el2623p6ll9pk" class="animable"></path><path d="M131.11,126.31l-1.78-3.09,9.75-5.64h0a1.78,1.78,0,0,1,1.78,3.09h0Z" style="fill: rgb(255, 255, 255); transform-origin: 135.542px 121.826px;" id="el9h6lxyja01n" class="animable"></path><path d="M131.11,134.06,129.33,131l9.75-5.64h0a1.78,1.78,0,1,1,1.79,3.08h0Z" style="fill: rgb(255, 255, 255); transform-origin: 135.544px 129.589px;" id="elbgj10zxyh6u" class="animable"></path><path d="M131.12,141.81l-1.78-3.08,9.75-5.64h0a1.78,1.78,0,1,1,1.78,3.08h0Z" style="fill: rgb(255, 255, 255); transform-origin: 135.58px 137.313px;" id="elb3j0oa4akem" class="animable"></path></g></g><g id="el324izcpdrb"><g style="opacity: 0.2; transform-origin: 133.475px 126.245px;" class="animable" id="el8tt7wqwccx3"><polygon points="131.11 118.55 129.33 115.47 137.62 110.68 137.62 114.79 131.11 118.55" style="fill: #000000; transform-origin: 133.475px 114.615px;" id="elg1gs4pmcse8" class="animable"></polygon><polygon points="137.62 133.95 137.62 138.06 131.12 141.81 129.34 138.73 137.62 133.95" style="fill: #000000; transform-origin: 133.48px 137.88px;" id="elz5scczb9po9" class="animable"></polygon><polygon points="131.12 134.06 129.33 130.97 137.62 126.19 137.62 130.31 131.12 134.06" style="fill: #000000; transform-origin: 133.475px 130.125px;" id="elzsu4f6rgjpj" class="animable"></polygon><polygon points="131.11 126.31 129.33 123.22 137.62 118.44 137.62 122.55 131.11 126.31" style="fill: #000000; transform-origin: 133.475px 122.375px;" id="elyy6hbbhw38" class="animable"></polygon></g></g><path d="M134.08,108.42a1.5,1.5,0,0,0-1.52.15l-29.29,16.91a4.43,4.43,0,0,0-1.52,1.6l-4-2.32a4.27,4.27,0,0,1,1.52-1.6l28-16.19a4.77,4.77,0,0,1,4.29,0Z" style="fill: rgb(55, 71, 79); transform-origin: 115.915px 116.77px;" id="elz496li3kp2q" class="animable"></path><path d="M101.12,129.2V163c0,1.37,1,1.93,2.15,1.24l29.28-16.9a4.76,4.76,0,0,0,2.15-3.72V109.81c0-1.37-1-1.93-2.15-1.24l-29.29,16.91A4.75,4.75,0,0,0,101.12,129.2Z" style="fill: rgb(69, 90, 100); transform-origin: 117.91px 136.405px;" id="elzubwigmmvyq" class="animable"></path><path d="M101.7,164.37,99.25,163a4.75,4.75,0,0,1-2.15-3.72V126.87a4.36,4.36,0,0,1,.63-2.11l4,2.32a4.36,4.36,0,0,0-.63,2.12V163A1.58,1.58,0,0,0,101.7,164.37Z" style="fill: rgb(38, 50, 56); transform-origin: 99.415px 144.565px;" id="el5d94ws9h9s3" class="animable"></path><path d="M105.91,158.2a1,1,0,0,1-.5-.13,1.23,1.23,0,0,1-.55-1.13V130.62a3.3,3.3,0,0,1,1.51-2.61l22.81-13.18a1.26,1.26,0,0,1,1.26-.09,1.23,1.23,0,0,1,.55,1.13v26.34a3.31,3.31,0,0,1-1.51,2.61L106.67,158A1.53,1.53,0,0,1,105.91,158.2Zm.61-.48h0Zm23.41-42.52a1,1,0,0,0-.46.14l-22.81,13.18a2.72,2.72,0,0,0-1.22,2.1v26.32a.55.55,0,0,0,.92.53l22.8-13.16a2.72,2.72,0,0,0,1.22-2.1V115.87a.69.69,0,0,0-.25-.62A.36.36,0,0,0,129.93,115.2Z" style="fill: rgb(245, 245, 245); transform-origin: 117.925px 136.406px;" id="el8whwgl8fvkn" class="animable"></path><path d="M110.11,150.37a.6.6,0,0,1-.3-.07.7.7,0,0,1-.31-.63v-17.3a1.82,1.82,0,0,1,.72-1.25l15.05-8.75a.64.64,0,0,1,1,.58l-.07,17.41a1.56,1.56,0,0,1-.72,1.25l-15,8.65A.86.86,0,0,1,110.11,150.37Zm15.55-27.54s0,0-.1,0l-15,8.75a1.36,1.36,0,0,0-.43.74v17.3a.22.22,0,0,0,0,.12l.11,0,15-8.64a1,1,0,0,0,.43-.74h0l.07-17.41A.19.19,0,0,0,125.66,122.83Z" style="fill: rgb(245, 245, 245); transform-origin: 117.885px 136.314px;" id="elyvem1rbmsd" class="animable"></path><path d="M108.93,109.75a1.78,1.78,0,0,0-3.56,0l0,10.8a.87.87,0,0,0,.52.72,2.74,2.74,0,0,0,2.52,0,.87.87,0,0,0,.52-.72h0Z" style="fill: #000000; transform-origin: 107.15px 114.773px;" id="elyrz8awa837s" class="animable"></path><path d="M115.65,105.87a1.78,1.78,0,0,0-3.56,0h0l0,10.8a.87.87,0,0,0,.52.73,2.8,2.8,0,0,0,2.52,0,.89.89,0,0,0,.52-.73h0l0-10.8Z" style="fill: #000000; transform-origin: 113.87px 110.897px;" id="elyvqhc6yxzs" class="animable"></path><path d="M122.37,102a1.79,1.79,0,0,0-3.57,0h0l0,10.8h0a.91.91,0,0,0,.52.73,2.8,2.8,0,0,0,2.52,0,.89.89,0,0,0,.52-.73h0l0-10.8Z" style="fill: #000000; transform-origin: 120.585px 107.087px;" id="elysdtfsriv8h" class="animable"></path><path d="M127.3,96.35a1.78,1.78,0,0,0-1.78,1.78h0l0,10.8a.87.87,0,0,0,.52.72,2.8,2.8,0,0,0,2.52,0,.87.87,0,0,0,.52-.72h0l0-10.8A1.78,1.78,0,0,0,127.3,96.35Z" style="fill: #000000; transform-origin: 127.3px 103.15px;" id="ellnrnbq72l7p" class="animable"></path><path d="M90.43,140.19a1.78,1.78,0,1,1-1.78-3.08L98,131.75a.86.86,0,0,1,.89.08,2.8,2.8,0,0,1,1.26,2.18.88.88,0,0,1-.37.82h0Z" style="fill: #000000; transform-origin: 93.9281px 136.063px;" id="eljtdfj7ypb2" class="animable"></path><path d="M90.43,148a1.78,1.78,0,0,1-1.78-3.09h0L98,139.5a.89.89,0,0,1,.89.09,2.76,2.76,0,0,1,1.26,2.18.87.87,0,0,1-.37.81h0L90.43,148Z" style="fill: #000000; transform-origin: 93.9567px 143.829px;" id="elkoe80adse4d" class="animable"></path><path d="M90.43,155.7a1.78,1.78,0,1,1-1.78-3.08h0L98,147.25h0a.89.89,0,0,1,.89.09,2.77,2.77,0,0,1,1.26,2.18.92.92,0,0,1-.36.82h0l-9.38,5.36Z" style="fill: #000000; transform-origin: 93.9274px 151.572px;" id="el9rf4r2ch4w" class="animable"></path><path d="M88,162.8a1.77,1.77,0,0,1,.66-2.43h0L98,155a.86.86,0,0,1,.89.08,2.8,2.8,0,0,1,1.26,2.18.88.88,0,0,1-.37.82h0l-9.37,5.36A1.79,1.79,0,0,1,88,162.8Z" style="fill: #000000; transform-origin: 93.9581px 159.29px;" id="elis3pqt9xic" class="animable"></path><g id="elzi9a4s73ha"><g style="opacity: 0.8; transform-origin: 108.39px 130.009px;" class="animable" id="elt9qgvdfkpxm"><path d="M108.93,109.75a1.78,1.78,0,0,0-3.56,0l0,10.8a.87.87,0,0,0,.52.72,2.74,2.74,0,0,0,2.52,0,.87.87,0,0,0,.52-.72h0Z" style="fill: rgb(255, 255, 255); transform-origin: 107.15px 114.773px;" id="elmufidp022rh" class="animable"></path><path d="M115.65,105.87a1.78,1.78,0,0,0-3.56,0h0l0,10.8a.87.87,0,0,0,.52.73,2.8,2.8,0,0,0,2.52,0,.89.89,0,0,0,.52-.73h0l0-10.8Z" style="fill: rgb(255, 255, 255); transform-origin: 113.87px 110.897px;" id="el72708xi9esd" class="animable"></path><path d="M122.37,102a1.79,1.79,0,0,0-3.57,0h0l0,10.8h0a.91.91,0,0,0,.52.73,2.8,2.8,0,0,0,2.52,0,.89.89,0,0,0,.52-.73h0l0-10.8Z" style="fill: rgb(255, 255, 255); transform-origin: 120.585px 107.087px;" id="elyiyryhv40bf" class="animable"></path><path d="M127.3,96.35a1.78,1.78,0,0,0-1.78,1.78h0l0,10.8a.87.87,0,0,0,.52.72,2.8,2.8,0,0,0,2.52,0,.87.87,0,0,0,.52-.72h0l0-10.8A1.78,1.78,0,0,0,127.3,96.35Z" style="fill: rgb(255, 255, 255); transform-origin: 127.3px 103.15px;" id="elpv99j6swwel" class="animable"></path><path d="M90.43,140.19a1.78,1.78,0,1,1-1.78-3.08L98,131.75a.86.86,0,0,1,.89.08,2.8,2.8,0,0,1,1.26,2.18.88.88,0,0,1-.37.82h0Z" style="fill: rgb(255, 255, 255); transform-origin: 93.9281px 136.063px;" id="elfq4c5egvkhb" class="animable"></path><path d="M90.43,148a1.78,1.78,0,0,1-1.78-3.09h0L98,139.5a.89.89,0,0,1,.89.09,2.76,2.76,0,0,1,1.26,2.18.87.87,0,0,1-.37.81h0L90.43,148Z" style="fill: rgb(255, 255, 255); transform-origin: 93.9567px 143.829px;" id="elvh4kxhxmyyh" class="animable"></path><path d="M90.43,155.7a1.78,1.78,0,1,1-1.78-3.08h0L98,147.25h0a.89.89,0,0,1,.89.09,2.77,2.77,0,0,1,1.26,2.18.92.92,0,0,1-.36.82h0l-9.38,5.36Z" style="fill: rgb(255, 255, 255); transform-origin: 93.9274px 151.572px;" id="elwh1lhr8xwp" class="animable"></path><path d="M88,162.8a1.77,1.77,0,0,1,.66-2.43h0L98,155a.86.86,0,0,1,.89.08,2.8,2.8,0,0,1,1.26,2.18.88.88,0,0,1-.37.82h0l-9.37,5.36A1.79,1.79,0,0,1,88,162.8Z" style="fill: rgb(255, 255, 255); transform-origin: 93.9581px 159.29px;" id="ele31impb877f" class="animable"></path></g></g></g></g></g><defs>     <filter id="active" height="200%">         <feMorphology in="SourceAlpha" result="DILATED" operator="dilate" radius="2"></feMorphology>                <feFlood flood-color="#32DFEC" flood-opacity="1" result="PINK"></feFlood>        <feComposite in="PINK" in2="DILATED" operator="in" result="OUTLINE"></feComposite>        <feMerge>            <feMergeNode in="OUTLINE"></feMergeNode>            <feMergeNode in="SourceGraphic"></feMergeNode>        </feMerge>    </filter>    <filter id="hover" height="200%">        <feMorphology in="SourceAlpha" result="DILATED" operator="dilate" radius="2"></feMorphology>                <feFlood flood-color="#ff0000" flood-opacity="0.5" result="PINK"></feFlood>        <feComposite in="PINK" in2="DILATED" operator="in" result="OUTLINE"></feComposite>        <feMerge>            <feMergeNode in="OUTLINE"></feMergeNode>            <feMergeNode in="SourceGraphic"></feMergeNode>        </feMerge>            <feColorMatrix type="matrix" values="0   0   0   0   0                0   1   0   0   0                0   0   0   0   0                0   0   0   1   0 "></feColorMatrix>    </filter></defs></svg>