<svg class="animated" id="freepik_stories-cat-with-a-witch-hat" xmlns="http://www.w3.org/2000/svg" viewBox="0 0 500 500" version="1.1" xmlns:xlink="http://www.w3.org/1999/xlink" xmlns:svgjs="http://svgjs.com/svgjs"><style>svg#freepik_stories-cat-with-a-witch-hat:not(.animated) .animable {opacity: 0;}svg#freepik_stories-cat-with-a-witch-hat.animated #freepik--Plants--inject-472 {animation: 1.5s Infinite  linear wind;animation-delay: 0s;}svg#freepik_stories-cat-with-a-witch-hat.animated #freepik--Skull--inject-472 {animation: 6s Infinite  linear floating;animation-delay: 0s;}svg#freepik_stories-cat-with-a-witch-hat.animated #freepik--Candle--inject-472 {animation: 6s Infinite  linear floating;animation-delay: 0s;}            @keyframes wind {                0% {                    transform: rotate( 0deg );                }                25% {                    transform: rotate( 1deg );                }                75% {                    transform: rotate( -1deg );                }            }                    @keyframes floating {                0% {                    opacity: 1;                    transform: translateY(0px);                }                50% {                    transform: translateY(-10px);                }                100% {                    opacity: 1;                    transform: translateY(0px);                }            }        .animator-hidden { display: none; }</style><g id="freepik--background-simple--inject-472" class="animable" style="transform-origin: 253.242px 249.185px;"><path d="M334.06,57S258.18,30.13,183.6,73.13,71.29,201.33,38.9,269.59,25,407.19,81.84,438.75s95.59-15.14,175.39-17.53,101.26,9,167.54-36.12,78.41-151.37,26.29-229.92S334.06,57,334.06,57Z" style="fill: #E6CBC5; transform-origin: 253.242px 249.185px;" id="elb4cd0a2topm" class="animable"></path><g id="el4t6hr0u5kd7"><path d="M334.06,57S258.18,30.13,183.6,73.13,71.29,201.33,38.9,269.59,25,407.19,81.84,438.75s95.59-15.14,175.39-17.53,101.26,9,167.54-36.12,78.41-151.37,26.29-229.92S334.06,57,334.06,57Z" style="fill: rgb(255, 255, 255); opacity: 0.7; transform-origin: 253.242px 249.185px;" class="animable" id="elshkhc1nt8ol"></path></g></g><g id="freepik--Floor--inject-472" class="animable" style="transform-origin: 251.6px 353.94px;"><line x1="27.15" y1="353.94" x2="476.05" y2="353.94" style="fill: none; stroke: rgb(38, 50, 56); stroke-linejoin: round; transform-origin: 251.6px 353.94px;" id="el3s5a3pjomuj" class="animable"></line></g><g id="freepik--Spiderwebs--inject-472" class="animable animator-hidden" style="transform-origin: 247.33px 313.075px;"><g id="eli2n2ejnq7o"><g style="opacity: 0.2; transform-origin: 84.95px 301.695px;" class="animable" id="elevw6d7mt99s"><path d="M60.35,249.26s-4.86,12.43-13.51,21.62-22.17,14.6-22.17,14.6,14.6,10.81,15.14,38.38c0,0,26-.54,33.52,22.17,0,0,12.43-17.84,44.33-18.38,0,0-2.71-23.25,20-34.6,0,0-21.08-9.74-21.63-39.47C116,253.58,78.73,267.64,60.35,249.26Z" style="fill: none; stroke: rgb(0, 0, 0); stroke-linecap: round; stroke-linejoin: round; stroke-width: 2px; transform-origin: 81.165px 297.645px;" id="elfci87gqwizg" class="animable"></path><path d="M66.86,264.39a52.76,52.76,0,0,1-9.28,14.86c-5.95,6.32-15.24,10-15.24,10s10,7.43,10.41,26.38c0,0,17.83-.37,23,15.23,0,0,8.54-12.26,30.46-12.63,0,0-1.86-16,13.75-23.78,0,0-14.49-6.68-14.86-27.12C105.13,267.36,79.49,277,66.86,264.39Z" style="fill: none; stroke: rgb(0, 0, 0); stroke-linecap: round; stroke-linejoin: round; stroke-width: 2px; transform-origin: 81.15px 297.625px;" id="el3fk27651efz" class="animable"></path><path d="M74.07,281.15a26.3,26.3,0,0,1-4.6,7.37,24.49,24.49,0,0,1-7.56,5s5,3.68,5.16,13.08c0,0,8.84-.19,11.42,7.55,0,0,4.24-6.08,15.11-6.26a12.14,12.14,0,0,1,6.82-11.8s-7.19-3.31-7.37-13.44C93.05,282.63,80.34,287.42,74.07,281.15Z" style="fill: none; stroke: rgb(0, 0, 0); stroke-linecap: round; stroke-linejoin: round; stroke-width: 2px; transform-origin: 81.165px 297.65px;" id="elw2faywg5w1g" class="animable"></path><path d="M78.26,290.88a10.68,10.68,0,0,1-1.89,3,9.88,9.88,0,0,1-3.1,2s2,1.51,2.12,5.36c0,0,3.62-.07,4.68,3.1,0,0,1.74-2.49,6.19-2.57a5,5,0,0,1,2.8-4.83,6,6,0,0,1-3-5.51S80.82,293.45,78.26,290.88Z" style="fill: none; stroke: rgb(0, 0, 0); stroke-linecap: round; stroke-linejoin: round; stroke-width: 2px; transform-origin: 81.165px 297.61px;" id="el8disp6sculs" class="animable"></path><line x1="57.65" y1="241.69" x2="78.26" y2="290.88" style="fill: none; stroke: rgb(0, 0, 0); stroke-linecap: round; stroke-linejoin: round; stroke-width: 2px; transform-origin: 67.955px 266.285px;" id="elhetlrt2al7e" class="animable"></line><line x1="86.03" y1="291.49" x2="121.44" y2="247.09" style="fill: none; stroke: rgb(0, 0, 0); stroke-linecap: round; stroke-linejoin: round; stroke-width: 2px; transform-origin: 103.735px 269.29px;" id="el61dw1ixxuf" class="animable"></line><line x1="89.06" y1="297" x2="156.58" y2="291.96" style="fill: none; stroke: rgb(0, 0, 0); stroke-linecap: round; stroke-linejoin: round; stroke-width: 2px; transform-origin: 122.82px 294.48px;" id="elsn2no54952a" class="animable"></line><line x1="73.27" y1="295.94" x2="13.32" y2="282.77" style="fill: none; stroke: rgb(0, 0, 0); stroke-linecap: round; stroke-linejoin: round; stroke-width: 2px; transform-origin: 43.295px 289.355px;" id="elfiy6qssxmgm" class="animable"></line><line x1="75.39" y1="301.3" x2="31.7" y2="329.27" style="fill: none; stroke: rgb(0, 0, 0); stroke-linecap: round; stroke-linejoin: round; stroke-width: 2px; transform-origin: 53.545px 315.285px;" id="elb9niqw9tn9h" class="animable"></line><line x1="80.07" y1="304.4" x2="71.16" y2="361.7" style="fill: none; stroke: rgb(0, 0, 0); stroke-linecap: round; stroke-linejoin: round; stroke-width: 2px; transform-origin: 75.615px 333.05px;" id="el9q3pnh4vwcp" class="animable"></line><line x1="86.26" y1="301.83" x2="131.17" y2="339" style="fill: none; stroke: rgb(0, 0, 0); stroke-linecap: round; stroke-linejoin: round; stroke-width: 2px; transform-origin: 108.715px 320.415px;" id="elm1rtsdgub4i" class="animable"></line></g></g><g id="elw47bwja3ky"><g style="opacity: 0.2; transform-origin: 409.705px 324.45px;" class="animable" id="elvjapcjyv00c"><path d="M385.11,272s-4.87,12.44-13.52,21.63-22.16,14.59-22.16,14.59,14.59,10.82,15.13,38.39c0,0,25.95-.54,33.52,22.16,0,0,12.44-17.84,44.33-18.38,0,0-2.7-23.25,20-34.6,0,0-21.09-9.73-21.63-39.46C440.79,276.34,403.49,290.39,385.11,272Z" style="fill: none; stroke: rgb(0, 0, 0); stroke-linecap: round; stroke-linejoin: round; stroke-width: 2px; transform-origin: 405.92px 320.385px;" id="el486mxkdx8zy" class="animable"></path><path d="M391.62,287.15A52.8,52.8,0,0,1,382.33,302c-5.94,6.31-15.23,10-15.23,10s10,7.43,10.4,26.37c0,0,17.83-.37,23,15.23,0,0,8.55-12.25,30.47-12.63,0,0-1.86-16,13.74-23.77,0,0-14.49-6.69-14.86-27.12C429.88,290.12,404.25,299.78,391.62,287.15Z" style="fill: none; stroke: rgb(0, 0, 0); stroke-linecap: round; stroke-linejoin: round; stroke-width: 2px; transform-origin: 405.905px 320.375px;" id="elv72c1oodn8" class="animable"></path><path d="M398.83,303.91a26.19,26.19,0,0,1-4.61,7.37,24.37,24.37,0,0,1-7.55,5s5,3.69,5.16,13.08c0,0,8.84-.18,11.42,7.56,0,0,4.24-6.08,15.11-6.27a12.13,12.13,0,0,1,6.81-11.79s-7.18-3.32-7.37-13.45C417.8,305.38,405.09,310.17,398.83,303.91Z" style="fill: none; stroke: rgb(0, 0, 0); stroke-linecap: round; stroke-linejoin: round; stroke-width: 2px; transform-origin: 405.92px 320.415px;" id="elt2t2k3v60i" class="animable"></path><path d="M403,313.64a10.79,10.79,0,0,1-1.88,3,10.09,10.09,0,0,1-3.1,2s2,1.51,2.12,5.36c0,0,3.62-.08,4.68,3.09,0,0,1.73-2.49,6.19-2.56a5,5,0,0,1,2.79-4.84,6,6,0,0,1-3-5.51S405.58,316.21,403,313.64Z" style="fill: none; stroke: rgb(0, 0, 0); stroke-linecap: round; stroke-linejoin: round; stroke-width: 2px; transform-origin: 405.91px 320.365px;" id="elmw8djk2e7kq" class="animable"></path><line x1="382.4" y1="264.44" x2="403.01" y2="313.64" style="fill: none; stroke: rgb(0, 0, 0); stroke-linecap: round; stroke-linejoin: round; stroke-width: 2px; transform-origin: 392.705px 289.04px;" id="elw2n9327gb2e" class="animable"></line><line x1="410.79" y1="314.24" x2="446.2" y2="269.85" style="fill: none; stroke: rgb(0, 0, 0); stroke-linecap: round; stroke-linejoin: round; stroke-width: 2px; transform-origin: 428.495px 292.045px;" id="el19o3thdv0q4h" class="animable"></line><line x1="413.81" y1="319.75" x2="481.34" y2="314.72" style="fill: none; stroke: rgb(0, 0, 0); stroke-linecap: round; stroke-linejoin: round; stroke-width: 2px; transform-origin: 447.575px 317.235px;" id="elkhmzq3bbqo" class="animable"></line><line x1="398.03" y1="318.7" x2="338.07" y2="305.53" style="fill: none; stroke: rgb(0, 0, 0); stroke-linecap: round; stroke-linejoin: round; stroke-width: 2px; transform-origin: 368.05px 312.115px;" id="elktcsypvakno" class="animable"></line><line x1="400.15" y1="324.06" x2="356.45" y2="352.02" style="fill: none; stroke: rgb(0, 0, 0); stroke-linecap: round; stroke-linejoin: round; stroke-width: 2px; transform-origin: 378.3px 338.04px;" id="else1iph8v8gp" class="animable"></line><line x1="404.83" y1="327.15" x2="395.92" y2="384.46" style="fill: none; stroke: rgb(0, 0, 0); stroke-linecap: round; stroke-linejoin: round; stroke-width: 2px; transform-origin: 400.375px 355.805px;" id="elb1iy39geuba" class="animable"></line><line x1="411.02" y1="324.59" x2="455.93" y2="361.75" style="fill: none; stroke: rgb(0, 0, 0); stroke-linecap: round; stroke-linejoin: round; stroke-width: 2px; transform-origin: 433.475px 343.17px;" id="el6l28gb1dp2w" class="animable"></line></g></g></g><g id="freepik--Cat--inject-472" class="animable animator-active" style="transform-origin: 347.061px 264.929px;"><g id="elxtmaqpmcun9"><path d="M481.58,387.12c-2.33-2.92-22.25-6.95-36.21-9.47-14.78-10.09-43.45-16.93-76.4-16.93-48.08,0-87.06,14.57-87.06,32.55s39,32.55,87.06,32.55S456,411.24,456,393.27v-.15l4.67-3.28C469.78,383.48,485.21,391.65,481.58,387.12Z" style="opacity: 0.2; transform-origin: 382.016px 393.27px;" class="animable" id="elml82y1faav"></path></g><g id="el0sfpjd782azl"><ellipse cx="367.74" cy="393.27" rx="67.71" ry="25.32" style="opacity: 0.2; transform-origin: 367.74px 393.27px;" class="animable" id="elwacbcvmb2pf"></ellipse></g><path d="M292.27,313s7.21,34.66,7.21,48.24-.28,25.23-.83,26.34-9.43,1.94-11.65,6.93,3.33,6.38,7.77,6.38,9.42-.55,11.09-3.88,7.21-39.92,10-52.4S320.27,323,320.27,323l-27.72-17.19Z" style="fill: rgb(38, 50, 56); stroke: rgb(38, 50, 56); stroke-linejoin: round; transform-origin: 303.382px 353.35px;" id="elnbm2qzgwe4" class="animable"></path><path d="M394.09,391.31s6.34,13.18,25.85,20S462.39,423,455.07,440.1s-53.67,10.25-87.82-.49-74.64-18.54-106.84-10.73-25.88,27.49-21.31,29.94c14.26,7.66,21.8-4.08,36.44-10.91s41.95-6.35,62.44-1,60.5,15.12,84.4,17.08,45.37-7.32,50.25-24.88-7.32-23.91-16.58-29.28-32.2-9.75-40.5-14.14S403.84,386,403.84,386,394.09,384.48,394.09,391.31Z" style="fill: rgb(38, 50, 56); stroke: rgb(38, 50, 56); stroke-linejoin: round; transform-origin: 354.542px 425.052px;" id="el2f615jhkvfu" class="animable"></path><path d="M212,153s41.82-4.54,58.68-.93,89.13,20.48,107.2,27.7,45.39,16.31,45.39,16.31-46-32-62.86-43.41-66.24-13.85-81.9-13.85S212,153,212,153Z" style="fill: rgb(38, 50, 56); stroke: rgb(38, 50, 56); stroke-miterlimit: 10; transform-origin: 317.635px 167.45px;" id="el2fl75s1le37" class="animable"></path><path d="M426.59,359.35V346.73c0-5.07-4.4-19.91-4.72-21v-.05L425,327.8s-1.58-12.62-1.58-16.3c0-2.43-4.6-10.16-7.71-15.11-.45-1.24-.92-2.46-1.42-3.65l4.93,2.46s-2.11-4.21-4.21-8.94c-1.93-4.33-11.79-12.63-13.43-14l-.14-.15,5.16,2.06a82.59,82.59,0,0,0-10-11.05c-5.12-4.65-13.53-6-15.4-6.26l-.2-.08,5.08-1s-1.19-.43-3-1.15c-2.22-.86-5.38-2.14-8.54-3.58-5.78-2.63-16.3-.52-16.3-.52l2.63-3.16S348.76,250,342.45,251a11.29,11.29,0,0,1-7-.71c-10.36-3.73-18.23-7-22.79-19.47a76.55,76.55,0,0,1-4.55-23.62,226.1,226.1,0,0,1,21.54-7.87c9.94-2.9,23.61,1.25,30.24,4.15s13.67,5.8,13.67,5.8L369,199l9.12,6.21s-5.8-17-11.6-26.51-2.9-21.13-3.32-24.85-20.3-11.6-44.32-12.43-35.63,0-35.63,0-4.55,8.28-12.84,12.84-20.3,10.36-22.78,17.4-2.08,6.21,1.65,5,10.36-1.66,10.36-1.66-9.53,9.12-6.21,9.53,3.72-2.49,15.32-2.07,21.54,14.5,22.37,20.3-5.8,30.24-12.42,47.64-1.25,39.35,7,53.85,22.78,32.31,22.78,32.31-2.07,38.11-2.9,44.74a42.31,42.31,0,0,1-2.9,11.18,8.19,8.19,0,0,0-8.7,4.15c-2.9,5.38,4.56,8.28,9.94,8.28s11.6-3.73,12.85-7,1.65-12.84,3.31-19.47,5.8-26.93,5.8-26.93,1.66,18.23,6.63,28.59,14.5,17,14.5,17-6.22.83-6.22,6.21,26.1,8.7,41.84,5.8,21.13-7.87,21.54-11.18-.83-5-.83-5,4.06-.26,8.47-4.64v3.25s3.69-3.16,4.74-5.26c.49-1,.75-3.71.89-6.32.46-1,.9-2.06,1.33-3.21l1.46,3.22a94.74,94.74,0,0,0,3.15-9.47c.38-1.86-.31-10.36-.74-15.13,0-.83.08-1.67.11-2.54Z" style="fill: rgb(38, 50, 56); stroke: rgb(38, 50, 56); stroke-linejoin: round; transform-origin: 336.326px 275.618px;" id="elo893j4b0pfq" class="animable"></path><path d="M316.4,170l32.31-2.48s-5.8,9.52-17.4,9.94S316.4,170,316.4,170Z" style="fill: #E6CBC5; stroke: rgb(38, 50, 56); stroke-linejoin: round; transform-origin: 332.555px 172.498px;" id="elieo8p54g8kl" class="animable"></path><path d="M299.83,166l-21.54-12.43S277.46,172.59,299.83,166Z" style="fill: #E6CBC5; stroke: rgb(38, 50, 56); stroke-linejoin: round; transform-origin: 289.058px 160.479px;" id="elz84x1cnxvgk" class="animable"></path><path d="M333,176.22a7.81,7.81,0,0,0,7.66-7.94c0-.07,0-.13,0-.19l-15.24,1.17A7.76,7.76,0,0,0,333,176.22Z" style="fill: rgb(38, 50, 56); stroke: rgb(38, 50, 56); stroke-linejoin: round; transform-origin: 333.041px 172.155px;" id="elmx0eb9a5kj9" class="animable"></path><path d="M296.85,164.24l-10.45-6a5.16,5.16,0,0,0-.7,2.6,6,6,0,0,0,6.22,5.65A6.43,6.43,0,0,0,296.85,164.24Z" style="fill: rgb(38, 50, 56); stroke: rgb(38, 50, 56); stroke-linejoin: round; transform-origin: 291.275px 162.367px;" id="elkui1l774vy" class="animable"></path><path d="M312.37,171.78s-6.63-2.75-10.25-2.2-2.51,3.39-.93,5.62,2.55,3.8,5.44,3.36,7.65-1.66,8.35-3.49S312.37,171.78,312.37,171.78Z" style="fill: rgb(110, 110, 110); stroke: rgb(38, 50, 56); stroke-linejoin: round; transform-origin: 307.391px 174.071px;" id="elpnj1g5shkx" class="animable"></path><path d="M290.9,174.46a10.29,10.29,0,0,0-1,5.37c.24,3.17,3.41,7.56,7.32,7.8s6.34-3.17,6.34-3.17,1.46,6.1,7.32,6.59,9.27-5.37,9.27-8.54" style="fill: none; stroke: rgb(153, 153, 153); stroke-linejoin: round; transform-origin: 305.007px 182.769px;" id="el2mjju1mi74s" class="animable"></path><path d="M295.29,172.75s-28.05,4.64-48.05,18.3" style="fill: none; stroke: rgb(255, 255, 255); stroke-linejoin: round; transform-origin: 271.265px 181.9px;" id="elxdvzhpqxgkj" class="animable"></path><path d="M293.83,175.68s-15.12,6.83-22.2,14.88" style="fill: none; stroke: rgb(255, 255, 255); stroke-linejoin: round; transform-origin: 282.73px 183.12px;" id="eljty7agt2laa" class="animable"></path><path d="M292.61,170.8s-18.78-4.15-33.42-3.17" style="fill: none; stroke: rgb(255, 255, 255); stroke-linejoin: round; transform-origin: 275.9px 169.14px;" id="eldvwuxssfikq" class="animable"></path><path d="M317.25,179.34s15.61,6.83,26.34,27.07" style="fill: none; stroke: rgb(255, 255, 255); stroke-linejoin: round; transform-origin: 330.42px 192.875px;" id="elj9dytpzoeme" class="animable"></path><path d="M316.76,181.29S328,194.71,329.2,207.15" style="fill: none; stroke: rgb(255, 255, 255); stroke-linejoin: round; transform-origin: 322.98px 194.22px;" id="elo514c79pzfp" class="animable"></path><path d="M319.2,177.63s24.88,5.86,32.93,15.37" style="fill: none; stroke: rgb(255, 255, 255); stroke-linejoin: round; transform-origin: 335.665px 185.315px;" id="els9ma9kdxtij" class="animable"></path><path d="M317,169.05s9.72-14.45,18.72-13.27,12.79,9.72,12.79,9.72" style="fill: none; stroke: rgb(153, 153, 153); stroke-linejoin: round; transform-origin: 332.755px 162.381px;" id="elgnbcga3epxk" class="animable"></path><path d="M301.1,165.26s-1.9-12.56-6.4-15.64S279.3,152,279.3,152" style="fill: none; stroke: rgb(153, 153, 153); stroke-linejoin: round; transform-origin: 290.2px 156.969px;" id="ela994ji3k6tf" class="animable"></path><path d="M391.65,314.72s-15.61-16.59-40-16.59-27,39.69-25.71,53.26" style="fill: none; stroke: rgb(153, 153, 153); stroke-linejoin: round; transform-origin: 358.662px 324.76px;" id="elwwfsp25ybs" class="animable"></path><path d="M347.06,397s18.13,9.45,44.47.57" style="fill: none; stroke: rgb(153, 153, 153); stroke-linejoin: round; transform-origin: 369.295px 399.187px;" id="elurj9eu37whg" class="animable"></path><path d="M292.79,128.11s18.64-19.47,38.52-34.38S367.77,74.26,382.68,71s38.11-5.39,50.95-5.39,20.72,2.9,21.13,5.39-5.8,1.24-13.67,1.65S410,85,398.84,93.32s-26.93,27.34-27.76,30.24-4.14,25.68-4.14,25.68S339.6,133.08,323,133.08s-32.73.42-32.73.42Z" style="fill: #E6CBC5; stroke: rgb(38, 50, 56); stroke-linejoin: round; transform-origin: 372.525px 107.425px;" id="ell39tkwwuyee" class="animable"></path><path d="M371.08,123.57c-4-4.81-11.3-11.44-23.61-16.17a60.12,60.12,0,0,0-29.08-3.28c-14.35,12.24-25.6,24-25.6,24l-2.49,5.39s16.16-.42,32.73-.42,43.91,16.16,43.91,16.16S370.24,126.53,371.08,123.57Z" style="fill: rgb(38, 50, 56); stroke: rgb(38, 50, 56); stroke-linejoin: round; transform-origin: 330.69px 126.417px;" id="eludw43a5l40q" class="animable"></path><path d="M212,153s36.45-5.39,72.49-5.8,48.89,3.73,65.46,9.94,73.32,38.94,73.32,38.94-14.09-12.43-29-24.86-29-33.14-47.64-41-28.58-9.94-53-5S212,153,212,153Z" style="fill: #E6CBC5; stroke: rgb(38, 50, 56); stroke-linejoin: round; transform-origin: 317.635px 159.318px;" id="elb360h599r5" class="animable"></path><path d="M454.76,71c-.41-2.47-8.16-5.34-20.82-5.39a12.07,12.07,0,0,1,2.87,7.9,20.23,20.23,0,0,1,4.28-.86C449,72.19,455.18,73.43,454.76,71Z" style="fill: rgb(38, 50, 56); stroke: rgb(38, 50, 56); stroke-linejoin: round; transform-origin: 444.36px 69.56px;" id="el0tmotqvr3s3" class="animable"></path><path d="M418,66.22c-3.31.24-6.76.55-10.23.91a27.42,27.42,0,0,1,8.75,15.3c2.81-1.51,5.64-2.93,8.37-4.21A21.79,21.79,0,0,0,418,66.22Z" style="fill: rgb(38, 50, 56); stroke: rgb(38, 50, 56); stroke-linejoin: round; transform-origin: 416.33px 74.325px;" id="ellbttbtxgsc" class="animable"></path><path d="M378.31,113.67c2.64-3.14,5.78-6.65,9.05-10a52.06,52.06,0,0,0-28.79-25.56A117.14,117.14,0,0,0,336.1,90.3C348.12,89.64,365.7,93,378.31,113.67Z" style="fill: rgb(38, 50, 56); stroke: rgb(38, 50, 56); stroke-linejoin: round; transform-origin: 361.73px 95.89px;" id="elhojr1qyki7p" class="animable"></path><path d="M406.34,88.28a30.73,30.73,0,0,0-13.43-19.23c-3.65.57-7.12,1.21-10.23,1.9-2.94.65-5.95,1.36-9,2.18,6.54,3.14,17.16,10.06,21.56,23.11,1.25-1.07,2.47-2.06,3.64-2.92C401,91.74,403.53,90,406.34,88.28Z" style="fill: rgb(38, 50, 56); stroke: rgb(38, 50, 56); stroke-linejoin: round; transform-origin: 390.01px 82.645px;" id="eleflh0oequs" class="animable"></path><path d="M342.47,102.42,328.23,125l20.32,9.57,1.12-3-15.09-8.44,10.09-16.81s10.51,3.55,13.52,6l1.44-2.75S351.44,102.79,342.47,102.42Z" style="fill: rgb(255, 255, 255); stroke: rgb(38, 50, 56); stroke-linejoin: round; transform-origin: 343.93px 118.495px;" id="elat8pocxf479" class="animable"></path><path d="M343.91,116.2a1.4,1.4,0,0,1-.71-.19,40,40,0,0,0-6.91-2.89,1.46,1.46,0,1,1,.84-2.8,42.64,42.64,0,0,1,7.5,3.13,1.47,1.47,0,0,1-.72,2.75Z" style="fill: rgb(255, 255, 255); stroke: rgb(38, 50, 56); stroke-linejoin: round; transform-origin: 340.313px 113.229px;" id="elygx9iyo9fjg" class="animable"></path><path d="M285.75,134.74l15.74-2.9s-3.32-11.18-7.46-15.33S285.75,134.74,285.75,134.74Z" style="fill: rgb(38, 50, 56); stroke: rgb(38, 50, 56); stroke-linejoin: round; transform-origin: 293.62px 125.368px;" id="el0zan53uvk4qk" class="animable"></path><path d="M288.16,134.21s2.15-18.33,5.07-16,6.82,13.84,6.82,13.84Z" style="fill: #E6CBC5; stroke: rgb(38, 50, 56); stroke-linejoin: round; transform-origin: 294.105px 126.108px;" id="elob2hl5s0zlf" class="animable"></path><path d="M352,142.61l10.77,7.46s6.21-11.19,4.55-16.57S352,142.61,352,142.61Z" style="fill: rgb(38, 50, 56); stroke: rgb(38, 50, 56); stroke-linejoin: round; transform-origin: 359.801px 141.186px;" id="elbbh57qwkz7o" class="animable"></path><path d="M354.23,144s9.55-11.69,10.72-8.19-2.53,13.84-2.53,13.84Z" style="fill: #E6CBC5; stroke: rgb(38, 50, 56); stroke-linejoin: round; transform-origin: 359.704px 142.403px;" id="el3fmbh6x8bym" class="animable"></path></g><g id="freepik--Plants--inject-472" class="animable animator-hidden" style="transform-origin: 98.2221px 200.497px;"><path d="M29.43,96.17c4.39,1.92,15.11,1.68,15.12,1.67s-2.3-7-2.51-7.44c-2.35-4.92-9.79-13.05-15.85-12.23a7.22,7.22,0,0,0-5.8,9.06C21.39,91.42,25.7,94.54,29.43,96.17Z" style="fill: rgb(38, 50, 56); transform-origin: 32.3382px 87.9835px;" id="eljpd2ndnbgu" class="animable"></path><path d="M137.92,98.53c.09.06,2-7.13,2-7.59.75-5.41-1-16.29-6.47-19-4-1.92-8.4.39-9.84,4.36s.4,9,2.61,12.44C128.83,92.81,137.91,98.53,137.92,98.53Z" style="fill: rgb(38, 50, 56); transform-origin: 131.592px 84.8915px;" id="el195nbuzouokj" class="animable"></path><path d="M169.93,59.66c-6.08-.65-13.3,7.68-15.52,12.66-.19.43-2.41,7.51-2.3,7.51h.13c-1.15,1.31-2.37,2.72-3.67,4.29-2.37,2.92-5,6.24-7.68,10a128.25,128.25,0,0,0-8,12.69,94.39,94.39,0,0,0-6.81,15.32l0,.2c0-1.79,0-6.8-.1-7.18-.7-5.42-5.24-15.46-11.25-16.57-4.32-.8-8,2.59-8.34,6.8s2.77,8.6,5.81,11.32c3.43,3.06,12.94,6,13.7,6.26a126.5,126.5,0,0,0-4,16.6c-.58,3.27-1.07,6.58-1.51,9.9,0-1.54-.06-2.93-.08-3.12C119.56,141,115,130.93,109,129.82a7.23,7.23,0,0,0-8.34,6.8c-.35,4.3,2.77,8.61,5.8,11.32s11.15,5.45,13.29,6.13c-.15,1.28-.33,2.55-.48,3.83-.73,6.13-1.44,12.25-2.31,18.24-.31,2.11-.69,4.17-1.06,6.24,0-1.37,0-2.53-.08-2.71-.7-5.41-5.23-15.45-11.24-16.56a7.23,7.23,0,0,0-8.34,6.8c-.35,4.3,2.76,8.6,5.8,11.31s10.36,5.18,12.91,6c-.45,2.1-.89,4.22-1.42,6.24-.39,1.37-.67,2.72-1.14,4.07s-.87,2.69-1.3,4c-.91,2.52-1.85,5.13-2.8,7.57-.66,1.7-1.31,3.31-2,4.93.33-2.09.89-6.21.9-6.56a28.18,28.18,0,0,0-3.77-13.66,8.6,8.6,0,0,0-.1-1.6,7.23,7.23,0,0,0-8.84-6.13c-5.91,1.57-9.65,11.94-9.93,17.39,0,.32.19,3.82.36,6-.3-1.29-.57-2.54-.89-3.86-.62-2.61-1.32-5.2-2-8-.41-1.34-.81-2.68-1.23-4s-1-2.75-1.42-4.14c-1.17-3.19-2.51-6.37-3.93-9.54,2.29-.55,10.38-2.61,13.62-5.1s6.67-6.54,6.64-10.86a7.24,7.24,0,0,0-7.81-7.4c-6.08.66-11.35,10.34-12.45,15.68-.07.34-.43,4.26-.59,6.42-.87-1.9-1.72-3.8-2.66-5.7-2.72-5.47-5.64-10.92-8.53-16.37-.88-1.67-1.74-3.34-2.61-5,.81-.19,10.48-2.43,14.12-5.22,3.23-2.48,6.66-6.54,6.63-10.85A7.23,7.23,0,0,0,74,128.16c-6.08.66-11.35,10.34-12.45,15.68-.08.41-.59,6-.65,7.49-1.91-3.68-3.79-7.37-5.49-11.08a127.71,127.71,0,0,1-6-15.4c.38-.09,10.48-2.38,14.21-5.24,3.23-2.48,6.66-6.54,6.63-10.85a7.24,7.24,0,0,0-7.81-7.41C56.4,102,51.13,111.69,50,117c-.07.35-.47,4.66-.61,6.71l-.34,0A93.36,93.36,0,0,1,46,107.46c-.34-3-.5-6-.58-8.8,1.92-.24,10.71-1.41,14.34-3.61S67.07,89.28,67.52,85,65,76.78,60.57,76.78c-6.11,0-12.42,9-14.1,14.22-.09.28-.7,3.25-1.12,5.42,0-1.28-.06-2.61-.06-3.84,0-4.62.3-8.85.59-12.6.18-2.12.39-4,.6-5.84,1.77-1.21,8.84-6.2,11-9.77s3.86-8.5,2.27-12.51a7.23,7.23,0,0,0-9.95-4.09c-5.43,2.8-6.86,13.73-6,19.11.08.47,2.13,7.6,2.22,7.54l.11-.07c-.24,1.72-.47,3.57-.69,5.6-.37,3.74-.76,8-.87,12.62a128.22,128.22,0,0,0,.36,15,94.48,94.48,0,0,0,2.77,16.53c0,.07,0,.13.07.2-1-1.51-3.79-5.65-4-5.94-3.57-4.13-12.89-10-18.52-7.61C21.2,112.45,20,117.3,22.05,121s7.05,5.65,11.08,6.24c4.55.66,14.12-2.11,14.89-2.34A127.57,127.57,0,0,0,53.82,141c1.32,3,2.74,6.08,4.2,9.1-.87-1.28-1.66-2.41-1.79-2.56-3.57-4.13-12.89-10-18.52-7.61a7.22,7.22,0,0,0-3.2,10.27c2.08,3.78,7.05,5.65,11.08,6.24s12.3-1.61,14.47-2.22c.57,1.15,1.13,2.31,1.71,3.46,2.77,5.52,5.56,11,8.13,16.49.91,1.92,1.73,3.86,2.56,5.79-.78-1.14-1.44-2.09-1.56-2.22-3.57-4.13-12.89-10-18.51-7.61a7.23,7.23,0,0,0-3.21,10.27c2.08,3.78,7,5.65,11.09,6.24s11.5-1.4,14.07-2.11c.79,2,1.59,4,2.26,6,.43,1.36.94,2.64,1.3,4s.76,2.72,1.13,4.06c.63,2.62,1.29,5.3,1.84,7.87.39,1.78.73,3.48,1.08,5.19-.88-1.93-2.68-5.67-2.87-6-2.9-4.61-11.22-11.83-17.15-10.33A7.24,7.24,0,0,0,57.21,205c1.48,4.06,6.11,6.66,10,7.85,4.29,1.31,13.79.11,15-.05.57,2.84,1.1,5.61,1.55,8.23,1.6,9.07,2.59,16.69,3.2,22,.11,1,.21,1.79.29,2.59H68.85L74.4,353.94h33.67l5.55-108.31H96.48l.38-.78c2.36-4.9,5.62-11.94,9.14-20.55,1.12-2.72,2.26-5.65,3.4-8.67,1.15.25,10.56,2.16,14.94,1.17,4-.9,8.79-3.15,10.57-7.08a7.23,7.23,0,0,0-4-10c-5.8-1.95-14.64,4.63-17.88,9-.19.26-2,3.3-3,5.24.47-1.24.93-2.43,1.38-3.71.93-2.52,1.78-5.06,2.7-7.79.4-1.34.8-2.69,1.21-4.05s.72-2.81,1.09-4.23c.79-3.31,1.42-6.7,2-10.13,2.21.81,10.09,3.55,14.18,3.26s9.16-1.78,11.51-5.39,1.49-8.47-2.43-10.48c-5.43-2.8-15.16,2.36-19,6.21-.24.24-2.71,3.31-4,5,.33-2.07.66-4.13.92-6.23.75-6,1.33-12.21,1.92-18.35.19-1.88.39-3.75.59-5.63.78.3,10.08,3.76,14.65,3.44,4.07-.28,9.17-1.78,11.52-5.39a7.23,7.23,0,0,0-2.43-10.49c-5.43-2.8-15.16,2.37-19,6.21-.29.29-3.83,4.72-4.68,5.89.44-4.12.91-8.23,1.54-12.27a128,128,0,0,1,3.53-16.13c.36.14,10,3.79,14.73,3.46,4.07-.28,9.17-1.78,11.52-5.39s1.49-8.47-2.43-10.48c-5.43-2.8-15.16,2.36-19,6.21-.25.25-3,3.62-4.2,5.25l-.31-.16a93,93,0,0,1,6.41-15.32c1.39-2.72,2.87-5.24,4.36-7.66,1.74.87,9.71,4.74,14,4.91,4.07.16,9.3-.77,12-4.1a7.24,7.24,0,0,0-1.26-10.69c-5.09-3.38-15.34.69-19.6,4.09-.24.18-2.39,2.32-3.93,3.9.69-1.08,1.39-2.21,2.07-3.23,2.55-3.85,5.13-7.22,7.44-10.18,1.33-1.68,2.56-3.16,3.72-4.54,2.15,0,10.8-.31,14.58-2.08s7.9-5,8.79-9.18A7.22,7.22,0,0,0,169.93,59.66ZM102.66,222.89c-3.67,8.45-7,15.35-9.48,20.14l-1.33,2.6h-.41c-.12-.93-.25-1.95-.41-3.1-.74-5.38-1.91-13.05-3.72-22.18-.57-2.88-1.23-5.95-1.94-9.1a78.83,78.83,0,0,0,8.35-3.93c3.13,3.39,11.15,7.35,12.18,7.85C104.81,217.86,103.73,220.45,102.66,222.89Z" style="fill: rgb(38, 50, 56); transform-origin: 98.6925px 200.497px;" id="elhpz2xw5mso4" class="animable"></path></g><g id="freepik--Skull--inject-472" class="animable" style="transform-origin: 171.62px 334.62px;"><g id="elh870kdrwdoh"><ellipse cx="171.62" cy="391.83" rx="93.33" ry="34.89" style="opacity: 0.2; transform-origin: 171.62px 391.83px;" class="animable" id="elxbgt87156m"></ellipse></g><g id="elvp4yev6r6ys"><ellipse cx="171.62" cy="391.83" rx="66.34" ry="24.8" style="opacity: 0.2; transform-origin: 171.62px 391.83px;" class="animable" id="elkqovkvgel9"></ellipse></g><path d="M228.69,268.07A124.62,124.62,0,0,0,189.26,245c-25.44-9.37-70.09,9.32-83.21,30.87s-3.56,41.74-6.61,53.86S93.83,359,95.32,365.61s12.17,12.33,17.28,12.68c0,0,1.56,7.45.38,12.64s-7.4,10.85-6.08,15.79,11,9.07,16,7.75,7.53-14,7.53-14,3.27-1.17,3.51,1.35-4.9,12.3.36,14.33,16.43,6.57,20.38,3.66.86-8.53,3-13,4.62-4.67,5.19,1.18-3.13,11.29,4,14.83,16.9.05,19.76-5.3.13-16.06-.27-20.25S190.48,380,198.18,381s15.76,14.52,35.36,7.56,25.73-39.66,22.89-69C254.4,298.65,243.66,281.34,228.69,268.07Z" style="fill: rgb(255, 255, 255); transform-origin: 175.985px 333.387px;" id="elgh6onv5132p" class="animable"></path><g id="el1esndfv3hyi"><path d="M240.13,280.11c4.49,10.67,10.28,28.71,6,43.23-6.56,22.09-18-5.8-26.1-12s-18.54.06-18.54.06a31.66,31.66,0,0,1,16.82,18.08c4.79,13.45-.31,26.7-5.61,31.85s-14,11.22-26.33,9.51c-11.76-1.62-21.73-6.59-27.65-27.65a92.87,92.87,0,0,1,1.8-23.76c3.56-17.16,28.92-12.66,28.92-12.66s-25-6.28-33.09,5.52c-4.38,6.36-5.07,16.05-4.78,23.65a34.64,34.64,0,0,0,.26,7.52c.16.74.44,1.72.77,2.83.12.73.2,1.14.2,1.14a3.74,3.74,0,0,0,1.06,3.05c1.78,6.15,3.18,12.89-2.71,9.86-8.54-4.39-19.07-17.28-19.07-17.28s11.38-20.24,9.39-28.74-16.49-14.64-26-5S95.69,332.7,99.51,342.18s10.23,15.82,16.1,10.62,15.5-19.48,14.86-14.2-5.93,22.61-13.06,26.78-18.59-6.32-19.29-1.61,3.82,9.49,7.54,12a16,16,0,0,0,2.35,1.33,16.27,16.27,0,0,0,4.59,1.17s6.94-14.86,9.62-11.06,3.29,15.92,6.45,12.71,5.3-5.15,5.47-3.43-.5,12.81-.5,12.81,6-12.25,10.73-15,9.19,17.08,11,12.27l1.86-4.82s2-9.47,4-6.76,6.63,8.63,6.63,8.63l1.35-10s8.55,4.39,10.31,10.6c.91,3.23,4,7.81,6.75,11.46.56-5.19,5-15.61,11.89-14.77,7.69.95,15.76,14.52,35.36,7.56s25.73-39.66,22.89-69A74.63,74.63,0,0,0,240.13,280.11Z" style="opacity: 0.3; transform-origin: 177.558px 337.895px;" class="animable" id="elwfilwu77vj"></path></g><path d="M100.17,371.85s2.54,2.43,7,1.23,10.53-6,9.92-4.41-4.51,9.62-4.51,9.62S104.07,376.45,100.17,371.85Z" style="fill: rgb(38, 50, 56); stroke: rgb(38, 50, 56); stroke-linejoin: round; transform-origin: 108.651px 373.32px;" id="elnentpnedzxi" class="animable"></path><path d="M185.87,395.41s-5-17.58-.1-18.06,13.73,3.27,13.73,3.27S188.08,379.93,185.87,395.41Z" style="fill: rgb(38, 50, 56); stroke: rgb(38, 50, 56); stroke-linejoin: round; transform-origin: 191.559px 386.359px;" id="elfx7w2afzjt" class="animable"></path><path d="M228.69,268.07A124.62,124.62,0,0,0,189.26,245c-25.44-9.37-70.09,9.32-83.21,30.87s-3.56,41.74-6.61,53.86S93.83,359,95.32,365.61s12.17,12.33,17.28,12.68c0,0,1.56,7.45.38,12.64s-7.4,10.85-6.08,15.79,11,9.07,16,7.75,7.53-14,7.53-14,3.27-1.17,3.51,1.35-4.9,12.3.36,14.33,16.43,6.57,20.38,3.66.86-8.53,3-13,4.62-4.67,5.19,1.18-3.13,11.29,4,14.83,16.9.05,19.76-5.3.13-16.06-.27-20.25S190.48,380,198.18,381s15.76,14.52,35.36,7.56,25.73-39.66,22.89-69C254.4,298.65,243.66,281.34,228.69,268.07Z" style="fill: none; stroke: rgb(38, 50, 56); stroke-linejoin: round; transform-origin: 175.985px 333.387px;" id="el72l3wxupltt" class="animable"></path><path d="M133.58,329c1.89-6.08,1.69-11.88-3.18-18.21-8.15-10.6-24.76,1.69-27.63,16.21s-7.12,22.06,2.67,27.52c11.26,6.29,21.08-10,25.08-18.15A53.76,53.76,0,0,0,133.58,329Z" style="fill: rgb(38, 50, 56); stroke: rgb(38, 50, 56); stroke-linejoin: round; transform-origin: 117.014px 331.366px;" id="elwuu44agk6s" class="animable"></path><path d="M178.81,308.17a33.24,33.24,0,0,0-6.11.27c-20,2.79-17.32,27.38-10.1,40.54,5.19,9.46,18.57,15.29,32,14s23.19-17.91,21.53-27.73C213.46,319.63,194.68,308.86,178.81,308.17Z" style="fill: rgb(38, 50, 56); stroke: rgb(38, 50, 56); stroke-linejoin: round; transform-origin: 186.78px 335.645px;" id="eljjjygvi3lt9" class="animable"></path><path d="M141.77,332.48a108,108,0,0,0-11.7,18.94c-6,12-4.78,16.84.23,17.07s11.88-9.7,11.88-9.7,1.8,11.22,6.94,12.86,12.23-6.17,6.9-17S141.77,332.48,141.77,332.48Z" style="fill: rgb(38, 50, 56); stroke: rgb(38, 50, 56); stroke-linejoin: round; transform-origin: 141.976px 352.174px;" id="elss46nos8se" class="animable"></path><path d="M115.45,391.76a22.57,22.57,0,0,1,6.62-8.47c4.39-3.17,7.66,6.31,8.35,9.37a42.42,42.42,0,0,1,.84,4.62" style="fill: none; stroke: rgb(38, 50, 56); stroke-linejoin: round; transform-origin: 123.355px 389.965px;" id="el4ww5ujyb4v4" class="animable"></path><path d="M134.23,399.73s4.06-10.28,9.81-11.91c4.28-1.21,7.91.8,9.92,5.3s1.79,10.4,1.79,10.4" style="fill: none; stroke: rgb(38, 50, 56); stroke-linejoin: round; transform-origin: 144.994px 395.497px;" id="elaeplnk1985n" class="animable"></path><path d="M163.47,402.38s.68-9.07,7.75-12.89,12.2,4.69,12.71,5.82" style="fill: none; stroke: rgb(38, 50, 56); stroke-linejoin: round; transform-origin: 173.7px 395.445px;" id="elz3h1rodpxd" class="animable"></path><path d="M174.26,424.83s2.4-11.59,1.83-17.41" style="fill: none; stroke: rgb(38, 50, 56); stroke-linejoin: round; transform-origin: 175.219px 416.125px;" id="ela3etstasxm" class="animable"></path><line x1="179.42" y1="421.59" x2="180.7" y2="410.5" style="fill: none; stroke: rgb(38, 50, 56); stroke-linejoin: round; transform-origin: 180.06px 416.045px;" id="elatieqz9fybq" class="animable"></line><path d="M138.22,416.58s.8-7.91,1.38-9.93" style="fill: none; stroke: rgb(38, 50, 56); stroke-linejoin: round; transform-origin: 138.91px 411.615px;" id="elzvpxxoc27rl" class="animable"></path><path d="M143,401.23s-2.25,13.14-2.13,14.31" style="fill: none; stroke: rgb(38, 50, 56); stroke-linejoin: round; transform-origin: 141.933px 408.385px;" id="elukq01gaqgnr" class="animable"></path><path d="M110.28,407.14s4.37-7.47,8-10.95" style="fill: none; stroke: rgb(38, 50, 56); stroke-linejoin: round; transform-origin: 114.28px 401.665px;" id="el5fn5dlirapg" class="animable"></path><line x1="113.3" y1="409.98" x2="116.97" y2="403.36" style="fill: none; stroke: rgb(38, 50, 56); stroke-linejoin: round; transform-origin: 115.135px 406.67px;" id="ely307yklgpub" class="animable"></line><path d="M164.69,356.74s5.69,16.84,22.63,18.1,28.74-8.58,29.55-12.14" style="fill: none; stroke: rgb(38, 50, 56); stroke-linejoin: round; transform-origin: 190.78px 365.845px;" id="el2l9p3856pt2" class="animable"></path><path d="M161.76,356.44s3.56,18.79,15.61,23.42" style="fill: none; stroke: rgb(38, 50, 56); stroke-linejoin: round; transform-origin: 169.565px 368.15px;" id="els2haa0yrdk" class="animable"></path><path d="M130.75,341.47a73.14,73.14,0,0,1-9.14,19.44c-6.11,8.71-14.49,6-16.43,3.91" style="fill: none; stroke: rgb(38, 50, 56); stroke-linejoin: round; transform-origin: 117.965px 354.199px;" id="elp53ca3jqedb" class="animable"></path><path d="M125.56,347.77s-6,10.44-15,13.05-12.16-5.78-12.32-7.5" style="fill: none; stroke: rgb(38, 50, 56); stroke-linejoin: round; transform-origin: 111.9px 354.545px;" id="elm2yfsiogzas" class="animable"></path><path d="M141.58,327.67s3.8-2.69,2.52-15.9-12.47-15-12.47-15" style="fill: none; stroke: rgb(38, 50, 56); stroke-linejoin: round; transform-origin: 137.997px 312.22px;" id="el3nfsdbayh83" class="animable"></path><path d="M148.81,330.45s-1.5-15.51,7-23.29" style="fill: none; stroke: rgb(38, 50, 56); stroke-linejoin: round; transform-origin: 152.259px 318.805px;" id="elqlv86qjovag" class="animable"></path><path d="M133.1,395.75s2.17-13.55,2.58-15.33.76-4.13,1.63-7.11" style="fill: none; stroke: rgb(38, 50, 56); stroke-linejoin: round; transform-origin: 135.205px 384.53px;" id="elncb83wrd06r" class="animable"></path><path d="M158.77,397.32s-.54-11.55-1.5-15.51-1.77-6.21-1.77-6.21" style="fill: none; stroke: rgb(38, 50, 56); stroke-linejoin: round; transform-origin: 157.135px 386.46px;" id="elmdj06372krc" class="animable"></path><path d="M150.91,376.05s0,5.8.2,8.09" style="fill: none; stroke: rgb(38, 50, 56); stroke-linejoin: round; transform-origin: 151.01px 380.095px;" id="el9s2ciu5oe06" class="animable"></path><path d="M125.17,379.7c.35-2.35,3.3-7.86,3.3-7.86" style="fill: none; stroke: rgb(38, 50, 56); stroke-linejoin: round; transform-origin: 126.82px 375.77px;" id="el02tevz13nrrw" class="animable"></path></g><g id="freepik--Candle--inject-472" class="animable" style="transform-origin: 167.622px 203.027px;"><path d="M137.84,266.59s3.4.81,6.63-2.91,8.41-8.9,10.52-10,2.75-.16,2.42.48-4.2,9.06-4.2,9.06,2.1.65,5.66-2.26,5-8.58,8.57-9.55,3.72,0,7.77,1.14,8.08-1,9.7-2,2.75-.64,6.15,2.43,4.85,1.78.81-1.78-10.52-7.76-14.56-7.76a36.52,36.52,0,0,0-14.07,2.91,85.1,85.1,0,0,0-9.06,4.85c-4.69,2.75-9.39,5.66-9.39,5.66Z" style="fill: rgb(38, 50, 56); stroke: rgb(38, 50, 56); stroke-linejoin: round; transform-origin: 166.079px 255.052px;" id="elaa1139n3gro" class="animable"></path><path d="M164.53,210.54s0,18.9-.4,25.27-.8,8.37-5.58,11.16-9.16,4-14,7.57-7.76,7.86-8,10.76c-.09,1.29,1.2,2.79,5.18-.4s8.37-10,13.55-12.75.4,1.19-4.38,6.37.4,8,6.77,2.79,6.78-13.15,12.35-11.95,1.6,2,6,3.58,6.38.4,6.38-2,2.39-5.18,5.18-.79,8.36,10.75,10.75,8.36-7.57-9.56-9.56-15.14,0-48.78,0-48.78-1.19-6-10,0S164.53,210.54,164.53,210.54Z" style="fill: rgb(217, 217, 217); stroke: rgb(38, 50, 56); stroke-linejoin: round; transform-origin: 167.622px 229.364px;" id="elvlmxuk27zb" class="animable"></path><path d="M188.33,208c.24-7.59.5-13.37.5-13.37s-1.19-6-10,0-14.34,15.94-14.34,15.94,0,17.58-.36,24.55a11.12,11.12,0,0,0,.36-1.21c1.19-5.18-.4-17.13,1.19-16.73s-.8,4,2,6.77,3.19-1.2,4-4.38,1.59-5.57,2.78-6,2.29.88,3.5.92c1.83.08,2.18-1.38,2.48-2.91.8-4,.8-5.58,2-8s2-3.19,3.58-3.19S186.5,208,188.33,208Z" style="fill: rgb(38, 50, 56); stroke: rgb(38, 50, 56); stroke-linejoin: round; transform-origin: 176.48px 213.542px;" id="el46s3jh9fcrb" class="animable"></path><path d="M175.68,187.43a22.06,22.06,0,0,1-8.76,6c-6,2.4-9.17,3.59-9.17,7.58s1.6,8,1.6,13.94-1.2,14.35,0,17.53,4,4.78,5.18-.4-.4-17.13,1.19-16.73-.8,4,2,6.77,3.19-1.19,4-4.38,1.59-5.57,2.78-6,2.29.87,3.5.92c1.83.07,2.18-1.39,2.48-2.92.8-4,.8-5.58,2-8s2-3.19,3.58-3.19.4,8,2.39,7.57.8-5.57.8-11.15,2.79-8.37-1.59-11.16S177.68,185.83,175.68,187.43Z" style="fill: rgb(217, 217, 217); stroke: rgb(38, 50, 56); stroke-linejoin: round; transform-origin: 173.938px 209.194px;" id="ely7zt93nmaaf" class="animable"></path><path d="M169.78,192.22s-9.75,4.43-14.88-3.36,6.91-21.8,7.44-27.47-2.84-9-3-13.29,3.36-8.85,3.36-8.85-1.41,8.5.71,11.51,18.78,16,19.49,24.45S172.08,192.22,169.78,192.22Z" style="fill: rgb(255, 255, 255); stroke: rgb(38, 50, 56); stroke-linejoin: round; transform-origin: 168.281px 166.362px;" id="elpsmsa24ydql" class="animable"></path><path d="M169.78,189.92s-3,.71-6.38-1.95-4.43-6.2-.71-12.22,5.14-8.15,4.43-11.52a14.34,14.34,0,0,0-1.42-4.43s7.8,8.86,10.1,16.3S174.21,189.92,169.78,189.92Z" style="fill: #E6CBC5; transform-origin: 168.412px 174.903px;" id="elczsfeeyoh8c" class="animable"></path><path d="M171.73,192.58a7.81,7.81,0,0,0-1.95-2.66l-2.13-1.42,1.07-1.41s1.59,1.77,2.83,3.36a7.1,7.1,0,0,1,1.42,2.48Z" style="fill: rgb(38, 50, 56); transform-origin: 170.31px 190.01px;" id="el4mlz3jllznm" class="animable"></path><path d="M164,196.27s-2.75.69-3.71,2.06,0,2.34,3,2.2,2.61-.27,9.07-3.57,11.4-5.63,13.19-7.69,1.92-5.08-1.52-4.54-3.57.55-3.43,2.48,3,1.1-4,5.22-12.5,6.45-12.5,5.35S164.91,196.14,164,196.27Z" style="fill: rgb(255, 255, 255); transform-origin: 173.359px 192.605px;" id="elohj5box867s" class="animable"></path><path d="M179.72,191s-6.3,3.56-8.52,4.64-7.29,3.12-6.31,3.23,1.14.11,6.2-2.25S184,189.19,179.72,191Z" style="fill: rgb(255, 255, 255); transform-origin: 172.859px 194.761px;" id="elj9g117c8jtn" class="animable"></path></g><defs>     <filter id="active" height="200%">         <feMorphology in="SourceAlpha" result="DILATED" operator="dilate" radius="2"></feMorphology>                <feFlood flood-color="#32DFEC" flood-opacity="1" result="PINK"></feFlood>        <feComposite in="PINK" in2="DILATED" operator="in" result="OUTLINE"></feComposite>        <feMerge>            <feMergeNode in="OUTLINE"></feMergeNode>            <feMergeNode in="SourceGraphic"></feMergeNode>        </feMerge>    </filter>    <filter id="hover" height="200%">        <feMorphology in="SourceAlpha" result="DILATED" operator="dilate" radius="2"></feMorphology>                <feFlood flood-color="#ff0000" flood-opacity="0.5" result="PINK"></feFlood>        <feComposite in="PINK" in2="DILATED" operator="in" result="OUTLINE"></feComposite>        <feMerge>            <feMergeNode in="OUTLINE"></feMergeNode>            <feMergeNode in="SourceGraphic"></feMergeNode>        </feMerge>            <feColorMatrix type="matrix" values="0   0   0   0   0                0   1   0   0   0                0   0   0   0   0                0   0   0   1   0 "></feColorMatrix>    </filter></defs></svg>