<svg width="24" height="24" viewBox="0 0 24 24" fill="none" xmlns="http://www.w3.org/2000/svg">
<path d="M10.0028 23.835C7.0366 23.3373 4.36574 21.7408 2.52048 19.3624C0.675217 16.9841 -0.209494 13.9979 0.041988 10.9966C0.29347 7.99532 1.66276 5.19848 3.87799 3.16135C6.09323 1.12422 8.99243 -0.00424194 12 1.19833e-05V1.19833e-05C15.0076 -0.00424194 17.9068 1.12422 20.122 3.16135C22.3372 5.19848 23.7065 7.99532 23.958 10.9966C24.2095 13.9979 23.3248 16.9841 21.4795 19.3624C19.6343 21.7408 16.9634 23.3373 13.9972 23.835L12 22.1675L10.0028 23.835Z" fill="#2D57C4"/>
<path d="M13.9971 23.83V15.6675H16.6609L17.1926 12H13.9971V9.8825C13.9971 8.9325 14.3392 8.00001 15.8271 8.00001H17.3249V4.66751C16.4425 4.5135 15.5493 4.42991 14.6537 4.41751C11.9176 4.41501 10.0028 6.32501 10.0028 9.33251V12H7.00703V15.6675H10.0028V23.83C11.3246 24.0567 12.6753 24.0567 13.9971 23.83V23.83Z" fill="white"/>
</svg>
