<svg width="24" height="24" viewBox="0 0 24 24" fill="none" xmlns="http://www.w3.org/2000/svg">
<path d="M5.31891 14.5038L4.4835 17.6225L1.43011 17.6871C0.517594 15.9946 0 14.0581 0 12.0003C0 10.0104 0.483938 8.13384 1.34175 6.48152H1.34241L4.06078 6.9799L5.2516 9.682C5.00236 10.4086 4.86652 11.1886 4.86652 12.0003C4.86661 12.8812 5.02618 13.7252 5.31891 14.5038Z" fill="#D14848"/>
<path d="M23.7904 9.758C23.9282 10.4839 24.0001 11.2336 24.0001 11.9998C24.0001 12.8589 23.9097 13.697 23.7376 14.5053C23.1535 17.2561 21.6271 19.6581 19.5126 21.3579L19.512 21.3573L16.088 21.1826L15.6034 18.1575C17.0065 17.3346 18.103 16.0469 18.6806 14.5053H12.2639V9.758H18.7742H23.7904V9.758Z" fill="#518EF8"/>
<path d="M19.5119 21.3576L19.5126 21.3582C17.4561 23.0112 14.8438 24.0002 12.0001 24.0002C7.43017 24.0002 3.45699 21.4459 1.43016 17.687L5.31896 14.5036C6.33235 17.2083 8.94137 19.1336 12.0001 19.1336C13.3148 19.1336 14.5465 18.7782 15.6033 18.1577L19.5119 21.3576Z" fill="#00AB6B"/>
<path d="M19.6596 2.76266L15.7721 5.94533C14.6782 5.2616 13.3852 4.86663 12 4.86663C8.87206 4.86663 6.21424 6.88026 5.25161 9.68188L1.34238 6.4814H1.34172C3.33888 2.6308 7.36216 0 12 0C14.9116 0 17.5813 1.03717 19.6596 2.76266Z" fill="#D14848"/>
</svg>
